<mxfile host="app.diagrams.net" agent="Mozilla/5.0 (Windows NT 10.0; Win64; x64) AppleWebKit/537.36 (KHTML, like Gecko) Chrome/130.0.0.0 Safari/537.36" version="24.8.6" pages="4">
  <diagram id="ZZA1AWEj8JIO0qVCS3Dq" name="Contexto de Sistema">
    <mxGraphModel dx="1235" dy="614" grid="1" gridSize="10" guides="1" tooltips="1" connect="1" arrows="1" fold="1" page="1" pageScale="1" pageWidth="1100" pageHeight="850" math="0" shadow="0">
      <root>
        <mxCell id="0" />
        <mxCell id="1" parent="0" />
        <object placeholders="1" c4Name="API MVC" c4Type="Software System" c4Description="Backend responsavel pelas operações CRUD" label="&lt;font style=&quot;font-size: 16px&quot;&gt;&lt;b&gt;%c4Name%&lt;/b&gt;&lt;/font&gt;&lt;div&gt;[%c4Type%]&lt;/div&gt;&lt;br&gt;&lt;div&gt;&lt;font style=&quot;font-size: 11px&quot;&gt;&lt;font color=&quot;#cccccc&quot;&gt;%c4Description%&lt;/font&gt;&lt;/div&gt;" id="glwvKlrnZFDkjteL4bDG-15">
          <mxCell style="rounded=1;whiteSpace=wrap;html=1;labelBackgroundColor=none;fillColor=#1061B0;fontColor=#ffffff;align=center;arcSize=10;strokeColor=#0D5091;metaEdit=1;resizable=0;points=[[0.25,0,0],[0.5,0,0],[0.75,0,0],[1,0.25,0],[1,0.5,0],[1,0.75,0],[0.75,1,0],[0.5,1,0],[0.25,1,0],[0,0.75,0],[0,0.5,0],[0,0.25,0]];" vertex="1" parent="1">
            <mxGeometry x="390" y="390" width="240" height="120" as="geometry" />
          </mxCell>
        </object>
        <object placeholders="1" c4Name="Sistema Requisitor Externo" c4Type="Software System" c4Description="Sistema externo que faz as requisições" label="&lt;font style=&quot;font-size: 16px&quot;&gt;&lt;b&gt;%c4Name%&lt;/b&gt;&lt;/font&gt;&lt;div&gt;[%c4Type%]&lt;/div&gt;&lt;br&gt;&lt;div&gt;&lt;font style=&quot;font-size: 11px&quot;&gt;&lt;font color=&quot;#cccccc&quot;&gt;%c4Description%&lt;/font&gt;&lt;/div&gt;" id="glwvKlrnZFDkjteL4bDG-16">
          <mxCell style="rounded=1;whiteSpace=wrap;html=1;labelBackgroundColor=none;fillColor=#8C8496;fontColor=#ffffff;align=center;arcSize=10;strokeColor=#736782;metaEdit=1;resizable=0;points=[[0.25,0,0],[0.5,0,0],[0.75,0,0],[1,0.25,0],[1,0.5,0],[1,0.75,0],[0.75,1,0],[0.5,1,0],[0.25,1,0],[0,0.75,0],[0,0.5,0],[0,0.25,0]];" vertex="1" parent="1">
            <mxGeometry x="390" y="90" width="240" height="120" as="geometry" />
          </mxCell>
        </object>
        <mxCell id="glwvKlrnZFDkjteL4bDG-17" style="edgeStyle=orthogonalEdgeStyle;rounded=0;orthogonalLoop=1;jettySize=auto;html=1;entryX=0.5;entryY=0;entryDx=0;entryDy=0;entryPerimeter=0;" edge="1" parent="1" source="glwvKlrnZFDkjteL4bDG-16" target="glwvKlrnZFDkjteL4bDG-15">
          <mxGeometry relative="1" as="geometry" />
        </mxCell>
        <mxCell id="glwvKlrnZFDkjteL4bDG-18" value="Utiliza" style="edgeLabel;html=1;align=center;verticalAlign=middle;resizable=0;points=[];" vertex="1" connectable="0" parent="glwvKlrnZFDkjteL4bDG-17">
          <mxGeometry x="-0.0327" y="1" relative="1" as="geometry">
            <mxPoint as="offset" />
          </mxGeometry>
        </mxCell>
        <mxCell id="glwvKlrnZFDkjteL4bDG-20" style="edgeStyle=orthogonalEdgeStyle;rounded=0;orthogonalLoop=1;jettySize=auto;html=1;" edge="1" parent="1" source="glwvKlrnZFDkjteL4bDG-19" target="glwvKlrnZFDkjteL4bDG-16">
          <mxGeometry relative="1" as="geometry" />
        </mxCell>
        <mxCell id="glwvKlrnZFDkjteL4bDG-21" value="Utiliza" style="edgeLabel;html=1;align=center;verticalAlign=middle;resizable=0;points=[];" vertex="1" connectable="0" parent="glwvKlrnZFDkjteL4bDG-20">
          <mxGeometry x="-0.0036" y="-1" relative="1" as="geometry">
            <mxPoint as="offset" />
          </mxGeometry>
        </mxCell>
        <mxCell id="glwvKlrnZFDkjteL4bDG-24" style="edgeStyle=orthogonalEdgeStyle;rounded=0;orthogonalLoop=1;jettySize=auto;html=1;" edge="1" parent="1" source="glwvKlrnZFDkjteL4bDG-19" target="glwvKlrnZFDkjteL4bDG-23">
          <mxGeometry relative="1" as="geometry" />
        </mxCell>
        <mxCell id="glwvKlrnZFDkjteL4bDG-25" value="Utiliza&lt;div&gt;&lt;br&gt;&lt;/div&gt;" style="edgeLabel;html=1;align=center;verticalAlign=middle;resizable=0;points=[];" vertex="1" connectable="0" parent="glwvKlrnZFDkjteL4bDG-24">
          <mxGeometry x="-0.05" y="8" relative="1" as="geometry">
            <mxPoint as="offset" />
          </mxGeometry>
        </mxCell>
        <object placeholders="1" c4Name="Usuário requisitor" c4Type="Person" c4Description="Usuário que faz a requisição" label="&lt;font style=&quot;font-size: 16px&quot;&gt;&lt;b&gt;%c4Name%&lt;/b&gt;&lt;/font&gt;&lt;div&gt;[%c4Type%]&lt;/div&gt;&lt;br&gt;&lt;div&gt;&lt;font style=&quot;font-size: 11px&quot;&gt;&lt;font color=&quot;#cccccc&quot;&gt;%c4Description%&lt;/font&gt;&lt;/div&gt;" id="glwvKlrnZFDkjteL4bDG-19">
          <mxCell style="html=1;fontSize=11;dashed=0;whiteSpace=wrap;fillColor=#083F75;strokeColor=#06315C;fontColor=#ffffff;shape=mxgraph.c4.person2;align=center;metaEdit=1;points=[[0.5,0,0],[1,0.5,0],[1,0.75,0],[0.75,1,0],[0.5,1,0],[0.25,1,0],[0,0.75,0],[0,0.5,0]];resizable=0;" vertex="1" parent="1">
            <mxGeometry x="30" y="60" width="200" height="180" as="geometry" />
          </mxCell>
        </object>
        <object placeholders="1" c4Name="Sistema Requisitor Interno" c4Type="Software System" c4Description="Sistema interno que faz requisições" label="&lt;font style=&quot;font-size: 16px&quot;&gt;&lt;b&gt;%c4Name%&lt;/b&gt;&lt;/font&gt;&lt;div&gt;[%c4Type%]&lt;/div&gt;&lt;br&gt;&lt;div&gt;&lt;font style=&quot;font-size: 11px&quot;&gt;&lt;font color=&quot;#cccccc&quot;&gt;%c4Description%&lt;/font&gt;&lt;/div&gt;" id="glwvKlrnZFDkjteL4bDG-23">
          <mxCell style="rounded=1;whiteSpace=wrap;html=1;labelBackgroundColor=none;fillColor=#1061B0;fontColor=#ffffff;align=center;arcSize=10;strokeColor=#0D5091;metaEdit=1;resizable=0;points=[[0.25,0,0],[0.5,0,0],[0.75,0,0],[1,0.25,0],[1,0.5,0],[1,0.75,0],[0.75,1,0],[0.5,1,0],[0.25,1,0],[0,0.75,0],[0,0.5,0],[0,0.25,0]];" vertex="1" parent="1">
            <mxGeometry x="40" y="390" width="240" height="120" as="geometry" />
          </mxCell>
        </object>
        <mxCell id="glwvKlrnZFDkjteL4bDG-26" style="edgeStyle=orthogonalEdgeStyle;rounded=0;orthogonalLoop=1;jettySize=auto;html=1;entryX=0;entryY=0.5;entryDx=0;entryDy=0;entryPerimeter=0;" edge="1" parent="1" source="glwvKlrnZFDkjteL4bDG-23" target="glwvKlrnZFDkjteL4bDG-15">
          <mxGeometry relative="1" as="geometry" />
        </mxCell>
        <mxCell id="glwvKlrnZFDkjteL4bDG-27" value="Utiliza&lt;div&gt;&lt;br&gt;&lt;/div&gt;" style="edgeLabel;html=1;align=center;verticalAlign=middle;resizable=0;points=[];" vertex="1" connectable="0" parent="glwvKlrnZFDkjteL4bDG-26">
          <mxGeometry x="-0.2455" y="3" relative="1" as="geometry">
            <mxPoint as="offset" />
          </mxGeometry>
        </mxCell>
        <object placeholders="1" c4Name="API REST MVC" c4Type="SystemScopeBoundary" c4Application="Software System" label="&lt;font style=&quot;font-size: 16px&quot;&gt;&lt;b&gt;&lt;div style=&quot;text-align: left&quot;&gt;%c4Name%&lt;/div&gt;&lt;/b&gt;&lt;/font&gt;&lt;div style=&quot;text-align: left&quot;&gt;[%c4Application%]&lt;/div&gt;" id="glwvKlrnZFDkjteL4bDG-28">
          <mxCell style="rounded=1;fontSize=11;whiteSpace=wrap;html=1;dashed=1;arcSize=20;fillColor=none;strokeColor=#666666;fontColor=#333333;labelBackgroundColor=none;align=left;verticalAlign=bottom;labelBorderColor=none;spacingTop=0;spacing=10;dashPattern=8 4;metaEdit=1;rotatable=0;perimeter=rectanglePerimeter;noLabel=0;labelPadding=0;allowArrows=0;connectable=0;expand=0;recursiveResize=0;editable=1;pointerEvents=0;absoluteArcSize=1;points=[[0.25,0,0],[0.5,0,0],[0.75,0,0],[1,0.25,0],[1,0.5,0],[1,0.75,0],[0.75,1,0],[0.5,1,0],[0.25,1,0],[0,0.75,0],[0,0.5,0],[0,0.25,0]];" vertex="1" parent="1">
            <mxGeometry y="40" width="660" height="550" as="geometry" />
          </mxCell>
        </object>
      </root>
    </mxGraphModel>
  </diagram>
  <diagram id="QGSsy9X7JbRdcIFTWQvp" name="Containers">
    <mxGraphModel dx="1500" dy="746" grid="1" gridSize="10" guides="1" tooltips="1" connect="1" arrows="1" fold="1" page="1" pageScale="1" pageWidth="827" pageHeight="1169" math="0" shadow="0">
      <root>
        <mxCell id="0" />
        <mxCell id="1" parent="0" />
        <object placeholders="1" c4Name="Sistema Requisitor Externo" c4Type="Software System" c4Description="Sistema externo que faz as requisições" label="&lt;font style=&quot;font-size: 16px&quot;&gt;&lt;b&gt;%c4Name%&lt;/b&gt;&lt;/font&gt;&lt;div&gt;[%c4Type%]&lt;/div&gt;&lt;br&gt;&lt;div&gt;&lt;font style=&quot;font-size: 11px&quot;&gt;&lt;font color=&quot;#cccccc&quot;&gt;%c4Description%&lt;/font&gt;&lt;/div&gt;" id="jvUtIeg98jTnDC-SdhUx-2">
          <mxCell style="rounded=1;whiteSpace=wrap;html=1;labelBackgroundColor=none;fillColor=#8C8496;fontColor=#ffffff;align=center;arcSize=10;strokeColor=#736782;metaEdit=1;resizable=0;points=[[0.25,0,0],[0.5,0,0],[0.75,0,0],[1,0.25,0],[1,0.5,0],[1,0.75,0],[0.75,1,0],[0.5,1,0],[0.25,1,0],[0,0.75,0],[0,0.5,0],[0,0.25,0]];" vertex="1" parent="1">
            <mxGeometry x="390" y="90" width="240" height="120" as="geometry" />
          </mxCell>
        </object>
        <mxCell id="jvUtIeg98jTnDC-SdhUx-3" style="edgeStyle=orthogonalEdgeStyle;rounded=0;orthogonalLoop=1;jettySize=auto;html=1;entryX=0.5;entryY=0;entryDx=0;entryDy=0;entryPerimeter=0;" edge="1" parent="1" source="jvUtIeg98jTnDC-SdhUx-2" target="jvUtIeg98jTnDC-SdhUx-14">
          <mxGeometry relative="1" as="geometry">
            <mxPoint x="510" y="390" as="targetPoint" />
          </mxGeometry>
        </mxCell>
        <mxCell id="jvUtIeg98jTnDC-SdhUx-5" style="edgeStyle=orthogonalEdgeStyle;rounded=0;orthogonalLoop=1;jettySize=auto;html=1;" edge="1" parent="1" source="jvUtIeg98jTnDC-SdhUx-9" target="jvUtIeg98jTnDC-SdhUx-2">
          <mxGeometry relative="1" as="geometry" />
        </mxCell>
        <mxCell id="jvUtIeg98jTnDC-SdhUx-7" style="edgeStyle=orthogonalEdgeStyle;rounded=0;orthogonalLoop=1;jettySize=auto;html=1;" edge="1" parent="1" source="jvUtIeg98jTnDC-SdhUx-9" target="jvUtIeg98jTnDC-SdhUx-10">
          <mxGeometry relative="1" as="geometry" />
        </mxCell>
        <mxCell id="jvUtIeg98jTnDC-SdhUx-8" value="Utiliza&lt;div&gt;&lt;br&gt;&lt;/div&gt;" style="edgeLabel;html=1;align=center;verticalAlign=middle;resizable=0;points=[];" vertex="1" connectable="0" parent="jvUtIeg98jTnDC-SdhUx-7">
          <mxGeometry x="-0.05" y="8" relative="1" as="geometry">
            <mxPoint as="offset" />
          </mxGeometry>
        </mxCell>
        <object placeholders="1" c4Name="Usuário requisitor" c4Type="Person" c4Description="Usuário que faz a requisição" label="&lt;font style=&quot;font-size: 16px&quot;&gt;&lt;b&gt;%c4Name%&lt;/b&gt;&lt;/font&gt;&lt;div&gt;[%c4Type%]&lt;/div&gt;&lt;br&gt;&lt;div&gt;&lt;font style=&quot;font-size: 11px&quot;&gt;&lt;font color=&quot;#cccccc&quot;&gt;%c4Description%&lt;/font&gt;&lt;/div&gt;" id="jvUtIeg98jTnDC-SdhUx-9">
          <mxCell style="html=1;fontSize=11;dashed=0;whiteSpace=wrap;fillColor=#083F75;strokeColor=#06315C;fontColor=#ffffff;shape=mxgraph.c4.person2;align=center;metaEdit=1;points=[[0.5,0,0],[1,0.5,0],[1,0.75,0],[0.75,1,0],[0.5,1,0],[0.25,1,0],[0,0.75,0],[0,0.5,0]];resizable=0;" vertex="1" parent="1">
            <mxGeometry x="30" y="60" width="200" height="180" as="geometry" />
          </mxCell>
        </object>
        <object placeholders="1" c4Name="Sistema Requisitor Interno" c4Type="Software System" c4Description="Sistema interno que faz requisições" label="&lt;font style=&quot;font-size: 16px&quot;&gt;&lt;b&gt;%c4Name%&lt;/b&gt;&lt;/font&gt;&lt;div&gt;[%c4Type%]&lt;/div&gt;&lt;br&gt;&lt;div&gt;&lt;font style=&quot;font-size: 11px&quot;&gt;&lt;font color=&quot;#cccccc&quot;&gt;%c4Description%&lt;/font&gt;&lt;/div&gt;" id="jvUtIeg98jTnDC-SdhUx-10">
          <mxCell style="rounded=1;whiteSpace=wrap;html=1;labelBackgroundColor=none;fillColor=#1061B0;fontColor=#ffffff;align=center;arcSize=10;strokeColor=#0D5091;metaEdit=1;resizable=0;points=[[0.25,0,0],[0.5,0,0],[0.75,0,0],[1,0.25,0],[1,0.5,0],[1,0.75,0],[0.75,1,0],[0.5,1,0],[0.25,1,0],[0,0.75,0],[0,0.5,0],[0,0.25,0]];" vertex="1" parent="1">
            <mxGeometry x="40" y="390" width="240" height="120" as="geometry" />
          </mxCell>
        </object>
        <mxCell id="jvUtIeg98jTnDC-SdhUx-11" style="edgeStyle=orthogonalEdgeStyle;rounded=0;orthogonalLoop=1;jettySize=auto;html=1;entryX=0;entryY=0.5;entryDx=0;entryDy=0;entryPerimeter=0;" edge="1" parent="1" source="jvUtIeg98jTnDC-SdhUx-10" target="jvUtIeg98jTnDC-SdhUx-14">
          <mxGeometry relative="1" as="geometry">
            <mxPoint x="390" y="450" as="targetPoint" />
          </mxGeometry>
        </mxCell>
        <mxCell id="jvUtIeg98jTnDC-SdhUx-17" style="edgeStyle=orthogonalEdgeStyle;rounded=0;orthogonalLoop=1;jettySize=auto;html=1;" edge="1" parent="1" source="jvUtIeg98jTnDC-SdhUx-14" target="jvUtIeg98jTnDC-SdhUx-16">
          <mxGeometry relative="1" as="geometry" />
        </mxCell>
        <object placeholders="1" c4Name="API Cliente" c4Type="Container" c4Technology="Flask - Python" c4Description="Backend responsável por expor os endpoints para operações CRUD de Client" label="&lt;font style=&quot;font-size: 16px&quot;&gt;&lt;b&gt;%c4Name%&lt;/b&gt;&lt;/font&gt;&lt;div&gt;[%c4Type%: %c4Technology%]&lt;/div&gt;&lt;br&gt;&lt;div&gt;&lt;font style=&quot;font-size: 11px&quot;&gt;&lt;font color=&quot;#E6E6E6&quot;&gt;%c4Description%&lt;/font&gt;&lt;/div&gt;" id="jvUtIeg98jTnDC-SdhUx-14">
          <mxCell style="rounded=1;whiteSpace=wrap;html=1;fontSize=11;labelBackgroundColor=none;fillColor=#23A2D9;fontColor=#ffffff;align=center;arcSize=10;strokeColor=#0E7DAD;metaEdit=1;resizable=0;points=[[0.25,0,0],[0.5,0,0],[0.75,0,0],[1,0.25,0],[1,0.5,0],[1,0.75,0],[0.75,1,0],[0.5,1,0],[0.25,1,0],[0,0.75,0],[0,0.5,0],[0,0.25,0]];" vertex="1" parent="1">
            <mxGeometry x="390" y="280" width="240" height="120" as="geometry" />
          </mxCell>
        </object>
        <object placeholders="1" c4Name="Banco de Dados SQLite" c4Type="Container" c4Technology="SQLite" c4Description="Armazena as informações de Cliente em uma tabela" label="&lt;font style=&quot;font-size: 16px&quot;&gt;&lt;b&gt;%c4Name%&lt;/b&gt;&lt;/font&gt;&lt;div&gt;[%c4Type%:&amp;nbsp;%c4Technology%]&lt;/div&gt;&lt;br&gt;&lt;div&gt;&lt;font style=&quot;font-size: 11px&quot;&gt;&lt;font color=&quot;#E6E6E6&quot;&gt;%c4Description%&lt;/font&gt;&lt;/div&gt;" id="jvUtIeg98jTnDC-SdhUx-16">
          <mxCell style="shape=cylinder3;size=15;whiteSpace=wrap;html=1;boundedLbl=1;rounded=0;labelBackgroundColor=none;fillColor=#23A2D9;fontSize=12;fontColor=#ffffff;align=center;strokeColor=#0E7DAD;metaEdit=1;points=[[0.5,0,0],[1,0.25,0],[1,0.5,0],[1,0.75,0],[0.5,1,0],[0,0.75,0],[0,0.5,0],[0,0.25,0]];resizable=0;" vertex="1" parent="1">
            <mxGeometry x="390" y="465" width="240" height="120" as="geometry" />
          </mxCell>
        </object>
        <object placeholders="1" c4Name="API Cliente" c4Type="SystemScopeBoundary" c4Application="Container" label="&lt;font style=&quot;font-size: 16px&quot;&gt;&lt;b&gt;&lt;div style=&quot;text-align: left&quot;&gt;%c4Name%&lt;/div&gt;&lt;/b&gt;&lt;/font&gt;&lt;div style=&quot;text-align: left&quot;&gt;[%c4Application%]&lt;/div&gt;" id="jvUtIeg98jTnDC-SdhUx-19">
          <mxCell style="rounded=1;fontSize=11;whiteSpace=wrap;html=1;dashed=1;arcSize=20;fillColor=none;strokeColor=#666666;fontColor=#333333;labelBackgroundColor=none;align=left;verticalAlign=bottom;labelBorderColor=none;spacingTop=0;spacing=10;dashPattern=8 4;metaEdit=1;rotatable=0;perimeter=rectanglePerimeter;noLabel=0;labelPadding=0;allowArrows=0;connectable=0;expand=0;recursiveResize=0;editable=1;pointerEvents=0;absoluteArcSize=1;points=[[0.25,0,0],[0.5,0,0],[0.75,0,0],[1,0.25,0],[1,0.5,0],[1,0.75,0],[0.75,1,0],[0.5,1,0],[0.25,1,0],[0,0.75,0],[0,0.5,0],[0,0.25,0]];" vertex="1" parent="1">
            <mxGeometry x="360" y="240" width="300" height="410" as="geometry" />
          </mxCell>
        </object>
      </root>
    </mxGraphModel>
  </diagram>
  <diagram id="yWRAAlCtq_-VV4yDHlFK" name="Componentes">
    <mxGraphModel dx="1050" dy="522" grid="1" gridSize="10" guides="1" tooltips="1" connect="1" arrows="1" fold="1" page="1" pageScale="1" pageWidth="827" pageHeight="1169" math="0" shadow="0">
      <root>
        <mxCell id="0" />
        <mxCell id="1" parent="0" />
        <object placeholders="1" c4Name="API Cliente" c4Type="Container" c4Technology="Python Flask" c4Description="" label="&lt;font style=&quot;font-size: 16px&quot;&gt;&lt;b&gt;%c4Name%&lt;/b&gt;&lt;/font&gt;&lt;div&gt;[%c4Type%:&amp;nbsp;%c4Technology%]&lt;/div&gt;&lt;br&gt;&lt;div&gt;&lt;font style=&quot;font-size: 11px&quot;&gt;&lt;font color=&quot;#E6E6E6&quot;&gt;%c4Description%&lt;/font&gt;&lt;/div&gt;" id="XjDgkvt7D1K8FVzzA2n0-1">
          <mxCell style="shape=mxgraph.c4.webBrowserContainer2;whiteSpace=wrap;html=1;boundedLbl=1;rounded=0;labelBackgroundColor=none;strokeColor=#118ACD;fillColor=#23A2D9;strokeColor=#118ACD;strokeColor2=#0E7DAD;fontSize=12;fontColor=#ffffff;align=center;metaEdit=1;points=[[0.5,0,0],[1,0.25,0],[1,0.5,0],[1,0.75,0],[0.5,1,0],[0,0.75,0],[0,0.5,0],[0,0.25,0]];resizable=0;" vertex="1" parent="1">
            <mxGeometry x="310" width="240" height="160" as="geometry" />
          </mxCell>
        </object>
        <object placeholders="1" c4Name="Lista todos clientes" c4Type="Component" c4Technology="" c4Description="" label="&lt;font style=&quot;font-size: 16px&quot;&gt;&lt;b&gt;%c4Name%&lt;/b&gt;&lt;/font&gt;&lt;div&gt;[%c4Type%: %c4Technology%]&lt;/div&gt;&lt;br&gt;&lt;div&gt;&lt;font style=&quot;font-size: 11px&quot;&gt;%c4Description%&lt;/font&gt;&lt;/div&gt;" id="XjDgkvt7D1K8FVzzA2n0-2">
          <mxCell style="rounded=1;whiteSpace=wrap;html=1;labelBackgroundColor=none;fillColor=#63BEF2;fontColor=#ffffff;align=center;arcSize=6;strokeColor=#2086C9;metaEdit=1;resizable=0;points=[[0.25,0,0],[0.5,0,0],[0.75,0,0],[1,0.25,0],[1,0.5,0],[1,0.75,0],[0.75,1,0],[0.5,1,0],[0.25,1,0],[0,0.75,0],[0,0.5,0],[0,0.25,0]];" vertex="1" parent="1">
            <mxGeometry x="120" y="200" width="240" height="120" as="geometry" />
          </mxCell>
        </object>
        <object placeholders="1" c4Name="Grava cliente" c4Type="Component" c4Technology="" c4Description="" label="&lt;font style=&quot;font-size: 16px&quot;&gt;&lt;b&gt;%c4Name%&lt;/b&gt;&lt;/font&gt;&lt;div&gt;[%c4Type%: %c4Technology%]&lt;/div&gt;&lt;br&gt;&lt;div&gt;&lt;font style=&quot;font-size: 11px&quot;&gt;%c4Description%&lt;/font&gt;&lt;/div&gt;" id="XjDgkvt7D1K8FVzzA2n0-3">
          <mxCell style="rounded=1;whiteSpace=wrap;html=1;labelBackgroundColor=none;fillColor=#63BEF2;fontColor=#ffffff;align=center;arcSize=6;strokeColor=#2086C9;metaEdit=1;resizable=0;points=[[0.25,0,0],[0.5,0,0],[0.75,0,0],[1,0.25,0],[1,0.5,0],[1,0.75,0],[0.75,1,0],[0.5,1,0],[0.25,1,0],[0,0.75,0],[0,0.5,0],[0,0.25,0]];" vertex="1" parent="1">
            <mxGeometry x="120" y="360" width="240" height="120" as="geometry" />
          </mxCell>
        </object>
        <object placeholders="1" c4Name="Deleta cliente por ID" c4Type="Component" c4Technology="" c4Description="" label="&lt;font style=&quot;font-size: 16px&quot;&gt;&lt;b&gt;%c4Name%&lt;/b&gt;&lt;/font&gt;&lt;div&gt;[%c4Type%: %c4Technology%]&lt;/div&gt;&lt;br&gt;&lt;div&gt;&lt;font style=&quot;font-size: 11px&quot;&gt;%c4Description%&lt;/font&gt;&lt;/div&gt;" id="XjDgkvt7D1K8FVzzA2n0-4">
          <mxCell style="rounded=1;whiteSpace=wrap;html=1;labelBackgroundColor=none;fillColor=#63BEF2;fontColor=#ffffff;align=center;arcSize=6;strokeColor=#2086C9;metaEdit=1;resizable=0;points=[[0.25,0,0],[0.5,0,0],[0.75,0,0],[1,0.25,0],[1,0.5,0],[1,0.75,0],[0.75,1,0],[0.5,1,0],[0.25,1,0],[0,0.75,0],[0,0.5,0],[0,0.25,0]];" vertex="1" parent="1">
            <mxGeometry x="480" y="360" width="240" height="120" as="geometry" />
          </mxCell>
        </object>
        <mxCell id="vEic6dwQk_fI1ZbhXAsA-16" style="edgeStyle=orthogonalEdgeStyle;rounded=0;orthogonalLoop=1;jettySize=auto;html=1;" edge="1" parent="1" source="XjDgkvt7D1K8FVzzA2n0-5" target="vEic6dwQk_fI1ZbhXAsA-1">
          <mxGeometry relative="1" as="geometry">
            <Array as="points">
              <mxPoint x="800" y="580" />
              <mxPoint x="800" y="780" />
            </Array>
          </mxGeometry>
        </mxCell>
        <object placeholders="1" c4Name="Lista clientes selecionados pelo nome" c4Type="Component" c4Technology="" c4Description="" label="&lt;font style=&quot;font-size: 16px&quot;&gt;&lt;b&gt;%c4Name%&lt;/b&gt;&lt;/font&gt;&lt;div&gt;[%c4Type%: %c4Technology%]&lt;/div&gt;&lt;br&gt;&lt;div&gt;&lt;font style=&quot;font-size: 11px&quot;&gt;%c4Description%&lt;/font&gt;&lt;/div&gt;" id="XjDgkvt7D1K8FVzzA2n0-5">
          <mxCell style="rounded=1;whiteSpace=wrap;html=1;labelBackgroundColor=none;fillColor=#63BEF2;fontColor=#ffffff;align=center;arcSize=6;strokeColor=#2086C9;metaEdit=1;resizable=0;points=[[0.25,0,0],[0.5,0,0],[0.75,0,0],[1,0.25,0],[1,0.5,0],[1,0.75,0],[0.75,1,0],[0.5,1,0],[0.25,1,0],[0,0.75,0],[0,0.5,0],[0,0.25,0]];" vertex="1" parent="1">
            <mxGeometry x="480" y="520" width="240" height="120" as="geometry" />
          </mxCell>
        </object>
        <object placeholders="1" c4Name="Busca cliente por id" c4Type="Component" c4Technology="" c4Description="" label="&lt;font style=&quot;font-size: 16px&quot;&gt;&lt;b&gt;%c4Name%&lt;/b&gt;&lt;/font&gt;&lt;div&gt;[%c4Type%: %c4Technology%]&lt;/div&gt;&lt;br&gt;&lt;div&gt;&lt;font style=&quot;font-size: 11px&quot;&gt;%c4Description%&lt;/font&gt;&lt;/div&gt;" id="XjDgkvt7D1K8FVzzA2n0-6">
          <mxCell style="rounded=1;whiteSpace=wrap;html=1;labelBackgroundColor=none;fillColor=#63BEF2;fontColor=#ffffff;align=center;arcSize=6;strokeColor=#2086C9;metaEdit=1;resizable=0;points=[[0.25,0,0],[0.5,0,0],[0.75,0,0],[1,0.25,0],[1,0.5,0],[1,0.75,0],[0.75,1,0],[0.5,1,0],[0.25,1,0],[0,0.75,0],[0,0.5,0],[0,0.25,0]];" vertex="1" parent="1">
            <mxGeometry x="480" y="200" width="240" height="120" as="geometry" />
          </mxCell>
        </object>
        <object placeholders="1" c4Name="Conta total de clientes" c4Type="Component" c4Technology="" c4Description="" label="&lt;font style=&quot;font-size: 16px&quot;&gt;&lt;b&gt;%c4Name%&lt;/b&gt;&lt;/font&gt;&lt;div&gt;[%c4Type%: %c4Technology%]&lt;/div&gt;&lt;br&gt;&lt;div&gt;&lt;font style=&quot;font-size: 11px&quot;&gt;%c4Description%&lt;/font&gt;&lt;/div&gt;" id="XjDgkvt7D1K8FVzzA2n0-7">
          <mxCell style="rounded=1;whiteSpace=wrap;html=1;labelBackgroundColor=none;fillColor=#63BEF2;fontColor=#ffffff;align=center;arcSize=6;strokeColor=#2086C9;metaEdit=1;resizable=0;points=[[0.25,0,0],[0.5,0,0],[0.75,0,0],[1,0.25,0],[1,0.5,0],[1,0.75,0],[0.75,1,0],[0.5,1,0],[0.25,1,0],[0,0.75,0],[0,0.5,0],[0,0.25,0]];" vertex="1" parent="1">
            <mxGeometry x="120" y="520" width="240" height="120" as="geometry" />
          </mxCell>
        </object>
        <object placeholders="1" c4Name="Banco de Dados SQLite" c4Type="Container" c4Technology="SQLite" c4Description="Armazena as informações de Cliente em uma tabela" label="&lt;font style=&quot;font-size: 16px&quot;&gt;&lt;b&gt;%c4Name%&lt;/b&gt;&lt;/font&gt;&lt;div&gt;[%c4Type%:&amp;nbsp;%c4Technology%]&lt;/div&gt;&lt;br&gt;&lt;div&gt;&lt;font style=&quot;font-size: 11px&quot;&gt;&lt;font color=&quot;#E6E6E6&quot;&gt;%c4Description%&lt;/font&gt;&lt;/div&gt;" id="vEic6dwQk_fI1ZbhXAsA-1">
          <mxCell style="shape=cylinder3;size=15;whiteSpace=wrap;html=1;boundedLbl=1;rounded=0;labelBackgroundColor=none;fillColor=#23A2D9;fontSize=12;fontColor=#ffffff;align=center;strokeColor=#0E7DAD;metaEdit=1;points=[[0.5,0,0],[1,0.25,0],[1,0.5,0],[1,0.75,0],[0.5,1,0],[0,0.75,0],[0,0.5,0],[0,0.25,0]];resizable=0;" vertex="1" parent="1">
            <mxGeometry x="310" y="710" width="240" height="120" as="geometry" />
          </mxCell>
        </object>
        <mxCell id="vEic6dwQk_fI1ZbhXAsA-2" style="edgeStyle=orthogonalEdgeStyle;rounded=0;orthogonalLoop=1;jettySize=auto;html=1;entryX=1;entryY=0.5;entryDx=0;entryDy=0;entryPerimeter=0;" edge="1" parent="1" source="XjDgkvt7D1K8FVzzA2n0-1" target="XjDgkvt7D1K8FVzzA2n0-2">
          <mxGeometry relative="1" as="geometry" />
        </mxCell>
        <mxCell id="vEic6dwQk_fI1ZbhXAsA-3" style="edgeStyle=orthogonalEdgeStyle;rounded=0;orthogonalLoop=1;jettySize=auto;html=1;entryX=0;entryY=0.75;entryDx=0;entryDy=0;entryPerimeter=0;" edge="1" parent="1" source="XjDgkvt7D1K8FVzzA2n0-1" target="XjDgkvt7D1K8FVzzA2n0-6">
          <mxGeometry relative="1" as="geometry" />
        </mxCell>
        <mxCell id="vEic6dwQk_fI1ZbhXAsA-4" style="edgeStyle=orthogonalEdgeStyle;rounded=0;orthogonalLoop=1;jettySize=auto;html=1;entryX=1;entryY=0.5;entryDx=0;entryDy=0;entryPerimeter=0;" edge="1" parent="1" source="XjDgkvt7D1K8FVzzA2n0-1" target="XjDgkvt7D1K8FVzzA2n0-3">
          <mxGeometry relative="1" as="geometry" />
        </mxCell>
        <mxCell id="vEic6dwQk_fI1ZbhXAsA-5" style="edgeStyle=orthogonalEdgeStyle;rounded=0;orthogonalLoop=1;jettySize=auto;html=1;entryX=-0.002;entryY=0.623;entryDx=0;entryDy=0;entryPerimeter=0;" edge="1" parent="1" source="XjDgkvt7D1K8FVzzA2n0-1" target="XjDgkvt7D1K8FVzzA2n0-4">
          <mxGeometry relative="1" as="geometry" />
        </mxCell>
        <mxCell id="vEic6dwQk_fI1ZbhXAsA-6" style="edgeStyle=orthogonalEdgeStyle;rounded=0;orthogonalLoop=1;jettySize=auto;html=1;entryX=1;entryY=0.5;entryDx=0;entryDy=0;entryPerimeter=0;" edge="1" parent="1" source="XjDgkvt7D1K8FVzzA2n0-1" target="XjDgkvt7D1K8FVzzA2n0-7">
          <mxGeometry relative="1" as="geometry" />
        </mxCell>
        <mxCell id="vEic6dwQk_fI1ZbhXAsA-7" style="edgeStyle=orthogonalEdgeStyle;rounded=0;orthogonalLoop=1;jettySize=auto;html=1;entryX=0;entryY=0.667;entryDx=0;entryDy=0;entryPerimeter=0;" edge="1" parent="1" source="XjDgkvt7D1K8FVzzA2n0-1" target="XjDgkvt7D1K8FVzzA2n0-5">
          <mxGeometry relative="1" as="geometry" />
        </mxCell>
        <mxCell id="vEic6dwQk_fI1ZbhXAsA-8" style="edgeStyle=orthogonalEdgeStyle;rounded=0;orthogonalLoop=1;jettySize=auto;html=1;entryX=0;entryY=0.5;entryDx=0;entryDy=0;entryPerimeter=0;" edge="1" parent="1" source="XjDgkvt7D1K8FVzzA2n0-2" target="vEic6dwQk_fI1ZbhXAsA-1">
          <mxGeometry relative="1" as="geometry">
            <Array as="points">
              <mxPoint x="50" y="260" />
              <mxPoint x="50" y="770" />
            </Array>
          </mxGeometry>
        </mxCell>
        <mxCell id="vEic6dwQk_fI1ZbhXAsA-9" style="edgeStyle=orthogonalEdgeStyle;rounded=0;orthogonalLoop=1;jettySize=auto;html=1;entryX=0;entryY=0.5;entryDx=0;entryDy=0;entryPerimeter=0;" edge="1" parent="1" source="XjDgkvt7D1K8FVzzA2n0-3" target="vEic6dwQk_fI1ZbhXAsA-1">
          <mxGeometry relative="1" as="geometry">
            <Array as="points">
              <mxPoint x="50" y="420" />
              <mxPoint x="50" y="770" />
            </Array>
          </mxGeometry>
        </mxCell>
        <mxCell id="vEic6dwQk_fI1ZbhXAsA-10" style="edgeStyle=orthogonalEdgeStyle;rounded=0;orthogonalLoop=1;jettySize=auto;html=1;entryX=0;entryY=0.5;entryDx=0;entryDy=0;entryPerimeter=0;" edge="1" parent="1" source="XjDgkvt7D1K8FVzzA2n0-7" target="vEic6dwQk_fI1ZbhXAsA-1">
          <mxGeometry relative="1" as="geometry">
            <Array as="points">
              <mxPoint x="50" y="580" />
              <mxPoint x="50" y="770" />
            </Array>
          </mxGeometry>
        </mxCell>
        <mxCell id="vEic6dwQk_fI1ZbhXAsA-14" style="edgeStyle=orthogonalEdgeStyle;rounded=0;orthogonalLoop=1;jettySize=auto;html=1;entryX=1.003;entryY=0.593;entryDx=0;entryDy=0;entryPerimeter=0;" edge="1" parent="1" source="XjDgkvt7D1K8FVzzA2n0-6" target="vEic6dwQk_fI1ZbhXAsA-1">
          <mxGeometry relative="1" as="geometry">
            <Array as="points">
              <mxPoint x="800" y="260" />
              <mxPoint x="800" y="781" />
            </Array>
          </mxGeometry>
        </mxCell>
        <mxCell id="vEic6dwQk_fI1ZbhXAsA-15" style="edgeStyle=orthogonalEdgeStyle;rounded=0;orthogonalLoop=1;jettySize=auto;html=1;entryX=1.003;entryY=0.593;entryDx=0;entryDy=0;entryPerimeter=0;" edge="1" parent="1" source="XjDgkvt7D1K8FVzzA2n0-4" target="vEic6dwQk_fI1ZbhXAsA-1">
          <mxGeometry relative="1" as="geometry">
            <Array as="points">
              <mxPoint x="800" y="420" />
              <mxPoint x="800" y="781" />
            </Array>
          </mxGeometry>
        </mxCell>
      </root>
    </mxGraphModel>
  </diagram>
  <diagram id="QMuFL4wnY3b-6LLaZT1p" name="Página-4">
    <mxGraphModel dx="1050" dy="522" grid="1" gridSize="10" guides="1" tooltips="1" connect="1" arrows="1" fold="1" page="1" pageScale="1" pageWidth="827" pageHeight="1169" math="0" shadow="0">
      <root>
        <mxCell id="0" />
        <mxCell id="1" parent="0" />
        <mxCell id="fraQmBW8h_pSJzxYigO1-1" value="" style="shape=image;verticalLabelPosition=bottom;labelBackgroundColor=default;verticalAlign=top;aspect=fixed;imageAspect=0;image=data:image/png,iVBORw0KGgoAAAANSUhEUgAABS8AAAETCAIAAABY3WTbAAAABmJLR0QA/wD/AP+gvaeTAAAgAElEQVR4nOzdT2gbaZ4//k99mcOwh6+dmUFiMevA0OvgdEBzyqh3YJo4w4ZkKeUSObFBzEVtSpCG9liwPUHCDjbOHOSZhQQsLF0aQaQ4fRkV09mGtof0YazszjQSON3YLKalnTSUyIJqcti+1e/w+fn5VldJpdIf6+/7dQipUtXzPPXHpfqonvo8kmEYBAAAAAAAAAA99H/63QAAAAAAAACAsYNoHAAAAAAAAKDXEI0DAAAAAAAA9BqicQAAAAAAAIBe+16/GzCOfvvb3x4cHPS7FdBTT58+7XcTAAAAAABggODZeB8cHBwUCoV+twJ65K9//evHH3/c71YAAAAAAMBgwbPx/vD7/XhYOiZ2d3dv377d71YAAAAAAMBgwbNxAAAAAAAAgF5DNA4AAAAAAADQa4jGAQAAAAAAAHoN0TgAAAAAAABAryEaBwAAAAAAAOg1ROMAAAAAAAAAvYZoHAAAAAAAAKDXEI0DAAAAAAAA9Bqi8RFUrVZzuVwgEBBz4vF4PB7vY5P6yLI37DsHAAAAAACg9xCND7FCoRCPxyVJkiQpHo+XSqVqtSpJ0urq6sLCgqqqXaxL13VJkjpvW88aIFj2xlnsHAAAAAAAgFZJhmH0uw1jJxgMEtHTp087KSQej79+/Xp5eXlmZoaIqtXqixcv+JGvYRgcuHbx4KqqGggEXBbo3LYeNMDCsje6vnOc7e7u3r59G39oAAAAAABg9r1+NwDawU+b8/m8mOPxeGRZPjg4eOedd7pena7rqVSqj21rqQEAAAAAAACDDz3Vh0+hUNjY2Lh37579I7/fb59Z903parW6tbUlSVIgENjf37cspqoqf1SpVIgokUhw127ued6oBPdt03U9l8txaalUqlqtttSAarXKj8p1XY9EIuKV+LrFulF3b9StAgAAAAAAoCsQjQ+fP/zhD0T04x//uO6n9h7R4XDY8qZ0tVoNh8NTU1OGYXzwwQdXr14tlUpisUKhIMtyuVxWVfXBgwdEtL6+Lgrn8uuW4L5toVDozZs3hmFomqaqajgc1nXdfQPC4XAgEFBV9auvvlIU5fXr1w7FNt2fjfZG3SoAAAAAAAC6Au+N90GH7427ee3Z+U3pXC63sLBg/jQWi62vrzus1V4Jde3v71+9elXTNI/HQ0SFQuGdd97JZrN37txx3wCerNVqExMTnRTbdFvMVbQH740DAAAAAIAdno2Po8ePH9Npr2+OOTc2NnpWAv8MwTEzEc3OzooCW2WOk9su1nlbOgzFAQAAAAAA6sKz8T7o8Nl4JBJJJpPOz2ydnwY3eoLd6qNpewlttM08p5MGtFes+73RNjwbBwAAAAAAOzwbHz43btwgoq+//rrDco6Pj7tegpu2ybJMRJYUa4qidNiYDovtfG8AAAAAAAC4h2h8+MiyLMtyMpm0f1SpVLa2tpqWsLOzQ0SZTIaTnHFG8Zba0KgEN21bXFwkopOTE57PJXB/gU60XWznewMAAAAAAKBV6KneBx32VCdTGvDl5eWZmRmeWalU7t69m06nicjr9RIRpzSrVqvmSV6d5wjlcvn73/8+z+R+5rquT05OirU4wbimaZlMZmVlpW4J09PTTdvm8Xh0XQ+FQkTEk7lc7vnz59vb26LMpg0IhUK8pPnsbVpse3tjcHqq//Wvf11eXu6wEACAATE/P9/577AAAABDDc/Gh5LH48lkMjdu3Pjd737HuccCgcCnn3766NEjj8cjYkv+j2WSVy+Xy7FYjIgUReFAWnzKMTD/K9biMcYePnzIEW/dEty0jYgmJibS6bQsy16vl9/N/s1vfmNuXtMGiCXNg6g3Lba9vWEZp72PdF3/+OOP//a3v/W7IQAAnfr0009fvnzZ71YAAAD0GZ6N90Hnz8ZhiHTr2fjLly8vXbp0eHj49ttvd6VhAAD9cvHixfn5+bW1tX43BAAAoJ/wbBwAAAAAAACg1xCNAwAAAAAAAPQaonEAAAAAAACAXkM0DgAAAAAAANBriMYBAAAAAAAAeg3ROAAAAAAAAECvIRoHAAAAAAAA6DVE4wAAAAAAAAC99r1+N2BMffzxx5Ik9bsVANAH1Wp1f3//8ePH+Xye58TjcSJaX1/va7t6Z9y2F87Or371q//+7//udysAADryD//wD7/97W/73QroD0Tj/fGP//iP//Iv/9LvVkAvHB8ff/LJJ/1uBfRBoVD4wx/+sLGxQUSxWOzWrVt///d/7/V6FUVJJpPdrUvX9cnJScMwHJax/wIoy/K7774ry/LMzEx329MSN40HqOvf//3fJUm6ePFivxsCANCmL7/88uXLl4jGxxai8f7w+Xy/+93v+t0K6IXd3V1E42MoHo+/fv16eXmZnwBXq9UXL1785Cc/IaLt7W1LNN75U+LPP/+86TKGYVSrVa/Xy//nVj18+PDChQvFYtHn83XYBvcs2+um8QCNBIPBtbW1frcCAKBNa2tru7u7/W4F9A3eGwcA6LJ4PF4qlba3t8UzZ4/HI8vywcHBWVSn63oqlXKzpMfjsUxGo1Ei6vqzevfcNx4AAABgxCAaBwDopkKhsLGxce/ePftHfr/fPrNareZyuUAgYJm5tbUlSVIgENjf37cspqoqf1SpVIgokUioqkpEkiSJ7uj2EuqamJggWzRet3ZVVbn2VColSVIkEjk+Phar6Lqey+W4AalUqlqtio+4KJ4pSZJle+s2vm5pog26rkcikb/7u7+TTm1tbZnrkiSJ9wwAAADAIEM0DgDQTX/4wx+I6Mc//nHdT+1vR4fD4YWFBY5IWbVaDYfDU1NThmF88MEHV69eLZVKYrFCoSDLcrlcVlX1wYMHZOr4bRiG6IJuL6Fue0Q871y71+sNBAJc+3vvvVer1YjowoULIiAPhUJv3rwxDEPTNFVVw+GwrutEtLW1FQwGDcOYn59/+PChfXvtjW9UWjgc5jZ89dVXiqL88pe/5L4GiqKsrKzwiisrK7Isa5o2PT3d9EgBAAAA9JkBPXfr1q1bt271uxXQI0+ePOnKH9rh4SERHR4edl4UnCk3l1bLMpbJbDZr+TQWizmv5bIEy5LFYlGWZQ5fW629WCwSUSKRMAxjb2+PiEQhHCRns1leS8zXNI1Mv0c02nzn0oioVquJhfl3hHK5LFrFS8KAm52dXV1dHZxyAAD6ZXV1dXZ2tt+tgL7Bs3EAgMHy+PFjOu25zZ23OTF7F0vg+T/5yU8++OCDfD5vfp/cZe2c9Y1fO3/69CmZXkqfnZ0V5SiK4vV6c7mcrusej8dwkTjdoTTGvevZL37xCyL69NNPefKzzz77p3/6p6ZVAAAAAAwCROMAAN2kKAoRcT/t9nAvbstPp90tgefIsvzHP/6x89otr51ztMzlLC8vy7K8sLAwOTkp3u5uuzQ7n8+nKMrS0pKu67qu/9d//Rf6qAMAAMCwQDQOANBNN27cIKKvv/66w3LMOdLOqIR0Ol0qleLxeNu1808PsiwTkTlzm/hoZmYmn88Xi0VFUaLRqJuA3KE0hzY8e/bs888//+Uvf+mm2QAAAACDANE4AEA38ZvYdccMq1QqbsLRnZ0dIspkMvyAnTOct9QGlyV4PB57QO5yXQ7X+aeHxcVFIjo5OeGPeMVgMEhEkiTpuu7z+ba3t4vFIvdsd+ZQWl38eHxhYSGVStXNWg8AAAAwmBCNDxld18UgQG2IRCLmYYSIKB6P130ydqa6Uun+/r4Yx8g+QFTXVatVHtKpVCoFAgHLgzsAs3Q6/erVK8sYYJVK5e7du6FQSJw8YuAu8yQR3bx5k4g2NjYmJyclSfJ6vcFgUHzK0anoCc/zxfNkjpzrllC3Lo/Hs76+vrGxIQYSa7Quy+VyXHsmk+HfHYjo+vXrsixvbm5yCc+ePVMUZW5ujldJJBL8d3ru3LlEImFvg6XxjUpz+KPjR+JcDgCMJPtgkH25gTkjo7QtANCas0kOB046yamez+c7PGojc9y5e2pv6qrVarIsHxwc8OTBwYEsy+bEzg6QU3081Wq1fD4v+lfLsryzs8Opvy1X4LoX5HK5HIvFiEhRFDdrcYbzWCwmUpE7l2Cpjlen0xzp9nXF6pyGnYh2dnbMfwKapvFDdSLKZrPiIyLSNI0zn3Ph9gbYG1+3NLGWLMv2HS7L8tHRUaeHDXoFOdWhkYODA77+8GWhWCzycAziciqWjMViYrSI9vBgjS5bxQ1QFGVvb8/9ii51vi0wvJBTfcxJRovJgaBz/KCJ8wa3RNf1UCikqmonR40fjI/Ace/lhmxtbdVqNTEwMhFFIpG33npLjHLsYHd39/bt25238+XLl5cuXTo8PHz77bc7LAqgDYN86dB1/cMPP9ze3u53Q8Ctixcvzs/Pr62tDUg5MCDi8fjr16+Xl5dnZmaIqFqtvnjxgp+HG4bR9auQqqqBQKBpgYVC4Z133slms3fu3CEifrunw5sxAGFtbW13d/fLL7/sd0OgP9BTfUDpup5KpbhXeTwe5y6aiUSCEwtL38WrWCbrlmBh7/cl2fCnbkoTCoWCvXlbW1s8+ec//9lSaUuFi0ba/6/rei6X4zmi2221WuWvW13XI5EIly8aoKqqJEmRSET0eDdPir0UjUavXLlibkMwGIxGo+ivDjAIdnd3HV4sB4ChEI/HS6XS9vY2h+JE5PF4uGPaWVTH9x5ulvzoo4+IiENxIvL5fOZf5wEAOtKvh/LjzE1Pde4QpWlauVwmIkVReL75qHHfLTHJS4pJNyWI1yxFvbwK/597xXM/1UalNbK3t0dElm5X3OXMXmmrhds3RGzOzs4O7xl+o5V7mPOSBwcHnNhZzCkWi4Zh8Ne8oijcEd3eBvN+EHixfD7ftJ3oqQ4jQFxtxPVhEJi7s/a7LdAa9FQHC/4uFm+EWZDpkTjP0TQtm81a3lsR78XIsry3t2dZjL/NZVnmL3RxAbEUaynBOL1Z4nsGS5Mc6s3n83wfoijKL37xC3tdvAoR/ed//qd9W2q1Wjab5QX43sahhTDU0FN9zCEa7wM30XgsFqsbP9uD50aT7ZUgHB0dEZG40DcqzXkTiEi8Plqr1cQds6WENgq3L8nxvwgV+Hs9m82KJc3vuLrfjWJDLLXzO2P8HqwzROMwAuz3kYOA3y0336fCsEA0Dhb8Vev8e5/5EmT/ZZ9/iOfvfb4lMD8AqPuDu5sSDFNmDUu+DJf18pOAlp5S8AaKhRVF4f83aiEMNUTjY26A7qvGh/ssbuVyWfx0ynNaCiPbKIHx5d4eatpLc8DfXvydYRjG3t6e+M6oW0JLhdsLsSR142iZf2m2l9nSbmzUJJdNRTQOAGCBaBws3HylOn8785Nk86ccwTqs5bIEwzCOjo5EGjlzosqm9ZqXdP+Ugss0P2Dg+xmHFsLwQjQ+5vDe+OBKpVJ3797tZMyetkt4+PAhEVlSlLVams/nk2X58ePHPPnHP/7R5/N1vamCZXjniYkJIuLX7AEAAGC08f2GOWfNxsZGt0qYmZnZ3t7mzOoLCwuTk5PiBsO5Xr4bYbdu3SKiZ8+e8eRf/vIXntOoJR6Phyf9fj93s+98GwFg0CAaH1C5XG5paenRo0cil0nPSkilUhsbG48ePeq8tMXFRVVVC4VCpVK5fPly15tqJoYsNs8Uv2QDAADAwOLva13X2y6Bw2PLQ6fuluD3+zkml2U5EAjw8u7rdf+UotGzhM63EQAGDaLxAbWwsEBE09PTPS6hUCgsLS3t7e1ZVmyvtLm5OSL66KOP/vSnP/385z/vblMtFhcXiejk5IQn+Ru9K2mWuf983VsESw4YAAAAaMONGzeI6Ouvv+6wnOPj466XIEmS+R7A7/fzEwvz6DAu63X5lIIfMJRKJZctBIDhhWh8QPGFuFKpiGsuP/UVT4C3trbo9LdkXqZQKPCSkUikUQni0bEY/cs8WalU3nnnnUQiwVE0z+euUI3a48zj8cRisWQy+erVK9FZy1Jpe4WLryixyvXr12VZ3tzc5HWfPXumKMrc3Jy9KDGHv1yd9wkR8RN7SzTOQ6A5fJUCAACASzwSiuWlM1apVPiexxmndcxkMuLL3c1aLkv4y1/+Yl6Snx/w3UtL9bp8SsElJ5NJLrNSqfCtXefbCAADp7uvoYMbbrK4cQq0WCymaRqnHOcBOczzDcMol8t8yeahtjjTJn9UtwTLobdMNnpt26E9TfGKR0dHYo799Gu18EansaZp/EVFpiQrYhkxdojzTqhbLNmGXeGc7W5Ge+puFjcAgBEgSRKyuIEFZ5BVFMV8z8D3OZqmWcZZtA+7KOYI5XJZzORbAs7wKtbi2x4eM6xRCcbpjcHe3p4ohLOpcW5a53rtm8m96syJcutui/mWTOyTRi2EoYYsbmNOMvDCSc9x9+mnT5/2uyHgFv/2bE5rF4/HJycnLYnu6trd3b19+3bnf2gvX768dOlSKBT64Q9/2GFRAAD99fjx40gksra21mE5Fy9enJ+f77wcGBC6rn/++eeffPIJPyTnB+bXrl2bnp7mnnrMMAzLJP+nUqlw7htFUX796183XatUKv3kJz+JxWLvv/8+p0yzl0BEkiQZhnF8fPz8+fOlpSUiisVioVBIJLtxqFeWZU7AJnClR0dHYvW621KtVh8+fLixsdG0rrb3NgyItbW13d3dL7/8st8Ngf5ANN4HiMaHjq7roVDo3r17fr+fiEqlUjwez2Qy5lypjXQ3Gj88PHz77bc7LAoAoL+6FUUjGgeAYYdofMzhvXGA5iYmJtLp9ObmZqlUOj4+TiaT6XTaTSgOAAAAAABQ1/f63QAYYua+VXYdPg0+08Lb4PF4MplMOp0movv374tRQAEAAAAAANqAaBzad6Yh8QC+QzExMeHmRXEAAAAAAICmvtNTfXd3VwJHu7u7/TpUAAAAAAAAMDLqPBvnAZnA7vbt2/1uAgAAAAAAAIyCOtH4/Px879sxFBCNAwAAAAAAQFcgpzoAAAAAAABAryEaBwAAAAAAAOg1RONDRtd1yXHoL2eRSITT0Yk58Xg8Ho93o2kD1KSW9lK1Wo1EIsfHx6VSKRAIVKvVTqoeWDhz3GjvzOmkxr4Y8JPBXv6gMW9vV1o7AkekX9fPN2/e3L9//4zytgIA9MD9+/ffvHnT44snDA7JPI7U7u7u7du3B3BkqQEhSdKTJ086f68+GAwS0dOnT9tYV1XVQCDQyTGSJIkGbPywrjfJ/V7SdT0UCt27d8/v9xNRoVDY3NzMZDITExPdaky3/qxevnx56dKlw8PDt99+u43Vcea40faZM1wG/2QYwJPNQeetHY0j0tL18+LFi/Pz82trax02bGZm5oc//OEw/hkCALBCofA///M/w/jjPnQFxhsfJrqup1Kpfrdi0LW0l9LptM/nE3dyfr9/amoqnU6P2LjiOHPc6OTMGSI4GQbNyByRvlw/v/e97127dq3zqB4AoF/W1tYwgvI4Q0/1AcX3Z9yDJR6Pc/e/RCKhqioRWbq48CqWybolWFSr1VwuFwgExBx7/xn+tG5p1WqVH+nouh6JRNx0jNR1PZfLcTl1b0DtTeKZW1tb3Jj9/X3LYqqq8keVSsW+lxqVwDOj0eiVK1fMdQWDwWg0Orz91XHmWGb24MxxKLNu48VOsKwViUR4LV5YTDpsTtOdNvgng2UXBQIBy/OBunvPDTdH33mfNzp77WeaSyN/RIb9+gkAANBrhgmPNG5AA0T05MmTzsu5devWrVu3nJdRFIWINE0rl8tEpCiKaIM4RpqmmSd5STHppgRZli2nAa/C/8/n80RULpcblSZWPzg4KBaLogoHsizHYjHRQv6/c5M0TZNlOZvNGoaxt7dHRMVi0Vy12Pa629ioBMsGClxUPp9vui0udevP6vDwkIgODw+dF8OZI1bp2ZnjXCYvsLOzIwqUZblWq4m1uMyDgwNeq1EhjRrjYChOBlGIoii1Ws0wjGw2aynfvvecN7zR7mp1nzufvebtdfk3PvJHxP31c3Z2dnV11c1O6005AAD9srq6Ojs72+9WQN8gGm8B9TAaj8VidW+znO8CzZPtlSAcHR0R0d7enpvS3NwcG6e3dOKm8ODgQJblpk3itcyf2iMx521sVEIsFrNve61WI6JEIuFmi9zocTSOM8eylvnTsztzHMrkUNDceCLiKNH9QXFojINhORk4Pjw6OuJJ/hvkTx32nrM2jr59ssPNtxv5I+L++oloHACAIRofc2cbjR8cHPBtK98JFYtF/tWff4+33PQ0vbN0xjcBHTfZCfUwGmflcjmRSLR309ZeCYyfeNjvqJqW5oyf2NjnOzdJPOcxc16rvRIaNaBDPY7GGc4co7dnjkOZfLkTH/GVys2vCS4b09TgnwyWXWQu0GHvOWvj6DfakPY238FoHxGXewPROAAAQzQ+5s4wGucf3cWP65qm8c/tdW+JOseFd7FAO+ptNL6zsyPLMj/KaO+mrY0SWCwWs9/vuinNWaOF27g/dl6svRKazm9P76NxnDltr9X2meO+TPOcltrf3mk5pCdDo13UqC67bp0zbW9+IyN/RFzuDUTjAAAM0fiYO6tovO63vnHaq83odsAjXsLsVoF1UQ+jce5mya/2tXfT1l4JhmHs7OyQ7W1ql6U542Nkf9nVzUaJn3XcrNVeCU3nt6fH0TjOHMtkb84chzK58aJnL3/K3YPdHxSHxjgY3pNBzHHYe87aOPr2ybY3v5FxOCIu9waicQAAhmh8zJ1JNM4hN+fFqVOlLRrXNC2bzVqid03TuO+cLMv8kpt5MX4SLssy30aI/vCWYi0ldIh6GI03ujFyf9PWXgl87Oy7y2Vpzvh2UGQGKpfLbmISXisWi/FafFjdb7tDCXx62F9dJhdv5LrX42gcZ45lrd6cOQ5lcsAjrofcs5d3lPuD4tAYB8NyMvCmmX9tEZ867D1nbRz99naFfdLBOBwRcnf9RDQOAMAQjY+5M4nGOTY2/3Zep2LTF38vkyF3gnoYjfPGlstl0YGQ96d4LsF3lvwKHz//4fst+m7iX0sJIlsvl2aZ5F1qvsXnBZqW5nLD+aDQKX6RwblJ5jlCuVwWM/lWWyQZqruX6pZgjGhOdZw5vT9znMvknjuyLPNkNpvl/WxZq73NGYGTQawifl3lKzad/v5Sd+8Zp7+JNLqwuzn6Tfd5G5s/zkfEQE51AIDWIRofc2cSjfPXdkvLWCbPLhlyJ6iH0XixWOQ2a5rGb+DzXZF5vmEY5XKZb6f47od/gOCP6pZgvjc1TneamKyb94g/ci7NTVIlxqtzUXyv6dwkVi6XeS2xH5zXsuyluiUYp7eklk4cfO/r5sbapR5H4zhzen/mNG2Jpmn8sJGIstksh4LOa7ncnBE4GcSmcQiqKIr4LVXElva9Z5ymJnE4hVo9+vZ93sbmj/MRMVq5fg5CNN5h8tezyEdbl6Zp5iw8Q2TA97C9/G7pQV7h9ph3YFc2H4e4Ln6C6P5OEtH4mBvQaPzskiF3uF09zqkOZy2RSFi6+8ZisS4Ob2b0Kac6nDX7mQN94f4HHegB99fPQYjGO0/+ekY3+mbcGaHRq38DbvD38BmV34O8wl3R+ebjEDfCQ7G6HMYV0fiY+z/2kLVz/FuUruttl6CqKtnO8h6XAOMgHA4/f/68UCjwZKlUKpVK4XC4v62CwWc5c6AvCoXCvXv3+t0K+P8N1/VT1/VUKtXvVjSXTqd9Pp/f7+93Q1o2LHu468Znw8dnSy3cbLjf75+amkqn071pEgy1M4nGb9y4QURff/11h+UcHx/3vQQYbRMTE+l0enNzs1QqHR8fJ5PJdDo9MTHR73bBoDOfOf1uy5ja39//wQ9+MIxRykga5Osn3zpLkiRJUjwer1arRJRIJPhXe+m7eBXLZN0SLKrVai6XCwQCYo5kw5/WLa1araqqGggEdF2PRCLxeJxnRqPRK1eu2KtQVZULrFQq5i3N5XJcciqVEiVb1opEIrwWLywmzduytbXF5e/v74/GHrbsokAgYLlFrLv3iCgej/PhaIT3Fa8iSZJlw+seWWf2/d/qQWx0jll2oHs4xG0c4mAwGI1G624pwHeYHx13cYQzWZbrDkJTLpfdJLY9u2TInSD0VG/G/ck2UGq1Gnc87uLr4gJ6qrsx1GdOHxswpPtthI3tEWn1+tnLnurcX0/TNIfkr5bUkuJtfPcl2PPRkukVenPqx7qlmfPUFotFnmlJGOmcy5YX2NnZMU4zX3JHWbEWpzzkd/sVRWlUiNZ6Etyh2MOiEDE8BycYMpdv33tGszeZE4kEV1qr1ThRRaNmm4+sg7r7v9WD6HyOmXegy+sSDrHR+iF2n9USPdXH3FlF43yiW/KOcGYaNzlpzy4ZcicI0Ti0DtE4AIBFL6NxTlDH/zffQztHJubJ9koQOGW9GAfOuTTzi6bi1t9NIzlyE/dRHLBxUOd+S422kuAOyx7mcE7cl4rbSMNx7zkj271ro2a7fIW4jTTG9skO96cdDjH/v6VDzLW7+cke0fiYO6to3DCMWq2Wz+dFPkP+RcpNYlt2RsmQO0GIxqF1iMYBACx6n8WNu+a1F0i0VwLjhxP2O/KmpbmZY57k2y3xEUcCnOawpS1tOwnu4O9hyy4yF+iw95zxipbBBdw0u5E20hg3qqK9/ekAh9j9ljrPt0A0PubOMBofPYRoHFqHaBwAwKLH0fjOzo4sy2JYdZ7ZUiDRRgksFovZ7/jdlOZmjsvVW9rSViM091s0yHvYzc6v6+joSMTPIlzsZJc2WrjVo9b2/mwEh7iNQ+yyCkTjYw7ReAsI0Ti0DtE4AIBFL6Nx7vpr7mTH890HEu2VYJymsLH0znNZmps55knxvp75U+7N21LIxJMtDW8+AnvYYe+5wW8L02m01rTZDhrt/5YOYtv7sxEc4vYOscs9jGh8zJ1JTnUAAACAQbCwsEBE09PTPS6hUCgsLS3t7e1ZVnPcTekAACAASURBVHRfGvfCdTle7OLiIhGdnJzwJK8VDAZbajMRcfCTyWS4BM7v7bzKsOxh3rS6A2G0vfckSdJ13efzbW9vF4vFaDTa0ibYtbH/7To/Il0vcGwPMb8zC+AA0TgAAACMLH4mVqlUxHBHPOYQzxfRDj/44mUKhQIvGYlEGpUgBi4Sw0eZJyuVyjvvvJNIJObm5sR8Hu3JuTSzmZkZMkXjYhmeY5l//fp1WZY3Nzd58tmzZ4qizM3NWdZybjYR3bx5k4g2NjYmJyclSfJ6vU0jlqHYw0R07do1IorH4zwYmBi8LRKJNNp75GL4q0QiwQWeO3eOf0Axb7j9yPJwWY1Gx6y7/1s9iG3sT2c4xC0dYsarXL58uenuhXFnflCOnurOqFc91UXqu87rGgHOI0/Y95WmaZzMnwcFOYtBy1rSy57qOHPMhv3MARhhveypbk7yyqmYuYOrJfkrD/tCpyMS8ShT/FHdEiy3UpbJurm4+CPn0szvx3ICZx7Fyl6F/V5O0zR+NkimpFPOa9W9IWw1Ce5Q7GGxaXzxVxRFjCUmxvex7z2j2VcJnY7mQ6aXis0NsB9ZbpJD/rBW0xjbD2Ib+xOHuIuHmHHadjf3EuipPuYkw3T27+7u3r592/ju3wMIkiQ9efJkfn6+w3L4Z+anT58610W2axPUZd5Xuq6HQqF79+75/X4iKhQKm5ubmUxmYmKiX83r1p/Vy5cvL126dHh4+PbbbzsshjPHvQE/cwBG2MWLF+fn59fW1gaknIHFjxxXVlb63RDoskAgwMNxwaiKx+OTk5Nu/njX1tZ2d3e//PLLHrQKBhB6qsNISafTPp+PAyoi8vv9U1NT6XS6v62CwYczBwAGUDgcfv78uej0C6OhUCjcu3ev362AM1QqlUqlUjgc7ndDYAggGh9o/EaKJEmRSITfP5FO8QKWSTp9HymVSom3a4hI1/VcLsdLplIpMTOVSvHMeDwuXtpRVTUQCOi6HolEnF+kEQsTERcViUTEOzz2eturIpfLcRX2YgOBgLm6arUajUavXLliXjgYDEajUTevRY0SnDk4cwBgBExMTKTT6c3NzUavGcPQ2d/f/8EPfiB+/IXRc3x8nEwm0+k0uteBG4jGB9rJycnKyoqmaa9evTp//ny1WjW/oEJElrdutra2gsGgYRjz8/MPHz4U80Oh0MuXL/nlhC+++ILDmA8//HBpaUnTtHK5vLGxsbq6SkThcDgQCKiq+tVXXymK8vr1a4fmeb1eXrhQKLz33nu1Wo2ILly4IOKcUCj05s0bwzA0TVNVNRwO67reUhXhcHhhYUFVVfPMUCj0/PnzWq2Wz+e/+OILMf/FixdE9NZbb5kX5kn+aHzgzMGZAwCjwePxZDKZzz77rI9tkBz1sWHDaG5ujvPzDRQc4i5SVfX+/fsej6ffDYHhUOe9cU46BXa8c/ry3vjx8fGFCxd2dnbee+89y0fmSUmSNE3jv/9qter1eg3DyOVyCwsLYj6/EJvP5+Px+OvXr7e3t+2FEFGtVnPzk56lMaVS6Sc/+UkikVhZWdnf37969aq53nfeeSebzd65c6eTKvjp6NHRkUg2Ozk5yQvE4/GNjQ3LK9O8ADepaV1nob/vjePMGd4zB2CE4b1xAACG98bHnTmlG+LwpnqTU11EBXXnWD4yT3IaSXOiSOM0KWWjisrlMieKFMvYq26vndwYMZ+ff3LCyU6qsBRrNN4zDo3spV7mVDdw5jSuYujOHIAR1suc6gAAgww51cdcnZ7q/W7S4LLvq0GzvLwsy/LCwsLk5CQnYiUiS2dds1Qqdffu3UZjSHQomUyaJ/lhpkNj2isWugJnDgAAAABAj+G98WEiRkhuZGZmJp/PF4tFRVGi0SiHVRwy2RPA5HK5paWlR48edf39JW4n12tJgtV0E+As4MwBAAAAABg0iMaHA0dE7777rvNikiTpuu7z+ba3t4vFYjQapdPYJplM6rpORJVKJRKJENHCwgIRTU9Pd7GdnIXrxo0bRLS4uEhEJycn/BHXzu/Md2JnZ4fqhYhExB2nuSKLWCzWYb1DCmeOgDMHAAAAAAYKovEBxYHQ/v4+EVWr1Xg8nkgk7ty5Q6cPCTl6EWOQcphERIlEgke0OnfuHMcYN2/elGU5mUxOTk5KkvTgwYPl5WVRRaVSEYmsq9Vqe+M55XI5ItJ1PZPJyLLMJV+/fl2W5c3NTS7z2bNniqLMzc21VIVYWPzn2rVrRBSPx3kzeRfxHhDZucwl8GKXL19uY7uGEc4c0STLf3DmAAAAAMBA+V6/GwD15fP5/f39f/u3f7t69aqiKB988MHc3Bx/9Otf//rVq1cXLlzI5/McwCwuLopP33///UwmE41GRS5oj8eTTqcfPny4sbERi8VCoRDHHuvr66qqplKp999/PxaLvX79+ttvvz1//jyXEwgE8vm8y9bOzs7y0FM7Ozv8WJVOR0n9/e9/7/V6iSibzf7mN78hIp50WYVYmLN8E9H09HS5XH7w4MH58+cVRbl//75lD3zzzTfmx7bffPMNEf30pz91uS3DDmcOw5kDAEQUiUQ4Z8RQJH85azxK5fr6et1P7fuqWq2urq4uLy//7//+bzweT6fTGLQJYGD99a9/5acmMODm5+fNXT7rjHCGb6xGJEnq2Qhnw8IyiFTf8QvP5iGp4vH45ORkHwep6vEIZ8MCZw7AOOvlCGeDdrUZZOZ9pet6KBS6d++e3++n00EuM5mMmwEmAcC9bo1wxjeK//zP//x//+//7UrD4Cx8+umnv/rVr8xfW3g2DiMlHA6HQqGf/exnfPdQKpVKpVImk+l3u2DQ4cwBADBLp9M+n48viUTk9/unpqbS6TR+owQYZL/97W9H47HNqLp48aJlDt4bh/bZX83tO+7kvLm5WSqVjo+Pk8lkOp3GD/mDBmcOAPRYtVrd2tqSJCkSiXBWCOkUL2CZJCJePpVKVatVMV/X9Vwux0umUikxM5VK8cx4PM5Xtmq1qqpqIBDQdT0SiXAvcYfm8cJExEVFIhGRm8Neb3tV5HI5rsJebCAQMFdXrVaj0eiVK1fMCweDwWg0OjjXbQCAEYBoHJqQGjO/mntGVZhvjFzyeDyZTOazzz5TVfX+/ft4ya1fcOYAwOA4OTlZWVnRNO3Vq1fnz5+vVquappkXKJfL5smtra1gMGgYxvz8/MOHD8X8UCj08uVLwzAMw/jiiy84AP7www+XlpY0TSuXyxsbG6urq0QUDoc5L8ZXX32lKMrr168dmuf1ennhQqHw3nvv1Wo1Irpw4YKIkEOh0Js3bwzD0DRNVdVwOKzrektVhMPhhYUFVVXNM0Oh0PPnz2u1Wj6f/+KLL8T8Fy9eENFbb71lXpgn+SMAAOiKgYvG4/G4+HG37u+40GOGO2dXRRsFTkxMrKysrKysIKDqI5w5ADA4uMe1x+PhMSN+//vfW/7MLaM2RqPR73//+0Q0MTHx/vvv88xcLqeqqpj85S9/yYMm/uhHP1IUxePxcCGcC00km5ydneXxIx2aJy5Z3M6JiQkeBYOD5/39fVVVb968yZtw7949VVWfPXvWUhX25Jeqqqqqury8zP2Arl+/Lj76j//4D/s+4cXMj9ABAKBDAxeNm62urtp/x+2QruttPDQDAACAEcBjQywtLTkvpiiK1+vN5XK6rns8Ho6WHz9+TEQijPf7/Rzirq+vb29vVyoVzgdp0d47Lz6fj4h4sAlO+yrqnZ2dFY3ppIpPPvmETneIpZCNjQ378ryAGP8CAAA6N3DR+Pr6uhh7w/lX3vZ8/vnnXS8TAAAARsny8rIsywsLC5OTkyLGdng8kEql7t69K8vyWTSGH7YLHBV3/qzCUiwAAPTewEXjZ4rzrPS7FQAAANBP3A/cwczMTD6fLxaLiqJEo1EOyDnY5t7pZrlcbmlp6dGjR+I5c3fbyfVa0qc13QQAABh8bUbjIjdpIBDY39+n777jraqqZEpbyuk6xSRrlIC0pRfFzS+Z12VJiJpIJPi3ZK63pWSkAAAAMOw4ln733XedF5MkSdd1fhm7WCxy92yOipPJpK7rRFSpVCKRCBEtLCyQ7S3rDvHr2Tdu3CCixcVFIjo5OeGPuPZgMNhhFTs7O1TvxwUi4rfruSKLWCzWYb0AACC0E41Xq9VwODw1NWUYxgcffHD16tVSqSRydZZKJVmWDw4OksnkgwcPCoXCnTt3yuUyT4pCGiUg7eKL4vaEqKIPPCd5aikZKQAAAAwdDqHFk4N4PJ5IJO7cuUOnj5c57i0UCrw8B9hElEgk+CnCuXPnODq9efOmLMvJZHJyclKSpAcPHiwvL4sqKpWKyHBWrVbbGwksl8sRka7rmUxGlmUu+fr167Isb25ucpnPnj1TFGVubq6lKuxDS167do2I4vE4bybvIt4D/JDfEo3zYpcvX25juwAAoD5zCuInT56Qi0zI2WzWvBgRxWIxkQ7UktC40WQsFlMUxf6R81otISJN0/j/PJBJo/JrtZrLAp88edJeY8xu3bp169YthwVE97PO64LOaZqmKMrR0VGxWJRlWZxULrn8s2rq8PCQiA4PDx2WwZkzUDo8cwBG2Ozs7Orqas/K2dvb47BWUZS9vT0xv1wu8/x8Pm8YhizL2WyW/1T5FoKD8EQiIVbRNI0fDsdisaOjI55ZLBZ5Dn+qKIp5vDRZlt1sCy/Mlwsi2tnZMd+caJrGj7KJKJvN8kctVVH33q9cLvMXh6IomqaJPcB3TQcHB+YSDg4OzHdWANAVq6urs7OznZfj5kYRHGials1mxeXUMtkt9q+tdqLxuklKjBajcVYul/mr7iyicf6CEV9anZffs2jc6GzDoYtqtRr39eDJg4MDWZZd/nzDehmNGzhzBkbnZw7ACOtxND4UBu3qnUgkzD9DGIYRi8UscwCgc72Mxh0iuLo/2PXAwcGBeP8lFosVi0XxDLU9tVqtvdUtz7TO6BGX/WurnZ7q3JPcUnQb5ZxpAlJqkBAVoCXpdNrn8/EAsETk9/unpqbS6XR/WwWDD2cOAAy1cDj8/Plz0YG/VCrxa4n9bRUAdMI4DVbptGtwo5m9EY/HP/roo1AoxOHk+++/X6lUvF5vJ2W2PX6WZTCvsxjbq672c6qLl6Pac3YJSIW6CVGHi8iWJ3LgSad4Acsk2RLX8Uxd1zmXHn8kZtZNpOc+s51YmIi4qEgkYj4xLPW2V4UlO2AgELCkA6xbRUs5BaleYkKeGY1Gr1y5Yl4yGAxGo9H2XgjsGZw5OHMAYIjYX+ruu4mJiXQ6vbm5WSqVjo+Pk8lkOp1ub2BzABgc4q/Y/Odcd+ZZi8fjpVJpe3tbBIMej4f7FbZd5lCOn2V+vu2ySy2/uRSLxfjnE36xymixp7p5stH/7ZMtIdML4fxOV4flU897qnM3V36Vi4jEq1yizeLNNJ5MJBLlctkwjFqtxr0+eL4sy/xuv2EYiqLw/7kDBifSIyJ+jV90VTg4OOAfMpo2UrSzVqtxmeJVOlmWd3Z2xCZwT92WqjAvLLbXvIpzFcVi0Th91U1RlEaFiJflDMPY29sTK+bzeSLiXSrw6vySoRt96amOM2cEzhyAETaePdXJnbOroo0Ca7Uad1nH6+IAZ6T3743XvSDYZ9ZqNU4WRkQ7Ozt8ETC/Tc13O5wpwzjNLCYmBZGDQ5ZlkbmDb7EsySnMjWmpDbIsc6WWQR80Tcvn83yPJ+5jGxVr3wn2fWLflkZVNNKd98bFbb1QLpfFTBGii71gnzRO75XL5fLR0ZH4qOlaFrFYzGGbiSgWi/Gx4RfURb28Ky3xSVPUv/fGeS9x8OBwolC9xHV8ton5/P6q0SyRnvvMdubG8K8evKs5ODHXS0Qct3RShXmyaRVuCjEaJyY0x6UCd+Zx/+5cf98bx5lTd3IozhyAETae0TgAgN3ARuNn+tyC75Sa/szX9PGMvVLzhjR6kFO3WPtOsEzW3ZaWnhUZ3YrGebN5J4rfP8ik6aTRLAFpo7Usmkbj9oSo5npF4e7znfYxi5tlt9Rdsm7iOj5LGlXUNJFe2+3kxoj5HIrwru6kCvv2uqnCedJlYkKHrXbQ9yxuOHPsk0Nx5gCMMETjAACsX9F4XWKZs35u4eaOqL021P3IfH/b9qY5b4vLZ0Vdi8bHEw18NH50dCTCA/EDhMPpvrOzI8uy6J7QdPlO2un8kfsqnJvqZi81nWx7fl1DEY3jzBnAMwdghCEaBwBgg/lsvF/PLczaa0PTW7W2N62TbRG6k1Md+kWk2m+kbuI6PnVKpZJl4bNLpMft5HotCWmabkJLultFh4kJBxnOHAucOQAAAACNJJNJ8yRnd+NxtVrSaCguvunSdb0HbehWsd0aVswC0fhw4Ijo3XffdV5MkiRd130+3/b2drFYjEajdBp4JJNJPuMrlUokEiGihYUFIpqenu5iOzksuXHjBhEtLi4S0cnJCX/EtQeDwS5W160qODFhJpPhEjhLNhFxT+y6VwpLloiBhTOnLpw5AAAAAI2c9XMLvuX7+uuve9aGbhXb9WcwiMYHFJ8oPGBStVqNx+OJROLOnTt0errwqSAGAuUwiYgSiQSPwHTu3DkOCW7evCnLcjKZnJyclCTpwYMHy8vLoopKpSLOqmq12t7YKrlcjoh0Xc9kMpwLgYiuX78uy/Lm5iaX+ezZM0VR5ubmWqpCLMyBjQhveH7TKkSMZF7LPpDMzZs3iWhjY4N3kdfr5cCMn/1aYirevZcvX25lD/UOzhzRJP4PzhwAAACAlpz1cwu+67M8pmaVSoWXOaPHM20X22hbOmV+1I73xp1RD98bNwxjb2+PgxNFUcR4AIZhlMtlns9DJXFyP05FQPUS1xmGwanyiCgWi4lBpJwT6bnPbEemjII7OzvmHAaapvGJS6YMYS1VYTlX7aeucxV116p7/tsTExqn2cUtoy9wsgf3Y730+L1xA2eOqfyhPnMARljP3hsXjzs6rws6p2maoihHR0d88cf1EMDo+Xvj/Jo0fTfrmH0mpy4Xf6fZbJazhbc6ilbdobjER7Is8zVBtIRvVnl1l20QjefFmo6f1bTYlral1SG6kMWtI9TbaHwojPxdDo+zap4Ti8VaGqSq99H4UMCZAzDOepnFbeSvNsOC74DFz5Q8aqbLLMQAI6yX0TjZNJppnPFzC1ar1fL5vPjZlAceMy/TRhvcjJ/VRrGNtqVRFY3Yv7a+Zz8AACCEw+FQKPSzn/3M7/cTUalUKpVKmUym3+2CQYczBwDALJ1O+3w+viQSkd/vn5qaSqfTKysr/W0YwPhwH5ATkcfjee+999577z2HhZ0n2fT09Pr6+vr6uv2jiYkJfky9vb3drTb4fD7D9Dtst4pttC2NqnAP741D++yv0Y6eiYmJdDq9ublZKpWOj4+TyWQ6nebsi9A2nDkA0GP8gp8kSZFIhJM4SKd4AcskEfHyqVSqWq2K+bqu53I5XjKVSomZqVSKZ8bjcZFpQlXVQCCg63okEonH487N44WJiIuKRCLmXEGWeturIpfLcRWqqkqSFAgEeFc4V2FZS+xAXlhM2nd1IBDgJCY8MxqNXrlyxbxkMBiMRqMj/EUAANAUonFoQmrM6/XyMuI/Xa/CfGPULx6PJ5PJfPbZZ6qq3r9/3+Px9LtFwwFnDs4cgMFxcnKysrKiadqrV6/Onz9frVYtbwCa818Q0dbWVjAYNAxjfn7+4cOHYn4oFHr58iV3L/ziiy84AP7www+XlpY0TSuXyxsbG6urq0QUDocDgYCqql999ZWiKK9fv3Zontfr5YULhcJ7773Hr0FeuHBBBOShUOjNmzfcwVJV1XA4rOt6S1WEw+GFhQWuQpblcrmsquqDBw/Mm1a3Cl6rVCpxP/NkMvngwYNCoXDnzp1yucyTopBqtRoOh6empgzD+OCDD65evcpDe7x48YKI3nrrLXOTeJI/AgAYU+Zu6y5fcI3FYrFYrNGnmqZls1mXXefdFzsICO+NQ+vw3jgAgEUf3xs/Ojoiop2dHftH5kmyZe4xDCObzZrn85vPhmFwPsu6hdB3UyW5bye/+sjJJvb29iz1ElE2m+2wCvNk0yrcFGKc7iLzp3xrx29aWtrDPzogoQaMuR5ncYP+sn9tdf/Z+OrqKv+M2vWSBV3XB+HBFwAAAAwXHoBwaWnJeTFFUbxeby6X03Xd4/EYhkFEjx8/JiLRz8Xv9+fzeSJaX1/f3t4Wo/JYtPeKis/nI6JoNEpET58+Ndc7OzsrGtNJFWZNq3CJVzH3UdrY2BD/WnCzeRsBAMZTO9F4oxfxWaO38Dss1uzzzz9vrwoAAACAppaXl2VZXlhYmJycFDG2w5OGVCp19+5dHlmn6yxD8nIQ293HHt2qglexPAvqViMBAEbP8L03zrlS+t0KAAAAGFZiQJ1GZmZm8vl8sVhUFCUajXJAzsE2vwhtlsvllpaWHj16xA/eu95OrteS7azpJrSku1WY888BAICDlqNxc3ZNQeThDAQCDpfgeDzeKOGnpViHzJ+JRIJ/eR2QRE0AAAAwLDiWfvfdd50XkyRJ13Wfz7e9vV0sFrk3NYesyWRS13UiqlQqkUiEiBYWFohoenq6i+3ku6kbN24Q0eLiIhGdnJzwR1x7MBjsYnXdqoKH8M1kMlwC51cnokQiIYq14FfKAQDGU8vRuMiuaZ4ZCoWeP3/OA7h/8cUXbbTDUqxD5k/Rmx3dnwAAAMAZh9A81Fa1Wo3H44lE4s6dO3T67Jfj3kKhwMtzgE1EiUSCHwOcO3eOg8mbN2/KspxMJicnJyVJevDgwfLysqiiUqmIBxLVarW9gbtyuRwR6bqeyWR4GF4iun79uizLm5ubXOazZ88URZmbm2upCrEwh8QiMOb5TasQ0bV5LftwlTdv3iSijY0N3kVer5dDeu41YInGefdevny5lT0EADBazC/2uEz+bFmRU5gcHR3xJGfIdFOOc7EOk+2V3zka2pzqfFB6UJHo1SbmdJ4qv/PGa5qmKMrR0VGxWJRlWeSM7Y3+5lS3H5FWFxA6PBD9PQoAMFB6mVPdMIy9vT0OaxVF2dvbE/PL5TLPz+fzhmHIspzNZvnqRESapnEQbk76rWkaP8uNxWLizofzn8diMf5UURTzeGkuR5nhhfkKSUQ7OzvmTOmapvFjZyLKZrP8UUtVWO797LeCzlXUXavu/WS5XOZdxPtBFE5EBwcH5iZx5nZ8HcCY625OdRhwkiRZvrYkw3Qx3d3dvX37ttHsgTP3DxeLRSKRZDJpXsuygPvGmddymGyv/M5JkvTkyZP5+fkOy+HfiTl/aW+oqhoIBHqzx7p+dDpsvK7roVDo3r17fr+fiAqFwubmZiaT6TwDrUsu/6yaevny5aVLlw4PD99+++2WVmx6RFwesk4ORN+PAgAMlIsXL87Pz6+trQ1IOYOgX/c2PcNd1ldWVsSceDw+OTlpngMwhtbW1nZ3d7/88ssOy+EbxVAo9MMf/rArDYOz8Pjx40gkYv7a+l7nhVrycMKgGeq8d503Pp1O+3w+DgKJyO/3T01NpdNpfP23pMMDgaMAADDmwuFwKBT62c9+xt8FpVKpVCplMpl+twtgpPzrv/5rq49toJc+/fRTy5zhy6k+PkRuPEmSzIGQZb54d8t93juOrHgyHo+LEvjhp67rkUikUb49Ny0U6ub845wu3ELxIl9LSfvsJTCeyfuEF65Wq9Fo9MqVK+YGBIPBaDTa3ht9Q8Ehq2KjXWdhX6yTs2g8jwIAgHv2F7BHz8TERDqd3tzcLJVKx8fHyWQynU6jhxQAjLkuROP8lpF9wA/oUCgUevnyJb9R8MUXX4jwOBQKvXnzxjAMTdNUVQ2Hw7qut5T37sMPP1xaWtI0rVwub2xsrK6uElE4HA4EAqqqfvXVV4qivH79uu0WCvacf9VqNRwOT01NGYbxwQcfXL16tVQqtdT4uiUQ0dbWVjAYNAxjfn7+4cOHvNaLFy+I6K233jK3iif5o5HUKKtio11nUXexTs6i8TwKAAAWUmNer5eXEf/pehWDMAyNx+PJZDKfffaZqqr379/3eDz9bhEAQL+ZXyJ3k26K83CQKesGpyrhIMowjL29PV5AURTLug4JvSzFiklOIiIyw/GnnOCE06s4t7a7qIdZ3LLZrHknHxwccI4W3r3m+USUzWaNVvLecY6ZRouZ08a00UKHZoi1zJ/yKeG+8Q4liMbw+cNbaj+l+XTq2cnT4yxuDlkVXe58l4u5P4sG4SgAwEDpcRY3AICB1d0sbq2m+4Ues39ttfxs3P7z7fT0dLlcnpqaOn/+fCQSuXTpEmclvX//ftvFisnJyUnxr5jPj+kePnwYCoVabf+wePz4MRGJn439fj9HWZz7TcyfnZ0VC7u3vr6+vb1dqVQ4pYqFy25jjVroZi3z7/QbGxvuW+5QgqIoXq83l8vpuu7xeAzDaFQ4byAPHjt6PvnkEzodS4a+ezRd7nyXi7k/i8bwKAAAAAAANNVyFjejXrbP6enp7e3t7e1tnmwUlYnOrk2LdZ70+Xx1mzFKLCO6C5aceRzSNFrYQSqVUlU1kUi0HQ61UalYq5PD16iE5eXlV69eLSwsEFEikRjb9GAOWRVd7nz3x6jzswgAAAAAYGwhi9uA4t749td6eb4ly4sYMtqlXC63tLT06NEj8QS1iy10w5JarCslzMzM5PP5YrGoKEo0Gq37wBbI9c5vulhXziIAAAAAgLGFaHxAcaybTCZ1XSeiSqUSiUSIaHFxkYhOTk54Mf6UBzB3jx8gT09Pn0ULnXHOv0wmw2tx7u6W6m1UgiRJuq77fL7t7e1ischPaxOJBJ3uJQt+mXn0OGRVdLnzXS7m/iwaw6MAAAAAANAUovEBdfPmTVmWk8nk5OSkJEkPHjxYXl4mouvXr8uyvLm5yY/Hnz17pijK3NyceFrOMY+IfHi+eKLO9gzM8QAAIABJREFUYRVPVioV8fyzWq22OqpK3RZaxmixD9ly8+ZNItrY2OC1vF5vMBhsqfF1S+DlE4kEj4t27tw5jgD5sa0lDuRlLl++3NL2Dotr164RUTwe580Uw5hFIhHnne98jKiDs2gMjwIAAAAAQFOIxgeUx+NJp9P85DAWiy0vL3NIw8N1yrLs9Xo5w9ZvfvMbajHvHU+mUqnJyUnOjP3tt9+KEizDg7fUwkbZ+MR/PB5PuVzmtRRFKZfL09PTLTW+bgm8/Pvvv//06VNJkp4+fcrvjf/0pz8lom+++cbccp7kj0aPQ1ZF553vfIyog7NoDI8CAIwqXdd7M1RYJBKxDEsWj8ftI4m2pPPGV6vVSCRyfHxcKpUCgcAIj44OMJ7sV54x1OsLnTnBereGYhpV1MMRzqBbEomEZRitWCzWy4G1ejzC2WDq+1EAgIEyvCOccZ7a3tRlv0/rUIeNr9VqsiwfHBzwJI9s6nJUVABoZNBGOOv6lWe4nPWFrgsjnAEMl3A4/Pz580KhwJOlUqlUKoXD4f62atzgKADACNB1PZVK9bsVbeq88el02ufz+f1+nvT7/VNTU+l0uhutAwAYCL2/0CEahxHHffs3NzdLpdLx8XEymUyn0y7HVIduwVEAgD7SdT2Xy3H3S3NEapkvMp7kcjl+3UZVVUmSAoEAp7pIJBI8BqToyckhLk/G43FRgqqqgUBA1/VIJOKme3mjFgrmVplnbm1tcQs5S0hLja9bAuOZvE944Wq1Go1Gr1y5Ym5AMBiMRqPorw4wkvgaEolEzH/jLi+bkUiErzy8sJgUGl186hIXVSLiSy73JBdNsl+H2f7+fiAQkCRpa2vLcqWq24D+XOjMD8rRU90ZjVlPdfdnzuCr1WrcWVrTtB5XjZ7qQh+PAgAMlB73VJdlORaL8f8VRRH/l2V5Z2fHMAxN02RZ5u6InKKSiLinYrlcJiJFUXgVyzcgjzCqaZp5MXMJPO5mey001yXKFKtwm7PZrGEYe3t7RFQsFltqfN0SDMNIJBLlctkwjFqtxjlEjNNe7jxf4PLz+XzTDQSARgazpzpfQ46OjszXEKPZZZOvIQcHB7xW3QuR0fji49wk0aparcbX3qOjI6PBddg4vWrxKtls1hzCNGpADy509q8tROMtGLdoHLoC0TgAgEUvo3G+CRM/AvJLgMbpHZh5PhHxzZklajVPWj7iHJaNFnP5qmGjFjo0Q6xl/tQewzs33qEE0RhN03gZEZab1Wo1IkISEIBODGY0XneyvcumfbLRxcd9q4rForj4OF+HzSWIi1WjBvTgQof3xnuXDRUAAAD67vHjx0Tk8Xh40u/389OPp0+fmufPzs6Khd1bX1/f3t6uVCo89KOFy/dxGrXQzVrSKSLa2Nhw33KHEhRF8Xq9uVxO13WPx8O3qnUL5w2MRqMt1QsAQ6orl03qxuXL5/PR6cWn0XWYn5mbiYtVowb05UI3dtH4559/3u8mAAAAQI/wy9J2yWTSPMn3W40WdpBKpe7evSs6arahjUrFWpanLl0pYXl5WZblhYWFycnJur8yAMB46tZls/PLl0Xd6zBH47lcjohKpRIRJRKJM2pAJ8YrGh/qbKgAAADQKr4/41sx+3xLYh77sxRnuVxuaWnp0aNHMzMzXW+hGyKPUdvsJczMzOTzeX7jPRqNIiAHANaVy6bQ+eVLxNt1r8M+ny+fz7969Yqzu2Wz2ZWVle42oCtajsYd0nWyXqbai8fjzqlKLUlBLQlF28h6CgAAAEOEbx+TyaSu60RUqVQikQgRLS4uEtHJyQkvxp8Gg8GWCl9YWCCi6enps2ihs52dHSLKZDK8Ft81tVRvoxIkSdJ13efzbW9vF4tF7p/Jz5R4SQt+0xIARl5XLpvUjcsXB9I3btygxtdhVVV//vOfr6ysGIaRz+fv3LnTtAH9udCZH9C7STflnK7T6G2qvVgs5vDSf92koOatbjXrKSGLG7QOWdwAACx6mcWN7yjEbY+iKJyGl29OZFnmjETZbJZvAzhvGZ3mYOP8PXSauIiL0jSNM/rwZLlc5szD/JEoweVW1G2hKITrtUya5wjlcrmlxtctwThNaMT/L5fLvDByqgOckYHK4ma51FiuIS4vm+1dvpwbxotxbMiRHWe7NBpch416Pc8VRbE0ydKAocmpzo2uO9nHVHt122lPClq3XpdZT6l/0bjoBNL2AgL/XbVU+yBw/uXFvvmapvENDY/40schtfobjePMGd4zB2CE9XiEM03T+Ef5WCzGobiYz09I+F6FbwbM92f2SU7kG4vF+OJgnuS8vnzfxsTNYhstdG4GK5fLvBbX22rj65ZgnN4+8TMikUaY76P4IYrAt3m4TgJ0YqCi8aZXnjYumy4vX24aJsZx3NnZEeFb3eswz7dn9BAPX+s2oAcXujOPxvnWVnzEt+9uBuqwTNbNhuJuG/8fbow4UdzU64z6+my8aVNdbgv/6tNq7YPPvPn80534W+LRYlz+5tJ1fX82jjPH2cCeOQAjrMfROHRFIpGwjPETi8UwvBlAhwYqGh9YbQSDR0dHljifH547r3XWF7ozH+FsoFLtISmo3ZjksUun0z6fz+/386Tf75+amkqn0/1t1VDDmQMAMObC4fDz588LhQJPlkqlUqkUDof72yoAALtcLjczM2N5mdzr9XL/awe9v9B1ORofqFR7w54UVOTDCwQCll3hJsVd3cUseezoNMriyXg8LrLuuc9vJxYmIi4qEomYG9wosV9LVYgsgE33T7VajUajV65cMS8cDAaj0ajlzBxVOHPMVeDMAQDoiomJiXQ6vbm5WSqVjo+Pk8lkOp12OaY6AEDbxG2Y+/uxx48fp1Ipc47w4+Pj3d1dcy63uvpwoTM/fO68pzr/3iD6eXJP9b29Pee17JP8QkIsFhPJANroIUCmF8L5jYKm9TYtsJc91WVZVhSFN0H8kGM0TnFn2RaXi/FvJZqmmXPptZTfTpxLfNxrtRqXKd7Nc07s56YKsbCb/TNomWZ631MdZ455VwzvmQMwwsatpzo56nfrWlOr1bgnJ14XB+gK9FRnztfJVi+YtVqNk8zxWrFYjANS96uf0YWuC++NO6fr7HGqPef8TFQvKag5oWirWU+ph9E4BwYiLBH72Wic4s6yLS4X42wHYhnxkfl4NWUpk3/74B3eNLFfe1U47B+RP9+MF+jL6209jsZx5jhXMURnDsAIG7doHACgEUTjY6UL0bg5QrZPGr1Ntdc0GrcnBTWn3ROVusx6Sj2Mxi358AxTUNEoxZ1lB7pcjPGvFeaP6i7WiH1hMcd9Yr+WqnDYP42Kbam6LupxNI4zx7mKITpzAEYYonEAAIZofKzYv7YkwxQM7+7u3r592/hueAyCJElPnjyZn5/vsJxgMEhET58+da6LvvtThZhj/6juKi4XI6JUKqWqaiKRuHDhgvio0eqdt7bphripovP90zPd+rN6+fLlpUuXDg8P3377bYfFcOa0unUDe+YAjLCLFy/Oz8+vra0NSDkAAP2ytra2u7v75ZdfdliOyxtF6C/711aXs7hBz7hMcdd0sVwut7S09OjRo5mZmW606//hh5DdTewHncOZAwAAAAAwCBCNDyju7V8qlRp9lMlkdF2n0/TXbS+2sLBARJYBADrEgdyNGzeIaHFxkYhOTk74I24M9w7ohMP+4Y7TXJEFv/sw2nDmOMOZAwAAAAAD4nv9bgDUd+3aNSKKx+OPHj2anp4Wg1FFIpH79+8vLS1tbGxsbGzwzHK5bE797/F4iOjmzZv2xYhIlmVVVavVaiaTWVlZ4clKpfLtt9+KEtprcy6Xu3Pnjq7rmUyGk/kR0fXr12VZ3tzcTKfTHo/n2bNniqLMzc21VIt96xz2D8dyuq6bRyPgEQ4uX77c3qYNEZw5ZjhzAAAAYHx8+umnL1++7HcroKG//e1v1lnml8i7lW5qVFFvRzgrl8vcL1dRFDHoFKeYtqe4q3tM62bCM+exs0xylmwOvZj7/HZEVCwWOY7a2dkx57t2TuznpopGW1d3/3B+PjHMHuOM3H0ZjqX3I5zhzLGUP6RnDsAI62MWN/HCS9sLCJxdsqXazTRNUxTl6OiIr4G4zgCMp+5mcYPBhyxu7etlFrfhMmhprrhn9crKipgTj8cnJyfNc3qmx1nchgvOHIDx1N8sbk2vPC4vTaqqBgKB9q5guq6HQqF79+75/X4iKhQKm5ubmUzG3DcHAMZBt7K4wZDCe+MwgsLh8PPnzwuFAk+WSqVSqRQOh/vbKhh8OHMAwCVd11OpVNurp9Npn8/HoTgR+f3+qampdDrdpdYBAMBwQDQOnTK/mtvflggTExPpdHpzc7NUKh0fHyeTyXQ6jQcOgwZnDgD0hq7ruVxOkqRAIGAZMIITVfJHIpGEnX2xRCKhqioRSZLEz9I5PufJeDzOV7ZqtcqP0HVdj0Qi8XicZ0aj0StXrpirCAaD0Wh0cK6HAADQA8jiBq7wrYYzr9fbSZdj5ypaLdnj8WQyGX7OcP/+fc7gBb2HMwcA+i4UCk1NTdVqtYmJiVwuJ+ZXq9VwOLy4uGgYxv7+/tWrV4vFos/ns6xed7H19XVOdSkuMh9++GEymdQ07dtvvz1//vzr16+3t7fD4TAH7V999ZWiKMlkkohevHhBRG+99Za5Fp588eIF59EAAIBxUCca73wMIRg9PXizt+tVTExM4HXfvsOZAwD9paqqqqpHR0fcz+X69evio/39fVVV8/k8Ec3NzRHRxx9/bI/GXS72ox/9SFEU8RNeMpnc3t7O5/P8i+Hs7OzExMT29jYR/cd//AfZRojk5lke3QMAwGhDT3UAAAAYWZ988gkRzczM8KT53ZPHjx/TaVdzjpnFyI5mLhdbX1/f3t6uVCqcD9LCXG/d1XmBaDTqftMAAGDY1Xk2Pkq5vrvLTZ9bAAAAGBzcObwu7kPuJne6m8WIKJVKqaqaSCQQVAMAgBt4bxwAAADG1/HxsXhy3sliuVxuaWmpXC5buqADAAA0gp7qAAAAMLJ2dnaIqFQqNfook8nouk6nidPbXmxhYYFsb4PXlUgkiIhLs4jFYk1XBwCAkYFoHAAAAEbWtWvXiCgej1cqFSISw5hFIpGbN28S0cbGxuTkpCRJXq83GAzaB1+suxgRcfJzEZzzZKVSEZnYqtVq3RHL+Bm7JRrn5l2+fLm7mw8AAIMM0fhwiEQiInlMewsIuq738gX4eDzOw6t2Yn9/X5IkvlPJ5XKBQKAbTWuoWq1GIpHj4+NSqRQIBIZo9Ff7aeBm/5/FKdF2me7P5EaG9/ABwFmYnp4ul8tTU1Pnz5+PRCKXLl2SZTmbzfIQhuVymR9HK4rCncy9Xi+vKP5TdzEiWl9fJ6KHDx+GQiExmUqlJicnY7GYoijffvutKMT8zfXTn/6UiL755htzO3mSPwIAgHFhmDx58sQyB8yI6MmTJ52Xc+vWrVu3brVRu/PRaboA4zFaWq29vxRF6Vmba7WaLMsHBwc8eXBwIMtyrVZru8Bu/VkdHh4S0eHhofNiLk8Ds7M4JTops41NELp++ADgLMzOzq6urg5OOb2XSCQSiYR5TiwWs8wBgHGwuro6Ozvb71ZA3+DZ+HjRdT2VSvW7FS1zyIjbdel02ufz+f1+nvT7/VNTU+l0umcN6LGzOCX6eJqN2+EDgCEVDoefP39eKBR4slQqlUqlcDjc31YBAECPIRofXLqu53I5SZICgYB4CY3xW2r8kXgFzs6+WCKR4JFaRGdgDpx4Mh6Pc7fearWqqmogENB1PRKJOHR1LhQKkgnP5EolSfrzn/9s6VhetzoH5mLN/xc7R5KkVCrVqNnValU0QFVVSZIikYjo8W6eFHssGo1euXLF3IZgMBiNRoexw7N58wU+OrzTJEnq+ilB9U4zanDILB/ZT3WHtSwbQiN3+ABghE1MTKTT6c3NzVKpdHx8nEwm0+m0eUxyAAAYC+YH5eip7ox621NdlmVFUbiTbTabFcdL0zR+580wjL29PSIqFouGrX+vy8W4E7imaeVymYgUReGqebGDg4NiscgzG+HCY7GYeWYsFisWi6Ic5+qasp+rsizv7OyIzeTeyPZmizm87QcHB1wp92S2t4H7V5fLZXNdvFg+n3fTVLs+9lS37/9EIsFbV6vV+B1I4wxOCXuZRoNDJj6qe6o7rFV3Q87i8AHAWUBPdVar1bjLuqZp/W4LAPQHeqqPOUTjLehlNM5xxdHREU/WajURonC4Ym4VR8KW+MflYpxpRiwjPuL/u3zhlsMhsTAHSPYyHapzZlmS439x78IxNv/uYG+2ZV3nSRHXmfHOb/t1vv6+N26fFPtN07S60XhXTgn3h8zhVHc+0PYNOYvDBwBnAdE4AABDND7m0FN9QH3yySd0OggKEZl7rz1+/JhO+wBzB92NjQ17CS4XW19f397erlQqdUdPddlr7tatW0T07NkznvzLX/7Cc1qtzqWnT58Skcfj4cnZ2Vk63d6Wmm1XdxdxadFotL0yB4qiKF6vN5fL6bru8XiM07DZrCunhIXDIXM41R3WqrshI3/4AAAAAGCUIBofUA55y/iNXMvPKm0vRkSpVOru3buiK3IbfD6fLMsiHv7jH//o8/kaLdx5dZadw+EWby84W15elmV5YWFhcnLS4QeRzo+RhcMhczjVHdZyuSEAAAAAAAML0fiwsiS7anuxXC63tLT06NEj8XCyPYuLi6qqFgqFSqVy+fLlM62Oo0RLXi5+2xmczczM5PN5fvE7Go3WjWO7dUqYtXfIHNZysyEAAAAAAIMM0fiA2tnZIaJSqdToo0wmo+s6nSZOb3uxhYUFIpqenu6wwXNzc0T00Ucf/elPf/r5z3/eaLGuVLe4uEhEJycnPMkbGAwGOymTJRIJUaAFv5M87CRJ0nXd5/Ntb28Xi8W6/be7dUqYORwyh1PdYa26GzLyhw8AAAAARgmi8QF17do1IorH4zz+lhjGLBKJ3Lx5k4g2NjYmJyclSfJ6vcFgUDw/FP+puxiZnjdycM6TlUpFPEWvVqttDAfl8XhisVgymXz16pV49dfeqrrVOZcs4jSxyvXr12VZ3tzc5HWfPXumKMrc3Jy9KDFH/CRhnm9vHj8NtoRzfAgcHvgPjqYbSESJRIK36Ny5cxy+nsUpYSmz0SEjx1PdYa26GzLshw8AAAAAxgqi8QE1PT1dLpenpqbOnz8fiUQuXbrEw5Xdv3/f4/GUy2V+1qcoSrlcnp6e9nr/v/buJ7RtNP0D+CP4HXpZ7MJgQwOZS8mQtuA9tWYOhWYPQw5yL3ETB3LzBBmaQ7APQ7BJQ4ynB+fUgZhYl2JI3PhmsRMWJi1Z2MYdposFyQz1oWAzLVjMwdo9bG7+HR4qNJKsOI5rO8n3cxgiWXr0Snqd6ZP3n59PNH5wPIyI1tfXiejZs2cLCwvGZj6f93q9PJn2ycmJEcSyVLU7nrnNPNjYXirHy7nEFAThr3/9K//81Vdf8XR0vEyrKIp+v5/3PH361HwVo9jGHq/Xay+PvXj37t0joo8fP5rLwJv80Yg79QaJaGlpqVQqCYJQKpXi8Th9niphidnplZFrVXc5y/FGLvrrA4C+i8VixlSmLJVKpVIp97N0XTef0hc9x7TfwllpmhaLxWq1mqqqoVCohz+4AwDAZyKYZ/ba3d2dnZ3tNNcXCILw4sWLR48enTMOt1HzfNEwargtl7M7lkqlvF6vec+Z9OtrdXx8fOfOnaOjo9u3b58z1CXW99cHAJ/DrVu3Hj169OTJkwHE4Tz2TL+EFUUJhUL9/efQeWL2cAsGXdcXFhZWVlaCwSARVSqVTCZTKBR6XnwEAPrryZMnu7u7v/7667ALAsOBtnGAP4lGowcHB5VKhTdVVVVVNRqNDrdU0CW8PgA4J13X8/n86MfskizLgUCAU3EiCgaDY2NjsiwPpTAAAGCBbBzgT7h3dCaTUVW1VqvlcjlZltGGcFHg9QGAC03TisWiZcTNxsaGIAj5fF7TNEEQstksr6Ro9A/nXJo3U6mUMTEHN3fruh6Lxdx7v9tjcthisch7+OrG8cZHoVDIsjaKy1mWG+FCJhKJBw8emCOEw+FEIoH+6gAAowDZOHRFcDXKwXvg8/kKhcJPP/2kKAoP1B98GUbfqL01A14fAHQSjUYjkQgnxmxjYyMcDrfb7UePHj179ow+TXtBRO12mzuHf/fdd4uLi81ms16vp9Pp1dVVDhUKhRRF+e233yRJ+uOPP1yua49JRAsLC//973/b7Xaz2VQUJRqNGpNQLiwsHBwctFqtcrn873//2xyq01n2GyGiN2/eENHNmzfNEXiTPwIAgOFCNg5dabsa5eC98Xg88Xg8Ho8jl+tkBN+aAa8PAByVy2XLnkQice3aNSLyeDxLS0uOZ33xxReSJPl8Pp4MNZfLmUNNTk7yaotnKsnLly8VReHVT3w+38rKiqIoe3t7RKQoiqIoy8vL3K9nenq6m7Mcb+Tnn38m24qVHNbS5A4AAEOBbBwAAACuKEmS/H5/sVjUdd3n8zn+MXF9fX1zc7PRaPA8kRa9jYXhmVyNvxhOTk4S0fb2NhH9+OOP9GnJRkt8l7McbySdTncqcCKR6KHYAADQX8jGAQAA4IpaXl4WRTESiXi9Xsdkm+Xz+cePH5uX8DwnbmA3cIbMXegtH3V5Vpc3AgAAIwXZOAAAAFxRExMT5XK5Wq1KkpRIJBzz2GKxuLi4+MMPPxjt1efHib1lKjVJkno+q5sbAQCAUYNsHAAAAK4oQRB0XeeB39Vq1bH/diQSIdvo63Oan58novfv3/Mmz8QWDoeJaGtri4hUVT3TWY43ks1mjcMskslkH28HAAB6g2wcAAAALiejGdlYlsyyn4iy2Wyj0SCi69evc/pqNEFzCzNvNhoNY+YzTdPOukKYJeb09LQoiplMhuPs7e1JkjQ1NUVE33zzDRGlUiku1cuXLzlCLBZzOcvxRrgx35KN8zF37949U/kBAOBzQDY+imKxmGWZqFQq5b6WKRHput73laV6jmm/hbPSNC0Wi9VqNVVVQ6EQVkbtu/O/o89UjG5qu7sz1VvUNIBLzO/3m3+wbLKlpaVSqSQIQqlUisfj9GlBsmfPni0sLBib+Xze6/Umk0lJkk5OTowIltXLO7HE9Hg8siyLouj3+/n31dOnT/nI8fHxer0+Njb25ZdfxmKxO3fuiKK4s7Oztrbmcpbjjdy7d4+IPn78aC4Jb/JHAAAwZOZFiV68eEGnLVx0lRHRixcvzh9nZmZmZmbm1Gud9V3waivnKFefY/ZwC4ZWqyWK4uHhIW8eHh6KothqtXqLNlz9+lodHR0R0dHR0flDGc7zjka5GN3X28tU0wAukMnJydXV1dGJc4lls9lsNmvek0wmLXsAYIhWV1cnJyeHXQoYGrSNXxK6rufz+dGP2SVZlgOBQDAY5M1gMDg2NibL8lAKAxfLmeotahoAXG7RaPTg4KBSqfCmqqqqqkaj0eGWCgAAGLLxC0DTtGKxaOkLt7GxIQhCPp/XNE0QhGw2y2ucGJ1+OSfhzVQqZQyZUxQlFArpuh6Lxdz7A9tjcthisch7+OrG8cZHoVDIGFx36lmWG+FCJhKJBw8emCOEw+FEIoFexN2wP1LHymBWqVQEE3McQRAajcb5qxOz1AT7AY61nUdactXiIZTmwxRF4Y94MKRjvbVHINQ0ALgCuHN7JpNRVbVWq+VyOVmWe1sjHQAA+s/cUI6e6u5oSD3VjQVOjU+z2Wy9Xm+3261Wi6dFbdu6+/KSJ81ms16vE5EkSeZQh4eHvA5K98UwCrO1tdVut5vNpiiK5m69oihKksSbOzs7lltwPMvxRribMe838F2Uy2X3Ao+gAfdUd3ykjpWh/ef3u7+/T0TJZNIcLZlMVqvVThHOWp34FOMSkiTxz+61nevMzs6OUchqtWq+dPtT9XC8r04R2peupgFcIJeyp3r3/9wavFarxV3Wm83mcEsCABboqX7FOWTj4GJY48btm8b/UJvNJjll4zzTjP10/rnLkbGWmJzJGJc+PDwkIk5yOLF59+4df9RqtYxzXc5yvBEjhzTjgBdxqNuAs/FOj9SlMhjn8pM36gbn88ZH569O/Dcac00QRdFeDMsmn2X+1J7Du99XpwiXrKYBXCCXMhsHAOgBsvEr7v/MqebXX3+NhNzd119/PewiEBFJkuT3+3d2dqanp30+X9vpT/I8fWuj0SiVSvZPe+ulxqF8Ph9vTk5OEtH29vbc3NyPP/5InxZTscR3OcvxRtLpdKcCJxIJnicWOnF8pO6VwTAzM5NOp/f29ubm5ojo7du3MzMz/FFfqtP29jaZakIwGOQ/4nRzlnmO9HQ6zeXpUqcIqGkAAAAAMExD/mvAlXT+tvF3794ZPXWNRjz7C93a2hJF8d27d+aPzvTe3Yth3tPbR13eSA8lHx0Dbht3fKTtrisDjyPgny291vtenTrtP7XWnXpYbxFO3Q8A/YK2cQAAhrbxKw6zuF1IExMT5XKZR+omEomNjQ37McVicXFx8YcffjDaq8+P0zzLBFc8ori3s7q5ETgTx0fafWWYn59XFKVSqTQajbt37xr7+1KduCaoqtrDuZZ5AYcSAQAAAACgj5CNX0iCIOi6HggENjc3q9VqIpGwHxOJRIhofHy8j9edn58novfv3/OmrutEFA6HiWhra4s6JFouZzneSDabNQ6z4IG+4MLxkXZfGaampojo+fPnr1+/vn//vrG/L9WJs/FcLscvt9FoxGKxU8/iqlUoFPgsnh39TNftFAE1DQAAAACGCNn4KDKakY11pCz7iSibzfJ6TtevX+ekwmiC5kyDNxuNhtEkqGnaWddtssScnp4WRTGTyXCcvb09SZI4f/vmm2+IKJVKcamMRaRisZjLWY43wq2vlhyJjzG31kInnepNWTMcAAASZElEQVRGp8pgrhU+ny+ZTOZyuQ8fPphHg/elOj18+FAUxVwu5/V6BUH4/vvvl5eXT63tDx8+JKJ0Os1n+f3+cDhsfMr1xKgtvN9Sbx0jEGoaAAAAAAwVsvFR5Pf7zT9YNtnS0lKpVBIEoVQq8XRTPK/Vs2fPFhYWjM18Pu/1enlC7JOTEyOCZT3nTiwxedlSURT9fj/PifX06VM+cnx8vF6vj42Nffnll7FY7M6dO7ym1NramstZjjdy7949Ivr48aO5JLzJH4G7TnWjU2Uw1ysi4pnbjMHnrC/VyefzybLMzc7JZHJ5eXliYuLU2u7z+er1Op8lSVK9Xh8fHzc+9Xq9xn+Nsyz11jECoaYBwJ/FYjFBEMwzPvaRpmmxWKxWq6mqGgqFzvrXTAAAuJSE9mkrZELfcbuc++zWVxw3aZontU6lUl6v9yJOc727uzs7O3v+L9rx8fGdO3eOjo5u377dl4IBXa6aBnCB3Lp169GjR0+ePBmROAZOxfv+TyNd1xcWFlZWVoLBIBFVKpVMJlMoFHpb3wQALpMnT57s7u7++uuvwy4IDAfaxmEURaPRg4ODSqXCm6qqqqoajUaHWyq4fFDTAGAAZFkOBAKcihNRMBgcGxuTZXm4pQIAgKFDNg6jiDu3ZzIZVVVrtVoul5NlGW0I0HeoaQBXwcbGhiAI+Xxe0zRu/dZ1PZ/Pc7/0VCpl7zdeqVQEE3McQRAajYZjBE3TFEUJhUK6rsdisVQqxTsTicSDBw/M8cPhcCKRQH91AIAr7v+GXQAYMvcBckMcyODz+QqFAjcdrK2t+Xy+YZUEujey1ckFahrA5baxsREOh+PxuK7rPLElEX333Xe5XK7ZbJ6cnHz55Zd//PHH5uam+axgMLi/v/+3v/0tmUzyVBREFI/HW63WzMzM+Ph4LBazR4hGo4qiENFvv/0mSVIulyOiN2/eENHNmzfN8XnzzZs3lkk6AADgSkHb+FXnvh79cMvm8Xji8Xg8HkeCdFGMcnVygZoGcIklEolr164RkcfjWVpa4p1ffPGFJEk+n4/ndOS02WJqaiqZTKbTaWPlBf4hEAh0ilAul/nIyclJXmmSiH7++WeyrRDJfXCMVSoAAOBqQjYOAAAAl5YkSX6/v1gs6rru8/n4L4Pr6+ubm5uNRoOncuyE15jY29vjzbdv3/KeUyOYB7yk0+lOByQSiR7vCgAALgVk4wAAAHBpLS8vi6IYiUS8Xq85c87n848fP3bvKB4IBERR3N7e5s1Xr15xw3j3EQAAAFxg3DgAAABcWhMTE+VyWVXVXC7HbdHxeLxYLC4uLtbrdUsHcrv5+flIJFKpVG7cuHH37l1jf/cRAAAAOkHbOAAAAFxagiDous6juKvVKifkkUiEbGO5HU1NTRHR8+fPX79+ff/+fWN/9xF46jhj8LlZMpns9jYAAOAyQjYOAAAAl1k2m200GkR0/fp1zo25e3mj0TDmUdM0zVhvzLzwmM/nSyaTuVzuw4cP5tHg7hHMJiYmyJaNc3nMje0AAHAFIRu/8GKxmHk11OFKpVK8vOp5vHz5kldzJaJisRgKhfpRtI40TYvFYrVaTVXVUCh00Vd/1XW9y8rQzZGDr13dVKHu7/FMLllNAADD0tJSqVQSBKFUKsXjcSLiRcvy+bzX600mk5IknZyc+P1+Pt74gfHMbZbx4e4RzP/nunfvHhF9/PjRfDpv8kcAAHBlYdz4hbe5uem4NMtQGIuynkepVKJP3f/m5ubm5ubOH7MTXdej0ejKygq3XaysrESj0UKhYG4AuVj++c9/9vHIwdeubqpQ9/fYvctXEwCA8STqvIqhsTMQCBjLLhq/djotxGg+uIcIPp8vm83+61//CgaDxs6///3v2WwWqyoCAFxxaBuHkTPI9E+W5UAgYPwLKRgMjo2NybI8sAL0l67r+Xy+v0eOms9U8ktWEwBgpESj0YODg0qlwpuqqqqqGo1Gh1sqAAAYOmTjo2tjY0MQhHw+r2ka98vlPIR7DqdSKXtP2kqlIpiY43Dfb8cImqYpihIKhXRdj8ViLv2E3eP/8ssvlo7lpxbYwhzW/LOu68VikffwA3EstqZpRgEURREEIRaLGT3ezZtM07REIvHgwQNzGcLhcCKRuKC9lLPZrKIo1MXTsx951pdl0akWaZrGNSQUCr18+dI4/uXLl6FQSBCEjY0N81hN+9gEyxfBUvJO13W8a8eAdBlrAgCMFI/HI8tyJpNRVbVWq+VyOVmW0fUGAACoDQM3MzMzMzPjfkw2m63X6+12u9Vq8Zyr7XZbkiQiajab9XqdiCRJ4oPNr3J/f5+IksmkOVoymaxWq50iGGPhDg8Pq9WqEdaRS3wjjrG/U4Hd2WumKIpbW1vtdrvZbIqiKIpiq9WyF9vYwzd7eHjIFz08PGy32/YylMtlIuLnbODDyuVyN0XtxosXL/ryRTs6OiKio6Mj98O6fHr2I7upXS4caxFfcWdnp/2p5vCr4SfP72VnZ8f4dWSvQo5fBPMxnWpvp7t2DDiYmgAAhsnJydXV1dGJMxitViubzWaz2WazOeyyAMCoWF1dnZycHHYpYGiQjQ9BN9k450X8c7PZ5JyB54kxDjASEksCwzkG5x7tT1mH8ZFLBOMUdy7x7SU5a1JnP5KzOONpcI7NCZ692JZz3TeNZMys1WoRUTab7aao3RhuNn7q0zOO7LJ2nXpp8+vgTNt8AFcV+3sxHrj9I/sXwfG1mq/rfteO36wB1AQAMFzNbBwAwA7Z+BWHbHwIusnGuaFyZ2fHniHX63VeoKVTvlStVo3co91u7+/vc4Nk9xHcucR3jGO/nDvLkfwojE3OkURRdLzcmbLxTkU609M41XCz8TM9vfb56ob9SMsUxMYBllK5XM7xi3Dqe3S5624CnrofAM4J2TgAAEM2fsVh3PiIWl5eFkUxEol4vd6NjQ1jfz6ff/z4sWOSYwgEAqIobm9v8+arV68CgcCZIrhzj29x/stZJnXjgXY8chhOdaand/6XZcEXsvzSISJOiYvFIhGpqkpExp8ALDp9Edy53HVvAQEAAAAA+g4rnI2oiYmJcrmsqmoul0skEkQUj8eLxeLi4mK9XufVv1zMz89HIpFKpXLjxo27d+8a+7uP0Ft8i75cThRFRVE0TTOvBMPpHJyq+6fXr7phV6vVeNkwQyAQKJfLtVpNEAQeWN5pHTvHL8KpV3S5694CAgAAAAD0HdrGR5QgCLquBwKBzc3NarXKaUMkEqFPC3G7m5qaIqLnz5+/fv36/v37xv7uI/QW36Ivl5ufnyei9+/f86au60QUDofPE5NxeywHtOCBxJdA90+vX3XDbGtri4gKhQJfl+dXJyJFUe7fvx+Px9vtdrlcdllS3vGLcCqXu3YMeBVqAgAAAACMGrSNj65sNvvtt9+Oj49fv36dswVu8Ws0GicnJ3yMefklc0ugz+dLJpPpdPrmzZvmNVTcI3TPMb55nSouiePlzM2VdtxvmUwNqtPT06IoZjIZWZZ9Pt/e3p4kSVNTU/aSG3t0Xfd4PJby2IvH8flgIwgvgebS4D/ijGbhQqEQj8c7PT37kd3XLkeOFenhw4eLi4vpdDqdTvMenqjcsoYZEUmStLa25ni5Tl8ELvnCwoL9ui537RjwUtYEgCvi+Ph4d3d32KUAAOjR8fHxsIsAQzWMwepXXfdzqnOqYMzqzNOnJZPJZrPJM2BzbuP4Nvngd+/e2Xd2isDTXHXJHt9eEsfLud+1Y/1sNpvcykqm+bfsxbac6L7Z/jSlNq+zZeD5t/u4/MyAZ3EzP3Pe4/j07EeeqXbZdapF9Xqdm5fNb9+8Hp7B0n/eCOv+Reh03U537RhwMDUBAAx9nMXN/j8OAICLBbO4XWVC2ykFgs+Ke8yWSqVhFwSIO06bRw6nUimv19vHscS7u7uzs7Pn/6IdHx/fuXPn6Ojo9u3bfSnYENVqtWvXrpl7xddqta+++mqIv44GUBMAwHDr1q1Hjx49efJk2AUBAAAYJowbhystGo0eHBxUKhXeVFVVVdVoNDrcUl1uxWJxYmLCMkDd7/fz4uTDgpoAAAAAAAOGbByuNI/HI8tyJpNRVbVWq+VyOVmWzYOHoe+2t7fz+TyPyma1Wm13d9dlLrcBQE0AAAAAgAFDNg4OBFejHLwHPp+vUCj89NNPiqKsra25z1V2xfXl3RUKhb/85S/ff/89n5VKpX7//fdvv/32s5a8G6gJAAAAADBImFMdHHzW4bsjOFWBx+PB8OBu9OXdeTyeubm5ubm5zc3N80frL9QEAAAAABgYtI0DAAAAAAAADBqycQAAAAAAAIBBQzYOAAAAAAAAMGjIxgEAAAAAAAAGDbO4AVwk//jHP46Pj4ddCgCAc/nPf/4z7CIAAAAMH7LxCy8Wi+VyORqNucpTqRQRra+vDzGCO03TVldXl5eX//e//6VSKVmWL9ZCVpjxGwAAAADgchBGIYW7asLhMBGVSqV+BeSlnvEqT6Xr+sLCwsrKSjAYJKJKpZLJZAqFgsfj+XwX3d3dnZ2dxdsBAAAAAAAzjBuHK0SW5UAgwKk4EQWDwbGxMVmWh1sqAAAAAAC4gpCNj66NjQ1BEPL5vKZp3Pqt63o+nxcEQRCEVCqlaZrllEqlIpiY4wiC0Gg0HCNomqYoSigU0nU9FotxX3FH7vF/+eWXYrEYCoWM408tsIWmaZYIjs+BIxeLRY7MH1lOVxRFEIRQKNRoNIzgiUTiwYMH5uDhcDiRSJxaMAAAAAAAgD5rw8DNzMzMzMy4H5PNZuv1ervdbrVayWSS35QkSUTUbDbr9ToRSZLEB5tf5f7+PhElk0lztGQyWa1WO0UQRZEjHB4eVqtVI6wjl/hGHGN/pwJ3Yo/g+Bz4yK2trXa73Ww2RVEURbHVaplvpN1uWy5aLpeJiKMZ+JhyuexesPN48eIFvmgAAAAAAGCBJGEIusnGOYnln5vNJqdzyWTSMQO3ZLCctbZaLd7kPNb4yCWCcYo7l/j2kjhezv3GzYc5Pgf+i4Cx//DwkIh2dnYcTzc2zcm8odVqEVE2m+3mxnuDbBwAAAAAAOzQU31ESZLk9/uLxaKu6z6fr91uE9H6+vrm5maj0djY2HA5d2Zmhoj29vZ48+3bt7zn1AhdTmbmEt+iywK7cHwOPAGeMRf65OQkEW1vb7uHSqfT9p18y4lEorfiAQAAAAAA9AbZ+IhaXl4WRTESiXi9XnMqm8/nHz9+bHTJdhQIBERRNLLTV69eBQKBM0Vw5x7f4pyXc3wOvKKbgTNqRVF6uwQAAAAAAMDgYb3xETUxMVEul1VVzeVy3HIbj8eLxeLi4mK9Xh8fH3c/fX5+PhKJVCqVGzdu3L1719jffYTe4luc/3KOz0EURUVRNE0zLxXOY9QBAAAAAAAuBLSNjyhBEHRdDwQCm5ub1WqVE9FIJEJE3WS2U1NTRPT8+fPXr1/fv3/f2N99hN7iW5z/co7PYX5+nojev3/Px+i6Tp9WcXeRzWaNgy14SDkAAAAAAMDAIBsfXdlsllfnun79OmeS3N+70WjUajU+RtM0Y3Uu8zJdPp8vmUzmcrkPHz6YR4O7R+ieY3x7SRwvd9Zr2Z/D9PS0KIqZTIaj7e3tSZI0NTVlBOeU20i8ef/ExATZsnGO7NK8DwAAAAAA8DkgGx9dS0tLpVJJEIRSqRSPx4lofX2diPL5vNfr5enKT05O/H4/H2/8wHhmNcuAbfcIloW+3dnj20vieLnuL8Hsz8Hj8ciyLIqi3+/nFcifPn1qvq7X6zX+a+y/d+8eEX38+NEcnDf5IwAAAAAAgIER2p9WgYKB4T7VPDE4WHB2/ZmqJc8Dxyk9S6VSXq/XvKfvdnd3Z2dn8UUDAAAAAAAztI3DyPl887FFo9GDg4NKpcKbqqqqqhqNRj/T5QAAAAAAADpBNg4jIZVKhUIhHsV96nxsPeMu7plMRlXVWq2Wy+VkWe5ylXUAAAAAAIA+wgpn4IC7i3dyzk7XLsEVRdnf3+cJ2z8Tn89XKBRkWSaitbU18xppAAAAAAAAA4NsHBx81kHOQx9B7fF4PutAcQAAAAAAgFOhpzoAAAAAAADAoCEbBwAAAAAAABg0ZOMAAAAAAAAAg4ZsHAAAAAAAAGDQMIvbcPz++++7u7vDLgUMwuHh4bCLAAAAAAAAIwfZ+HBUKpXZ2dlhlwIAAAAAAACGQxj6clMAAAAAAAAAVw3GjQMAAAAAAAAMGrJxAAAAAAAAgEFDNg4AAAAAAAAwaMjGAQAAAAAAAAbt/wEdXkNIkEyiDwAAAABJRU5ErkJggg==;" vertex="1" parent="1">
          <mxGeometry width="1327" height="275" as="geometry" />
        </mxCell>
        <mxCell id="fraQmBW8h_pSJzxYigO1-2" value="|" style="shape=image;verticalLabelPosition=bottom;labelBackgroundColor=default;verticalAlign=top;aspect=fixed;imageAspect=0;image=data:image/png,iVBORw0KGgoAAAANSUhEUgAAAGQAAACYCAYAAAASskw2AAAAAXNSR0IArs4c6QAAAARnQU1BAACxjwv8YQUAAAAJcEhZcwAAEnQAABJ0Ad5mH3gAAAdMSURBVHhe7Z09cts6FEa9wXReRBaRJXgF2YAnbfrUadOmzLhylx3ozdHky9wglyQoQOR13ndmMKKugAsQh3+WKPnhYkphIcWwkGJYSDGuQj59+nR5eHhwObHg4C8hPLocXxaFmHOwkGJYSDEspBgWUgwLKYaFFMNCimEhxThVyNevXy8fPny49kdh+du3b5fX19fr8/fv3/9+LUI9ymx+/vz5V19HQ/+nCGFCmfDv37//ilyuIj5//vyHhLh8b9T3mdD/4UKQ8e7du1/P/oY9R2Pg8YhJYu9gTEf0tQb9HypEk83jGhoDj3E87EXPz8+pUF57enq61uf1L1++/I7HNtoTeP7jx49rjI1EfamIpbz3gD4OFaIVZyV7oG4cDxPSxoB8vMbEA5NGHc5JsY02BETwnMOmUJ3IWt57QO5DhWQrvUZWP4sxYVk9nfyzNm0sq7OVdzbk/ieExL2gLRCXRRvL6mzlnQ15DxWiS1lOoj1kK98bi/S06alzb+jrUCE6ofYeg7MJWYvFy+jIWhuxVmcp72zo61AhwGEgnkxbOOFyVQOakEgW+/jx4zXGsV17n66OoCdPVmcr72zo63AhunJp/zAEZPAadSiaJJYhi0GMx0K++JomlUfFlEfnC55rwtfy3gNyHy4EmBAOXzqnUJgQtkitrOIqSzFBO11Wk3dvHg6jLJNDkmAp7z2gj1OEmBwLKYaFFMNCimEhxbCQYlhIMSykGBZSjEUhPLocXxaFuJxXUiHmHCykGBZSDAsphoUUw0KKYSHFsJBiWEgx3rwQbj6gCG5OiDdWvzX+OSHxLpYj0O1Es3jzQjKOFDL7Sz4WMgB7h26um8U0Ibrbj7YMcuvLMvGGM93yn92Exkrrdk4KhyfdxLZ0vlDdLdrD3RpaN8ZCvxqL+lLhNdaRMTF21qm3DyDHsBAGwQCYHFj6soxusNa3qBjs2hdogOfE6aOtE3NHslhGrxBkaENhkiUC2r7imFg31rldpzVoNyxEW3iE51pZlrPXe2LkiCvU1snaZLERyMUGIbSHQNaXYsjbC+2GhcStoi0Ql0VvTLCF6rAR62RtstgI2kvZ8NpJnt0/7YaFbA0ge703Bhy3kc6d8m2drE0WG4F+40anO+Mh6yuL9UK7aUJGviwDWUyHQx3D2zpZmyw2A50PyC0ps/un3bCQrS+1ZAO8Nbb1HLLYCOSKhyp9bQGyvrJYL7QbFqKTXFvYquNrUZZiLC/FQIcKcsVDFnX25MlgA9KFxxrkop72Up3PQOOjL2Kx/1ug3bAQYJAMmrbs1hq8BqeyJwbaGsnNyvKo/FmbLLYEuShbkEcTzrJkQDs+9UtB1l5oN0WImYOFFMNCimEhxbCQYlhIMSykGBZSDAspxhQhvX/x8pds9gnfLfT2+dY4VIjeKd2bP+NWIbyfNqP/ezFFyB5mCbmV2XeJzOZ/JYS9Q+/OVmVYyNp5gQnQB0y8nn3i19JzKMr6bGPaE3iud57Jq/63xnEWjGlICCu8tHK8xnlDn4NIzlr+HiFZnzG296dgK8HYhoRAtpLaQuPHujqh7s2fkeXpiWV1KsHY7iJEV1QtWd1byPL0xLI6lWBsdxGSxWApvpcsT08sq1MJxmYhhWBsdxGiO1H4zDmS1b2FLE9PLKtTCcY2JCR+sM+y0BVOvOzUPb+UeOUT6b3sbfuMMV3VxYsI1dPVGM/jzQpVYGxDQrTCKhFE6OTOI5PAhHD5qwlq6RGS9dkba+8SqQZjGxJi5mIhxbCQYlhIMSykGBZSDAsphoUUw0KKYSHFsJBB9H7ZLCxkkNl3sVjIAOwdevd4FsNCeMd0624PwQrEGx30uyGwlId3iZVHbWMsQg59D5A8+r2VJXreWRbKW/63TuhYg9n63RLqskLAwHmugcc8+lBrz2+iKB/SoOefCPcKQYY2AMYqEcCjliGux2m/daIBRNqYJoiJE5pwTWLbBnpj2nsiPN+zdS5BnjhultUXj1m/FOTthXaHCGEraeswYGJsVdC2gd5Y3DLbMorGjvR2krM+Rvql3SFCsjoQ41mdkdgs3uxvnUTamFYo7vpATMfYtg3sjS393soMdD6gH0lZG8st0O4QITrG6+QMOmTpaqhtA72xrd9bGYG88VClz+UhG0sW64V2Q0J0gqNo0JpoivYIYuwlFMWQpL0jyxNjapPFIMZjyS6PRe9VFnmop1w8SnTc84nFcdwC7YaEqHOVpRgwWG3JlHiSjPUpe2KCiWLiiCN6TQbsEaIJZznuddpbyNNuFMjaC+2GhJi5WEgxLKQYFlIMCymGhRTDQophIcWwkGIsCnl8fHQ5oVhIsbIoxJyDhRTDQophIcWwkGJYSDEspBgWUgwLKYaFFMNCimEhxbCQYlhIMSykGBZSDAsphoUUw0KKYSHFsJBiWEgxLKQYFlIMCymGhRTDQophIcWwkGJYSDEspBiLQlzOK38IeXl5uQZczis4+C3E1MFCimEhxbCQUlwu/wEGjJ2x/YgBDwAAAABJRU5ErkJggg==;" vertex="1" parent="1">
          <mxGeometry x="100" y="680" width="100" height="152" as="geometry" />
        </mxCell>
        <mxCell id="fraQmBW8h_pSJzxYigO1-6" style="edgeStyle=orthogonalEdgeStyle;rounded=0;orthogonalLoop=1;jettySize=auto;html=1;" edge="1" parent="1" source="fraQmBW8h_pSJzxYigO1-3" target="fraQmBW8h_pSJzxYigO1-5">
          <mxGeometry relative="1" as="geometry" />
        </mxCell>
        <mxCell id="fraQmBW8h_pSJzxYigO1-11" style="edgeStyle=orthogonalEdgeStyle;rounded=0;orthogonalLoop=1;jettySize=auto;html=1;" edge="1" parent="1" source="fraQmBW8h_pSJzxYigO1-3" target="fraQmBW8h_pSJzxYigO1-2">
          <mxGeometry relative="1" as="geometry" />
        </mxCell>
        <mxCell id="fraQmBW8h_pSJzxYigO1-3" value="" style="shape=image;verticalLabelPosition=bottom;labelBackgroundColor=default;verticalAlign=top;aspect=fixed;imageAspect=0;image=data:image/png,iVBORw0KGgoAAAANSUhEUgAAAKsAAAEOCAYAAAD2TufwAAAAAXNSR0IArs4c6QAAAARnQU1BAACxjwv8YQUAAAAJcEhZcwAAEnQAABJ0Ad5mH3gAACGSSURBVHhe7Z0xsu04EYZZCCl7mDVQRcYiCGcBLAE2wAYoUnJigklICQnJ2MGjvpn5pnp6WrbsI59rv9tflerYLaklt35LOj6+7/3qS9M8hBZr8xharM1j+JlY//znP3/5/e9/36nT7RL8TKwYf/3rX/+iYKdOH5W++eabL7/61Q8y/YVYSU1zF/72t7+1WJtn0GJtHkOLtXkMLdbmMbRYm8fQYm0eQ4u1eQwt1uYx3Fas//3vf7/89a9//fK73/3uR8sP/PGPf/w+NWuo4jyK/UfzYWL95z//+b3oaJzE8b/+9a/vA8X5H/7wh5/yIleJ9X//+98v2jrC3vWs5NW+Rqo4j2L/0XyIWBlIAvLvf//7R8sPd/Pf//73nwXpnQGz7TPMXs8qXulrRdXHK/r9Km8XKwO7tbwwQ/3UoTcFjJmKPp1p68j1rOCVvo6o4lzZPpq3itWB43OLnzqUAra1lyLvT3/60/flyf/HP/7xkz3WcVbi/D//+c/3NgRnWyYZ+YWj1wOIjf7Yzl/+8pfv24CzfaUeZSmHf2Z5yslWm6A9UtlgFI+9PqzgrWI10DFQW+SAEYhsA/yRx4AAAaQMe8ZYR1Ex8JwTULFMZMsvHL0ewB9iAf2T4oxJOtLXXI/+xfJbbUL2B5XtSJxzH1bwVrF6MbNU5Subs0aEc+/sqk62VWXO+N3CwY3iZmCxKYDKZ7ZtlVGAsqpNmI1H7sMqvgqxxrs6J4jHkm1VmTN+t2CmyeUZWGy0BZXPbJspI6vahNXxOMpbxWrgZu+86uJnbZGZOjNlMiuuB6K9KpNtM2Vkxl6VmbVF9vJf5a1i9QuDe749qovfssVHR5GtOrJVZuT36PU4M8UlGbC5v7PNSLbNlJFVbYK2I3FeyVvFCgTPIFXwhYJvm1BdfGXjywM29k7OcgzOET9VmT2/cOR63PP55QlcktlbQtWPbJspI6vahDNxXsnbxcrFOcD5DmVgyaMMyYvnGCobRHtM+It5BtjBIuknzkAGf8uvUGbmeoB2OY82xKTYY3tH+hrrZY60aX5lg2iPKcf5Kt4uViCALKEEzAskmNy5CkG7aWQT6nHHY8fvUT8s5RzjIw7QyG9k5noE385QJISjMLWZRrbc15hPu5kVbcpMnKs+rOBDxNo0Z2ixNo+hxdo8hhZr8xharM1jaLE2j6HF2jyGFmvzGFqszWPYFCsZnTrdLcEvxPqb3/zmy7ffftup0y3Sb3/727FYexvQ3IneszaPocXaPIYWa/MYWqzNY2ixNo+hxdo8hhZr8xharM1jeJtY+QM1G1pF/AO9CH/QRrojV/bNfyrIP+LjDwOv+uO9WfhjRcaJv/zlDx3pT/yDzCO8Taz+gxCrqcT6WfHmvQtMUIgz/psFHGPzr2uP8Bax2ukW67XcLRb8mwbVKsJN5b/NcIRlYkWQ8W/T6aTTPcfaqySVbcsv5PLkVcuf5XKy3F47W/iv8sUkDIq27777ruzbK22D9XIS/NOudtrSP5+ses52CMn2Y19dGcmP24xsE+qT57/6Eqn+ZcMZlonVJYgO0HEvQji3IfBios160XbUL8HNNuA8BsfgG+S9dvZwABjoDDb3a5QhRV5tWyrfQLsIFGiDcxLijH3ipqOftB3t2MCbknyX9lF/c3wj1qHMEZaJlQGJHcapjiGfw4xtld8Im33y412/184M+KAOIhCOsUvld0XbUNWrZjFFx8wI1ov9Bu2RWZuxqKAd8o5uBZbvWblr4tIn+RxmbfCqX3FmGQVq1M4M/rM+igAQizMTbPl9pW2o6nETZJtiIQ5Q1YPK/ootspdfsVSsLDUEwJkrdqbq3KxthV/hjneQMlvtzEL96D/OqjDyu6Ltqt7IV7TPlJFXbJG9/IplYnWzzewAuTP5HGZsq/wCgsCur8heO7Poh6UWX3lfVvld1XZVjxsAW9wGADa3HlU9qOyv2CJ7+RXLxJob3zuHGdvRc6hs7tPiPjWS61Q+ZkAU1EMIiPDMPrAqM0NVL9484jbAWFT1oLLP2tzO5OsX8vKqs8cysXoHMzvEpcw7Ot7h7hfdT1EeFBTJu37Lr8LwHCobdTnP+1TLwl7/j+CXi1F72e+Ktt0vk4wnIBb8k/SHgI1v7FMk2hVctOmrssGtnwYYLAaKTvNJQOxszgfyHCg7zjnBtMyWX+wxQWWzjVGCvf4fQV9RNBDbJMmrbWe/JsGnWyBSnPFjeeIk0U46YgPa5DzO6OKkRJkjLP2C1TQRVpa8ugA3Y2Xfo8XaXIZbkDi7sopgG+1lt2ixNpfCUo84ESnbIrY3R5d/abFOQIBm0hVU7VTpzjCLuiU4K1RosTaPocXaPIYWa/MYWqzNY2ixNo+hxdo8hreJlccXNrQKntnhM/vlFxLSE3j3NbwyDjx2or88L/Xh/iuPoo7yNrH6YsNqqoF+Gu+8hrPjUP0axfHZX6PO8BaxeqFXDMg7B/oq3nUNr4wDD/SrmZ6Z9szv/GdYJlYCEd/s4cJcIjjWXiWpbFt+IZcnj7eKGJSI5XKy3FY7fDIjOYswQNXAbUE93y0l0ZZok9E1AHmIg/Lk+05qruMMyrlvb1XjICO/QB726l1gbORR5mqWidW9F5329T1swrkNgQGItvjanxz1S6CzDTiPAXUwHcitdqJPlj72a7EPM+AjCpz6nutbRtdA38hDlKBQ3D9ax6V6Jl6w5RdyrCK2QZmrWSZWAr8VlHwOM7ZVfiO+4Bxnitl2mCGP4owabxb3e5DbgsqmnwjnI9FDtlVl9vzymfOFeJD3jq3A8j0rd5rLSbzAfA6zNnjVrziLjIJ7pJ1ZnPVGVL4rW5w9c4J4LNlWlTnjN7KXv4qlYmUfxoU7c8ULqC5o1rbCrzBL4KviaDuz7NWt8mdtkZk6M2Uyr+avYplYXUrc1+QLyOcwY1vlF/wCpa/ImXZmceZyD5ipfG/ZuJkqturIVpkjfiN7+atYJtbc4b1zmLEdPYfKxh4RW/WNFnKdvfMjeJOwJ3bPy03hHrnyXdn0w+qgH7Y1bmlm/FRl9vy6LRrt1617NcvE6uzBIMRl1C8V5scgMFjYvKMVFMmB3PJLiudQ2ajLue2KZWG2nTNQX/8mro92om+OLZ9tEO0x0eeYp6j41Kafahy2/MJX9zSAJQ5H3GFcPJ8MiBeY84E8g+fFcs6SbJktv9hjgsqWhZITzLaDrzPo0za8QaNv0sgm9Ec/Mb5VncpWjQOM/ALlsPtILOIEE31dxdIvWM3XC7NwXpkAgVf2K2ixNlOwpWBVibMrszS20V52NS3WZhqWesSJSNnGsF14x/IvLdYXIHAz6WuCWdQtwTuFCi3W5jG0WJvH0GJtHkOLtXkMLdbmMbRYm8ewRKw8b8OJjppr4Nci0h6j8eBRE3k8I/WB/rsfP73Cspm1xXov8nhUv0Bx/M5foF6lxfqVkseDh/jVrMxM+67f9l9luVhZVrh4jglE9VaQVDawPu9Z4i/mMwv4orRlhDzfzSQxOC5zfPJmlzMJfZtZUiHWBdtwSY1U/VvVB/zah0hsk3z6ZPtAXY6rd3n940D7eGeWi9VlhosncAbCgNkYIORsQ6gKnEFgMGM+PuMAxwHnmLK0pW9sYF9I9JE9m3l7WM+6oNiwRcHSjjeQMSBR/pU+xLoZ8vBDGxBvFuAG4Ti+9ifGyVc078yl2wDvcAevKpNtHDPIosjBQYj57rsA0cbBr3yTHNQjZF+A2LC5jFazFP3DRt9BP6v6oBDjDYPvWDbf8BHLPmErcPmeNdqrMtnmbMXg5gF1dtmD2cKtRCyfz48wqhvt9j2iGLyhYvmjVHWrNiGWrepF9vLvwu3EygwRl7x4x+eyFczi1M/7NpipP2JUN9pfKTNDVXfkL9pHZWQv/y68RawuzVWZUT33c+QpWEVMXoXbBPdm2Xc+P8KoLjavz/7FbQDEMiM/M1R1R/6ifVRG9vLvwqVidU+X92uRbOM4Lv/6gPgt3DIIcySEvfMjVHWdvf1y4s3ilzBwG+A38crPLFVdY5Jv4FjWLVHeVgl58UvrXVkmVmcVB4XZBVtcxp0p/TLglw9SFByBc3Z0/wn6tI719GcedeI2gHokz89gXW88Bp5+0qZg45zk7Ep5r+2VPsS6+gauFRttGjO/6JFou58GFBAkBUOQFK4QGPMNDucMqANAHsfOBlHsQJ7fbvlUqOAsjN1y9MMBMdHmUaxLG14Ds1qerWjX2Y7EtVlGG+loH2JdUoTr4zqx80kfYlxJ5MUZX5wwKHN3lor1a4YgGagnwk2fb3zghq7sd6TFOsnTxeoWJc6urhJ5dbgrLdYJXEZJT1guR9B3xIlI2T65ZXgKn16sivBIWk3VRpVWwCzqluBpN17PrM1jaLE2j6HF2jyGFmvzGFqszWNosTaPYYlY/alPR03DYzF0wfNcf3x49VHZspm1xdpI9WsZx6/+WtZibZbDDw68c5Bhpn3lPYTlYmWqp0Mc0zlfSzOfJJUNrM/bS/iL+dyZvE1kPcoIefGNJ9++Aj5508u7m75VAa2IdcE2XOYiVf9W9QG/9gE/+OfcGMteHyo/caysG20RfDhG+Ilv15GHPb9xB766aF+OslysTv10iAuxc16EjQGByDaCYIAIOoMZ8/EZBzgOOMeUpS19YwP7QqKP7KPM28N61gXFhi0Klna8gYwBifKv9CHXhXyNMtsH2gf86WfPt/4QNChAfSl+xzCiT8qc4dJtAIOIzcBVZbKNYwIiHJvvHR/zCS7BA0Qbg1v5JjFoR8m+gAHC5tJWzRwKwcHVz6o+ZNuRPkRmbY5BhHMnjDy5RLhm8ozXUS7fs0Z7VSbbEBvnBCUPqLPCHtzBLlOxfD4/wqhutNv3iAPkDRXLH6Wqm21n+zBrcwyqBPG4Yi9/i9uJldk4BiTehblsBbM49Z3VY/mZ+iNGdaP9lTIzVHWzrSoD0V6VecUWeTV/i7eI1aW5KjOq536OPAWriN0fZVyi3C9l3/n8CKO62Lw++xeXYIhlRn5mqOpm29k+HLXlL5ZS1Yns5W9xqVjd0x3ZK3Ecl399ALMmxwTdMghzNAh750eo6jp7+4XBm8UvKeAS7Lfjys8sVd1sO9uHWZtjwN7UMeDGcEJx+xXHMGLdMywTq3e0AeECsMVlHFFRxrvSjT8pCo6LcXZ0/wn6tI719GcedeI2gHokz89gXW88BoN+0qZg45xEe0B5r+2VPsS6CoFPbbZ3pA/6iTbrVDaI9pgcr0c8DQCESpBwSHAUrtBZ8+0w5wTTgJDHsXdoFDuQ5zdOPuNy5CyM3XL0wyCZaPMo1qUNr4FZxgEX2nX2IXFtltFGOtqHWJc0ssFsH0hHbEI8HQPjK7SNPc7s4uREmTMsFevXDEEyUM02TDB5kgEEXtlnabFO0mKdx61InF1dkfJKdIQW6wQubaSzS9hngzghTkTKVo3twqux+/RiVYRH0mqqNqr0NJhF3RKsuMl7Zm0eQ4u1eQwt1uYxtFibx9BibR5Di7V5DI8TK49D7PBHw7ND+pL7wy81pNVcde08VuJaeB7qw/s7Pk9+nFh9UeIuVGK9iiuuvfq1ieNXf226gkeJ1cB+RrFede08sK9WAWbaV37Hv4KlYiWgvOHjAPLmT6TKd7nhkzwGBJxFOPetHt/0iQnwG98yolz0iy9nCgbh6BK9dV3aJF9HhDwEQHny4+uUZ68dRn7FPONtXY9zecBGHmXuwlKxEqgohCwM8h1ogsA5CTHwSUdILkm+2ocfsUyEfGz4zHWyX/Zk0d8M+Bhdl74lthfxehElKIb4yiHp6LVv+QWEquCJs6IHbwrzI7ZPmbuwTKzOPPFOdO8D1Z1KPjYDzbGdkWyryjAAW4PqOYN1lL3rym1BZdNPhPOR6CHbqjIzfmPfObZ8FG6GWJF3p63AMrE6O4xATDnfgBwZ+KqMMBu45M3W2WPvuirflU0/VYJ4LNlWldnza9wRdb5ZY7mKvfx3s0ysZy882qsy2VaVAbYXDFz8cxYZ1Zlhr26VP2uLzNSZKZMhHlHQcabcq7uX/26Wz6zulTLmxyUJsLmEc2xnJNuqMi6F7r1m6syyd12V7y1b/DOcyFYd2Soz8ivu1SmrYCt/kb38d7NMrH4bJyAuN4hHISoov0CA2wC/jXJsZyTbzpTJ50fYu67Kd2XTD/tE/XDjbgkn26oyM361A6LVh1ummB/R711YJlYCFJcbEgPqHU9AyCc5uyJgBx2b9Qwen9qsE2doB0QbIorbAMpEv2eg/ui6om+OLZ9tEO0x0eeYd/Tat/wCxwjOcz6t+2mfBgCB8xsmn3lpIt+ZgBQ3/dpMI5szA/4dxGzjE0EZcBODfYbRdUXfpJFN6I9+7B9UdSpbde0w8gvYKOssqlABO7a42olPamI7H81SsTbPA/FGAQvir+wfSYv1k8PKxooTZ1dmcGyuenehxdp8v9QjTkTKFoetxJ2Wf/m0YuWiZ9JngVnULcEdhQo9szaPocXaPIYWa/MYWqzNY2ixNo+hxdo8hkvFyvM6nNvAFkfKRvwN/TPBr0ukPUYx5dEUeTxT9QeAuz6uilw+s1bBGnGkrPgyRlOTY1r9YsXxHX+xyjxarAb+SJ3PRo4pD/2rWZmZ9m7vAmSWihXx+N4qImKZycFiuSEolvFdVshlZVTHN41iAvoR3+6inMscn8zGziQM0sySCrEuxHdd8xtmMRYkyq7qA37tQ2Qv/tTlOMZcqr+RuxtLxUqACDxBgzhYQCAogx0MEPsmiGXlTB36gI26viaIDfBlHZY//Ji3h/WsC4oNWxQs7SBQ8BpIlH+lD7Fuhjz8jOLvlim+QijGiTJ3ZZlYDUQcMIKGzQYMXoRzZ5VYVs7UIS8Ofi7juYN6hOwLEBs2l9FqlkKU2Lzp9LOqDzPxJy65nlj2zluBZWJ1dslg0x5nhZwgHsuZOsJs4fYhltmqs8eobrRXsVAMXA/E8kep6s7Ev6oX2cv/aJaJdXSh0T4qI1X+mTrAEoww8r4NRnVmGNWN9lfKzFDVHfmL9lEZ2cv/aD5ErHGpisSycqaOWwf3ZrlMVWeWUV1sbj1cDeI2AGKZkZ8Zqrojf9E+KiN7+R/NMrH6zdgvPhIDYBn2Tu7VGFD3SbGsnKmTbXvnR6jqOnv75cSbxS9h4DbAb+KVn1mqujPxd0tkHDPk+V3gjiwTq98mmVWc0fyiQWJGQWSex0T5mBdnpK06EGcxBayNMnEbQJno7wzW9YsSA88A06Zg45zktVDeWfWVPsS6+oaZ+PfTgAAXTFAMDsEkeAyUgaWM30opY+A4jykyqgN+EyffNrKNT+vpnxQFNot1aYP6HDOr5dmKdp3tSMTAMtpIR/sQ65IiXN9W/EnkxRlffFpBmbuyVKyfAYJlwJ4Iq48rUIQburLfiRbrQZ4uVrcocXZ1lcirw91osR7AZZR05+VyD/qOOBEpe3q3DHenxfojivBIWk3VRpVWwCzqluApN16LtXkMLdbmMbRYm8fQYm0eQ4u1eQwt1uYxXCpWf/qzgS2OlI3wCOZonavh1yDSFfh7vz8581Pq0Z9sV8OjL8aPZ7b+wHDF47DLZ9YjAjxSVnw547PgTX0Xql/EOL7iF7FHi9VAHanzdI7G6Gr4UaFaRbipVr9rsFSsiIdlCYeIKL6eJywPXIRlfL8TclkZ1SFI1ol16Ud844lyLkt8Mht75xPUmSXbt5JiEvtG+u6778qleatPM1gvJ4mxJ9HW3jVjj311lSI/bjOyTahPXhxDcbty5Br3WCpWLpqLIiAQgwd0nDLYwQtinwOxrJypQx+wUdfXArEBvqyDAPFj3h62XYkbm/s1/Ue2+nSEyjfQLgIFY0ZiLEbXHO3G05uSfI5h1F/FnUUM1qHMKpaJ1Y4zmwqBwmYDijfCuYMfy8qZOuTFwOYynntTHQHfuS7H9gdye7DXp1mqetUspui8ya2Xr1l7ZNZmLCoc+5VbgWViZSCqjmPTHu/knCAey5k6wt0dl2jZqrMHMxB1FQEgFmcm2PI/6tMsVb0q9oqF+EFVDyr7K7bIXv5Rlol11LFoH5WRKv9MHWBJZKCqffOoziz4VQQQZ1UY+d/q0yxVvZGvaJ8pI6/YInv5R/kQscatQiSWlTN13Dq4l8plqjpH0D9LLW3kfVnlf69Ps1T1uAGwxW0AYHPrUdWDyv6KLbKXf5RlYvWbblwOIXbYMsxE7p0IsPuaWFbO1Mm2vfOj0D71EQIiPLMPrMrMUNWLN4+4DWCLAlU9qOyzNrcz+fqFvLzqvMIysTJj4Ii73NnDjT+JgXWQc6J8zONYtupAnFUUsDbKxCWXMtHfK/jlwjYl+udYtvo0i/tlUlxpEAv+SfpDwM6qo2uO9jgRaNNXZYPHPg0AOuhmX3ESQALnRVLGgaaMF8p5TJFRHXAAybeNbOPTevon0bez2EbenkT/JNnq0wzZr0nw6SpEijN+LB+vOdpJR2xAm5zHGV18GuGYrGCpWJvPBytLXl2Am7Gyv0KLtXkJtyBxdmUVwTbay56lxdq8DEs94kSkbIvcAq6mxfojBGEmXUHVTpXuDLOoW4IrhAot1uYxtFibx9BibR5Di7V5DC3W5jG0WJvHsESsPFfDiY6EXzFIs/D4I/u4kpXtjWLwKjwGwjfPL33YftWjobuzbGZdMVC+GPEuVre3IgaR6tchjq/4degJ3EasDszKwd7iivZejUGGB+zVysRMu/p39ydwmVhZqnjzB0FkCDRleUuIchwzKPowAaKKbxNRzmWQT2ZHZxoGcXbbMWoP8OU7oiT7GYllaD++9iczfqpYgMe+jxqp/ubqM3CZWJ21og0YHF+LYzAVDVTl3QsyML7ihw1iGyyP7OnMm8G6GfwiHqBdzkn0VzinLW1RlLLnZysW735X9Alcug0Y2eKMwLFlqvIMYBRgLuN5FNIs2RdUs5bvZiJIUEj5Bejob8ZPzo+xiMLN2NZn2wq8XazOlAxYFlhVXphNXDJjma06e1R17V9EcTArQlUGor8jfo7GAvbyv0beLlZmIwbLvDg7VOWBpZQ61b5wVGeGqu7IX7SvKnMmFrKX/zXydrGK+0vyHaSqvHtB9265TFVnlqqu4onLM2Cjvx7nehDtM35kNhaRvfyvkQ/Zs8Ylj4GyzKh8tO2dH6Gq680Rn226fPvNnJmec/oeif5m/HA8ioVbnrw9EPLY134mlojVLwYkZ5LKBpwTZGdK96IQZ6Nso1zcBlAmtnGGqj3EgZ1kvxFenA3pC/Uo43X4hYpE2Rk/lB3Fop8G/JIlYsVBTCMbcKw4OHZwwJmFAXSAs41PBtwBMyGKo1TtAcfOniRElmc42nfp5pM69IGy+trzg40yVSywY4szs/hUwXY+C8u2Ac16EG8UsHBzVfavnRbrjXErEWdXVgNseab/DLRYbw5LPeJEpOzZ3XJ8Rr5KsXJBM+kpMIu6JfisQoWeWZvH0GJtHkOLtXkMLdbmMbRYm8fQYm0ew4eL1Z8s7cST4Jck0hX4roHvBvBT7ZmflFfCYzPGi+e9/jjxzkdpt5hZnyrWK/EmvgvVr2kcv/PXtBbrTblbTPhBolpFuKne9Z7CUrHSaZzxphHLg4658+LbR/ktJ+3gG0Uxif5JLI9bfvnkFTrvfII6s2TPtt//R+sPuF05co1nWSZWBtKLJFAESccEwAuiDMfYhHPLggGoxIWN/RJs+WVg9IsAqRPb3GKm/eg/snets1S+gXYRKNAG5yRiPrrmaDd23pTkcwyj/t7l3dplYsVJvLs41jEDHAOA3TzI50AdbAyCeBPIrN/oY5aZ9nN7sNenWap61Sym6JgZwXr5mrVHZm3GooJ2yHvHVmCZWBkgHBG0kTi4C+NSKvkcmAH0JwyWM0PkiN9ZZtrf8j/q0yxVPWMcUSzMnlDVg8r+ii2yl7+KZWLd+ktNYOkiP/5piuRzobyDAHFWkzN+Z9lrf+R/q0+zVPVGvqJ9poy8Yovs5a9i6RcsYOZxBlCwbt7d8+SLy+diPZY66uZ90Vm/s+y1X/nf69MsVT1uAGxxGwDY3HpU9aCyv2KL7OWvYumeNS7/LqOQL2bvXNz3MhCIYG8ftnd+lKPtQ7ZVZWao6sWbR9wGsEWBqh5U9lmb25l8/UJeteqtZqlY6bAzCp/OrM4I2OLSiBgUhOcZN/d5WwGzfl9h1P6o31t9msUbnYQPQSz4J+kPATurjq452hVctOmrssFX+zTAuzAOrsFn4CnDJwH2QmPKWDcOmsz6ZXDPMmo/+ifJVp9myH5Ngk/2xNrjjB/Lx2uOdtIRG9Am53FGF59GUOZqlu9Zm68TJp9qdeNmrOxX0GJtpnALEmdXVhFso73salqszTQs9YgTkbItYnvzjuVfPp1YudiZdAVVO1W6M8yibgneKVTombV5DC3W5jG0WJvH0GJtHkOLtXkMLdbmMXy4WHlWRwfsxJPg1xvSaq7yOwuPpBgXnqX64P/dj6kqbjGzPlWsXyPVL1Ucv/OXqhEt1uZn8LC/mtWZad/1DsCIpWLlYnDGW0EsGzrmjoxvChGMuKxoB9/iiUn0T+Itpi2/fPLamjMCwZ5ZWmfbv+qvWylb+YVRfIF2fd81loHs01f+OI9vg+nTd2Mj1d9/vZtlYiWQXjiBY5B07L6UC/X1PWzCuWXBwFTiwsY+Crb8MhD6RYDUiW1uMdN+9B/Zu9Y9Rn634gvUQ6BA25yTKBt9urxXfbvLe6sjlokVJ/Gu41jHBDYGBbt5kM/BwSDY4iDJrN/oY5aZ9nN7sNenGao6nI/iW816rhDMqMCx5SXbvOYKrp08bpqPYplYGSAcEZyROLg741Iq+RyYvfQnDIqzauSI31lm2t/yP+rTDFWdrfiaF1FczKpQ+cy2qkxkL/9qlomVxxxxucl3IEsU+ZTLF53PhfIGG+KsJmf8zrLX/sj/Vp9mqOpsxbcqD9Felcm2qkxkL/9qln7BAmYe73QDymzAuXuhfNH5XKzHkkbdvF8663eWvfYr/3t9mmGrThVfRRy3AYCNsh5nn9lWlYns5V/N0j1rXJ5cRiFf5N65uC8j4IggL397fvL5UY62D9lWldmjqsP5KL7xphK3AWxdgGPLS7a5bcnXKeRVq9u7WCpWLsQZhc9852OLSyNiUBCeZ9z0x2VPZv2+wqj9Ub+3+jSLdSKcj+KLuGiXZDsI2Fk19lUhKmaSdT7d0wDvzji4zgIEmzJ8EkgDEFPGugx8ZtYvg3iWUfvRP0m2+jRL9gmcj+IL5LFXtm5cCbSZRjZ8cBxnaPHpAmU+iuV71uZ1ooDeDTdBvhGAm66yv5MW6w1hQFzC341biji7slpgc6b+KFqsN4GZC0G4hfGL0UfAUk9fECnbH26cj1z+5dOJlYudSVdQtVOljxSqMIu6JbiDUKFn1uYxtFibx9BibR5Di7V5DC3W5jFsivWbb775vkCnTndI33777VisZHTqdLcEPxNr09yZFmvzEL58+T+g9aEvdyR7TAAAAABJRU5ErkJggg==;" vertex="1" parent="1">
          <mxGeometry x="20" y="320" width="171" height="270" as="geometry" />
        </mxCell>
        <mxCell id="fraQmBW8h_pSJzxYigO1-9" style="edgeStyle=orthogonalEdgeStyle;rounded=0;orthogonalLoop=1;jettySize=auto;html=1;entryX=1;entryY=0.5;entryDx=0;entryDy=0;" edge="1" parent="1" source="fraQmBW8h_pSJzxYigO1-4" target="fraQmBW8h_pSJzxYigO1-2">
          <mxGeometry relative="1" as="geometry" />
        </mxCell>
        <mxCell id="fraQmBW8h_pSJzxYigO1-4" value="" style="shape=image;verticalLabelPosition=bottom;labelBackgroundColor=default;verticalAlign=top;aspect=fixed;imageAspect=0;image=data:image/png,iVBORw0KGgoAAAANSUhEUgAAAaIAAADlCAYAAAARIfMPAAAAAXNSR0IArs4c6QAAAARnQU1BAACxjwv8YQUAAAAJcEhZcwAAEnQAABJ0Ad5mH3gAACDoSURBVHhe7Z09svS20Ubl0IFTJ16BN6JMmVPnDr0AV3kD8ga8AZUdKlesVIEThSpHzryD+9V5/T6qFj6ABDn8mbn3nCrUkI3uBojh7SZAXs4XbyIiIjdiIhIRkVsxEYmIyK2YiERE5FZMRCIiciu/SET//ve/3/7whz9YLBaLxXJq+ec///k58zSJ6F//+tfbF1988fbll192DS0Wi8ViebT85je/efvrX//6OfMMEhGfIiIiZ/D73//eRCQiIvdhIhIRkVsxEYmIyK2YiERE5FZMRCIicismIhERuRUTkYiI3IqJSEREbsVEJLfyn//85+2bb755++qrrz5L/sdf/vKXT0X24fjJK2EiklP5/vvvPwVEziMK2z/88MOnBMT+n/70p5/rKmcF0v/+97//r60l0re2kDi//vrrtx9//PGz5nPRG7+txy5yFSYiOQ0CIYmmBmsS0LfffvtzQIe6fTZpewtJmtUOGceHjMT6Cuw5dpErMBHJKRCk2+W2CjOlBEU+rwiQzAjo0562en3MDINk++w8cuwiZ2MiksNJkuFziQRFPmuAHN03AupYEkOf+u++++5nebXJ1T/7P/300ydZZjC1hJHf0OqHkXypn/Qt/fz73//+SaedOQLJg2NKG+hiX0kbqWObz3b8lo59qZ3aX/To569//etf+KEPIf2hZNxF1jARyeEk6LVBc0QCVyDotTLAH3UETSC4o8PSWLVJAiQQsl9nLNGpLPkNPbv4r4EYlvzFDyX9TIBHVpMRPkgKEJ8U9IF2E+yRZdzRSRuVngyW2qm+6C/HQF9zsVHHNmCDH5FZTERyOAlcs/T0e7JctVfYJwBnu1dfZT2dNb/Q2iX59YLunn4mSSWpJXlV3wn+SXBtPdvxy2e2Q0822w4lCTBk9lNnPhxH7ERmMRHJ4SRwzdLT78nq1XlboG6HVtbTWfMLvTqCeI89/YQqzwypQiJAhn+IDoG/TRLVV+jJZtrp2UGSZ2ZTUGdpIrOYiORwEtza4DiiF+hmZZUZmxmdHq0OQbrOmCpr/kb1VT6jwzJeTXp1ibDqhVkZVPlIB+p3TWFfZCsmIjmcPCjAFfMMvUC3JBv9786STVjSGfmF1o6lrFEyWvPX+grIEsiTYOqSGVSdwDgnISQZsU2p9GQz7fTsQmZFzMr43nPfS2QLJiI5BQLc0tUxyzdbgyZLQMgI/pltEUC3+OnprPmFnt0oGe3pJ0kLGcEcCOzs18COL2RZEmQ7/iFJAfjMdujJZttp7SpJgoyFyB5MRHIKCdIEqXZmQBKiDh1KAh3b0JNBldeCv1qX4JyASokf2s1+EsOS37Y+fkK9T5K6NX/Zz019+knSqoEcGfsZJ0C/Jnd8YBe/fHJMo/72jn2tneprRB5uqPeKRLZgIpLTIMhxhZ8rZgoBj4DVBuWUkSxgR/BFjt+tfpI48FGD9KzflEp8UhLgR/4gutglOTAmjFeF/mV2RSFBVB1kSSpsp+3op4TRsS+1ExmFvo6gbmlpU2QJE5HIxSSwvxdIWplBiezBRCRyMe8tETGbGj3KLjKDiUjkQlgGSyKqy2OvRpYdKWyLPIKJSORCErxTXpXcU+JT5FFMRCIicismIhERuRUTkYiI3IqJSEREbsVEJCIitzKViCwWi8ViOav86le/Wk9Ef/zjH9/+/Oc/WywWi8VyePntb3/r0pyIiNyH94hERORWTEQiInIrJiIREbkVE5GIiNyKiUhERG7FRCQiIrdiIhIRkVsxEYmIyK1cnoj4fXt8Hgm/l4/P1i+/HPkqvx559TE88j3wy6L098cff/ws+Ri8x3N31P6r047fmcfpefH29sMPP7x99dVXu391+PJE9O23304f3Ba2DNqzcuUx7P0e+KPjhPv+++8/Sz4O7/Xcvbv9qzjrOD0v/gcxgdhAjNjKpYkoQeyMwd06aM/IVcfwyPfw9ddfX3JF9my853P37vav4ozj9Lz4JcykiBFbOTwR8cXk9+wpBK1M19iOvFdCT7bkF1p96r755ptPJ0klem2J3lI7fHL1gy56DPrWoIwd/Yr/+pv/kYXRMQB1fOHoU//dd9/9LK82uVpj/6effvok630PYeQXqEPeytbaC71jxx5Gfhjj+IltlVWW+j7D0nffG7NaQk+25Bda/XYsQvTaEr21dqB+B9ixvBr9sPQ9bQW7Lefp7Pe9dKyt7xDdrSy15XnxSz98v9S18jUOT0ScNOkIJw/byAL7lIBeK4tdlW31y2C2MmC/DlL+AHKiL7VTfTINZV209mEGfHAiBOyzH99hdAz0jTpOCsiXn3Xa2GT5bGa8YMkvtGMFs+0Bupy8kLYonODVT9rDX/ys+V7r+wz4xKb33QP7lIBeK4tdlW31W8eiwj4+wpZzN+AbGWMONbAEdEbf0xZiu3ae7vm+l461+q70ZDMstQWtX/RaWeyqbKvfpePCR7jzvIh/+rCFwxMRQXVpMNt9mJEd5beSrM8fSJhtZ+sfJeTLrScNf3B8mdC2BT1Z/FTYHyU0aGU9nTW/fLb10PPVyhKE2mNHlkDV2sCsbK3vM8x+95UZ2VF+K3vO3QSo+pAJ53HVm/meZjniPIWe7IwxHeF5MX9exG7r8txp94jIjJmSU0K7D7MyeNRvSEYfDdiWdmahvSXbnu+eLH56Bep2aGU9nT1+oSdvZfwhtDo5abcm4p5sre9beK/nbu87gKo38z3Nsud8mpWFo8Z0Bs+LX+qMzotqN8spiYjpG51Ldq6d6nVyVnaE38BVQjuAYWs7s6zZ9upnZZUZmxmdllF9T97KejpQ5T2dR2R7+IjnbpXP6MyyZtOrn5XBkWO6hufFuk4Y6S5xeCLKdJzsC22n2n2YkR3lF/hSkMdXZU87s3AiYDu6b9HzvSTjpOqxZBOWdLb4hZ68leXY69QekHG1le1qA1tlo77P8FHP3Sqf+Z5mid9HzlPoyY4c0zU8L7adF9VulsMTUduJtX2YkW3dh54s65p1DbXS2qztbyEnC18c01rg5NgaiOOHK6D44QTJlHzGT09nzW+m9akLPV+tLH8MjH/I1D7fRWsDs7K1vs/Q+l3bhxnZ1n3oyR49dzNG7YVQ1Zv5nmY54jyFGdnaPvRkM7R2a/swI9u6Dz3Zs50XyPjOt3B4IkrmJMDWaWAyac2sOSEJxMhy5ZSBpSRIL/ml1H3oybBlvw1O0YXZdvaAffyncHy0U32zHf1WBlVeC32udfnjzwlDiZ/e97DkF9qncWC2PWS0SYmMkzvfb89PlcWmJ4Mqr6X2dY2l777Ws/9q5y7EB3psA0EkevR37XsC+oD+aGYf6nHUQtu1bs/3fcSYzrI2rqln/yOfFxBftz81x8mJDRmRDvNJZ3OAbT1Ql8HKAbDPgUZnyS/yWqAnSxujArPt4GsP8Zk2cqJW35SRLNCf+Knj27PpyXrfA4z8AnrI61VRfKaMZIB9rr4ofL8JQlWfskUWlvo+w3s+dwPbyNDjE722v3yOvieI35m/AdpDP+2lL/GdskUGR4zpLJ4Xc+cFJOHGZpZTHlaQ9wtXXu3Vl3xMZhKRfCxIcnvig4lINpEpep0VyceD799zQCrMvIgN7SxpBhORbCbTdk48+Xhw/yBLyiLA+ZAlvT2YiA6AMZop7wmuel5lia73XfSKfCx650CvyDrEgr1JCExEIiJyKyYiERG5FRORiIjciolIRERuxUQkIiK3YiISEZFbOTQR5RURFDkP/nuZssbo++AxS+p49j//hPbIo5ciIo9w+IzIRPRctN9H780IbO/9j2gRkUcxEb1z2u+DfzzrzaaYIfkOORG5g9MSEUs9BDa2CXJ502vqKaEng9jzxlf81Xqu3nn7a+zQCdTVt8QSeLP0xCdvw80MgL7NLHNBtYW0kWWuSq9/R/UBv+lDpbZJPX1K+4At273fLclr39NHEZGrOC0RZemHwEZQTJBLMKSE+trzQBJK8iLAEqhrPT5r8K7BnG10aSu+kUH6QqGP3CNJ3Rqxiy0kkSCryYh2khwzBhT0H+lDtW2hDj+0ATURAsmP7YxrJeOUV9aLiFzFJUtzuTJPYO7ptDK2CeAhCQwSYGt97nMACakG9p5vSgL2FlpfQCJBlqWt3uyC/iGj7xA/R/UhSaYmQ3xX3TaZV6Lr8pyIXM1l94iqvKfTyjLLIHC3wTqzgjW4ys/yXtVv97cwsq3y9L2SQJ9kWfW30rPttQlVt2dXWasXETmDp01EXNnXZah6pd7q9mD2hX17nwRm7EeMbKv8EZ0ZerYjf1U+0glr9SIiZ3BpIspyWU9nZJf7J9QlGSVBUdcjS3e5F9L6bve3MLJFluNL/+rSHFSdkZ8ZerYjf1U+0glr9SIiZ3BJIso9lPb+SKWVsV2X5OID6tNq0SHpjIL82v4WeraZdeVGfxJhHmiALM3libWen1l6thmTNjlX3SxTtkudgbr6AIiIyBUcnogyG0jAZVaArC6tZYaTG+u5kU+pyYSgmFlN7vdAfMYmdvGXOmzq0hx2lOzvIbZJqgR1+kmbARn7lMyK0M+xPdKHahvfwLEio82MWR6aoNC2T82JyDNyeCICAmCSAQEwSSkQ9FKfwMc+wTrBlTq2cxVfExlQl6fA+EwSgsyekEePfiTYptDmVmJLGzkGZiPtLIN2M0uhcGzRiYyytQ/VllLh+DhO5HzShzquFOrqTC3kYgAdEZErOSURvWcYD8qrQkJvkzqQrHtyEZGzMRFt5NUTUZYN66wos7t2VicicgUmog1kaYvyyktY9J3EQwJiSTPLeCIid2Ai+kwSzJZyNL02euUImP1kmc4kJCJ3YiISEZFbMRGJiMitmIhERORWTEQiInIrJiIREbkVE5GIiNzKoYkor5ehiACPhnNe8P9K+cdZHxcXkcrhMyITkYTeWxzY9i0OIlIxEclp8M+yvMOuhRmS77UTkXBaImL5hWDDNoEnPz2QekroySD2vMUaf7WeK2reKh07dAJ19c3XeQs38Mkbv3NVTt96wbJHtYW0kaWnSq9/R/UBv+kDfvDPfsY4rPWh56d+V7Gtsgo+8h3hp75lnTrk7ZvXIT9Pkb6IyMfmtESU5RiCDUEqgScBihIIcq2MAJfgR0AlUNd6fNbgXYM52+jSVnwjg/SFQh+5b5G6NWIXW0giQVaTEe0kOWYMKOg/0ofWFtpjDLN9oH3AX/ys+Y4/khUkucRXElu+w0p8oiMicsnSHAEaWYJiT6eVsU2wC2ynPlfqtZ7ASWAEElINnD3fFALyVlpfQPBFluWm3hV/gnwCd/wc1YdWtqUPlVlZvoMK+7kYaC8cKhwzdRkvEfnYXHaPqMp7Oq2MRMI+Aa8N1rmaX4Mr7ywdVf12fwsj2ypP3ysJvkmWVX8rPdtWtrcPs7J8B70CdbvHWr2IfByeNhExi6rBrl49t7o9mH1hn9lY1Z+xHzGyrfJHdGbo2bayng5UeU/nEVnl0XoR+ThcmoiyXNbTGdnl/gl1SUZJULkf0ZJlo9yfaH23+1sY2SLL8aV/dVkMqs7Izww921a2tw9bZe1DGqFnU1mrF5GPwyWJKPdQttybYLsuycUHMNthm4AaHZLOKMCu7W+hZ5tZV26+JxHmhj9kWSxPkfX8zNKzbWV7+zAry3fAvaB8ByS9XCxkSbR+h5XYiogcnohyJZ5gR3BCVpfWSBjo5Go6N9EpNZkQqDKryf0eiM/YxC7+UodNXZrDjpL9PcQ2SZVASz9pMyBjn0J7gH6O7ZE+VNsEeT4jS3tb+hA/VRabngyqvJZ8Xz41JyKzHJ6IgCREAMSWwJekFAhEqU8wYp9AmWBHHdu5sq6JDKjLk1l81iWizJ6QR49+JACm0OZWYksbOQZmBwnmgXYza6BwbNGJjLK1D9WWMpLBbB8oW2SB8cx3kPENtI28zshCLjzQERE5JRG9ZxgPiqzDxUN7AQEkr55cRD4mJqKNmIjmyfJgnRVlJtnOIEXk42Ii2kCWmyguK83BOJF4SEAsn7KE59iJSMVE9JkkmC3laHpt9Mqrwewny3QmIRFpMRGJiMitmIhERORWTEQiInIrJiIREbkVE5GIiNyKiUhERG7lkkTE/47gh7LGFt0KjwhvtVmDR43pD///kn/E9PFjEZFjuWxGtCW5bNENecnmUfTeCsC2bwUQETmWd5GIkjS22KzBP1/yTrQWZki+J01E5DhOSUQkBt70jC0Jov4UQ2CJi4AenfqG7lY3jGzyBuhagH7Ut0+jl6U1PplFZYZDgknioQ799q3hgIy6+BERkcc4JRER3AnsWcJKUqIAQRwd5JDgzn0YqLphj03uN2Gbn4BABviKDUtu+Emdv6UjInIdhyeiBPH6+0AkJGQUSGKqsJ8ZSdUNe2yoS3KBVif7SZgBu9ZXyLG4PCcicgyHJ6LMQlqQRV5nI22Buh322ARmMVnSqzojm5E8rNWLiMg8hyeiUZCu8pFO6NXvsQHuEZHEevepRjYjeVirFxGReW5NRHX5rlJ1wx6bLOflXk+r07OBkTys1YuIyDyHJ6I8pZaHCEIN3tHhXkzuz/BAQe67VN2wx6aVre2HLOO1944Cdbk3JSIij3F4IspTZSyHZSaSJ9wo3EMigWS/FvRrHdthyQZyD6kmp8jQqUtz6FR/LT41JyJyHYcnIiBY56GFJB6SAktlbEcnT6ehk6DPfi2VkQ0wA0NOfdpoZXzGLv4p9K2SJFXfqhCQUZc2RETkMU5JRO8BZlWZWVVIZj25iIjsw0Q0gPtDzJTqrIgZFrLRvSMREdmOiWgBlt9IPCQg7jFlmVFERI7DRLQCs58s05mERESOx0QkIiK3YiISEZFbMRGJiMitmIhERORWTEQiInIrJiIREbmVSxIR/3+DH8oaW3QrPGa91ebV4S0PlDVGY8rj6NTxP1L5Z10fUReRq7lsRtQLhCO26Ia8qFT6tGPae3ME2745QkSu5l0kogTVLTYfjXZM+Qfd3myKGZLv0hORKzklEZEY8qN0JIj6EwyBJSACXnT4qYjQ6oaRDQE1NtWWfuR3jCjoZemJT2ZRmQEQgGeWuaDaQtrIMleljgUF3aP6gN/0obI2/tiyXcc85Cc70kcRkbM5JRER/AiqBESogRgIcugghwQ/7lNA1Q17bOgDMmzz0w/IAF+xYUkKP6lbI3axhSQSZDUZ0Q7JB3IMFPQf6UO1baEOP6PxzzJm/RmNkHFCR0TkCg5PRAlyNRgTEJFRIIGxwn5mA1U37LGhrgb2Vif7CdhbaH0BiQRZlrZ6swsSDrIk1Pg5qg8z48+4tHYhui7PichVHJ6IMitoQRZ5vZpvC9TtsMcmcJWfJb2qs2Szxsi2yntjkUDP8UDV30rPdmb8e3aVtXoRkSM5PBGNgliVj3RCr36PDbAsRtBv75PAyGaGkW2VP6IzQ8925K/KRzphrV5E5EhuTUR1+ahSdcMemyzn5V5Iq9OzmWVkiyzLgZnF1aU5qDojPzP0bEf+qnykE9bqRUSO5PBElCfI8hBBqMEtOtyryL0RgnXuS1TdsMemla3tb6Fnm1lXbvQnEeaBBsjSXJ5Y6/mZpWc7M/5Zpsw4tlCXe28iImdzeCLKU1fMBjITyU17CjMBEkj2a0G/1tWZxJIN1NlHklNk6NSlOXSqvz3ENg8dENQJ3rQZkLFPybGgn9nQI32otvENM+PvU3Mi8kwcnoiAYEbAS+AjUBIYCcIJmujk6S10EhTZr6UysoE8sUZ92mhlfMYu/ik1ecwSW9rAnm1mI+0sg3YzS6EwBtGJjLK1D9WWUuH4lsafQl2dqYU81YeOiMgVnJKIPgKMC+VVYdaYmWOFZN2Ti4ichYloJ6+eiLJsWGdFmd21szoRkTMxEe0gS1uUV17Cou8kHhIQ99CyjCciciUmooYkmC3laHpt9MoRMPvJMp1JSETuwEQkIiK3YiISEZFbMRGJiMitmIhERORWTEQiInIrJiIREbmVQxNRXitDqfDf+pRZeKS49XEmR7Y3GoNH4dFqfPP/PvnHUx+3FpH3wOEzoiOCcF7KeRVHt3fEGFR6b0Fg27cgiMh74OkSUYLukYF8iTPae3QMWvhn096MkhmS74UTkVfn9ETE8hFvfSbYtxBE0eXt1OixTcCNjxQgYdS3WKOXpSk+mdVkhkCAnl0KHLUH+KLvkaeflapD+/XnJsKMn95YQLbz+0WV/LxD60tE5JU4PRFltlFlQODNzzgQqJMQoKefey8E3fyMAzKobbBkxT2U1M0Q2xb8khiAdtmn0N/APm1FVhNOWPOzNBb+dpCIvHcuWZobyeqVPNvR6ekTnGtyaXWyX5PELK0v6M028ls9JBtIkmAWFGi/+pvx09bXsahJqSVtuTwnIq/MbYkoMxyCcZs8evqBWUCWsarOks0aPdv0r5LAz2wGejpQ/W3xs3UsYK1eROTZuS0RMYsgEKeuXtX39IHlLWx692FGNjP0bEf+qvwonT1jEdbqRUSendsSUcj9HOoTgHv6ufeSeyWtTs9mlp5tEkNdMgNk9DfbrR1U+YyfMDsWlbV6EZFn59Z7RHUZiiAcnZF+la3tb6Fnm8RX/3cnS2p5go0ZGvv0vVL9zfhhezQWWYZsl+wCddxHEhF5VQ5NRLnJTskMoCcD9gmgmeHk3g/UWUQrQ68uzaFT29hDrz0CP3JK+k1SqbMY+oIdOjmOPJxAQXfGD7qjsfCpORF57xyaiNCtZSQDthP42U7ghcwICM4J3q2MT4J5gnEKAX8rvfaA7cx6KCSQdmZC+1lO4xMb+oBufK35QYZObyyQI6szqpCn79KOiMgrcvjSnBwPiakmp0Di7MlFRF4JE9ELkOW9OitiFoesnaGJiLwaJqIXgeU3Eg8JiHtkWQYUEXl13nUiou8z5VVg9pNlOpOQiLwXnBGJiMitmIhERORWTEQiInIrJiIREbkVE5GIiNyKiUhERG7laRJRXpNDeRVGfeaNB5Sj4fHtvePD4970l/9Byj/D+gi4iDwDTzUj6gX1Z+fKPucFqFvpvZmBbd/MICLPgInoQa7qc5LJnrb4B9jeDI0Zku+qE5G7OSUREdyw443TLP8keBJM61uo27ddRw55s3QtIf4pvP16yS+fzCRy9U/w3bpshh1vzI5/2gqRBdpDl/ZaqEvfqc/vEbU2mfmwn59/oM9pKyWM/AJ1yKss5Ccr0BERuYvDExEBMcGTAJ4ACrmnQuDLzzcgC+xHFxIoe4kDGfc6YMkvgTl+SW7Y1DZnwEftA/bZj+9Q26vQN+pIOJBjy/2a2GT5bGZ8YMkv+HtGIvLsHJ6I0K9X2GwjA4L3UmBt9wEbZCS1kAQXZv1WH7NkJlSPKfdXoG0LerL4qbA/SmjQyno6a34zfj0YD+q4eBARuYvDExEJARsC5CjwcyVel9dCuw9c2cdf4Ko/V/yVLX5nyWxlRM93T1ZnPW2Buh1aWU9nj9/KWr2IyNkcnoh4PLgGx/Zqm/sr1Nef+w7tfkCfEupsKOzxO8Oaba9+VlaZsZnRaXm0XkTkbE55WAFyLwb7JKMsI+V+RRsE2/0QO5bEsG3vaez1O0OSam8GBj3fSzISZY8lm7Cks8VvZa1eRORsTrlHVJfksrQGbdBb2w+5z0Ri6y35rflp97eQp/FoO+2S8HJPque7J4sfZnPxw3ElSc/46ems+c1SZTtmIbYiIndxSiIisGV2wmeCYmYXyOoSGoEzySb7LfikLr4qs373gH38p5CEaKfX554MqrwW+lzrkjD4jCx+0g/2Mw5LfsGn5kTk2TklESVQsl0TR2ZHJBV0+CSoJyDW0hLb3hLUrF8C+R7iM22kD9U3ZSQL9Cd+0j/o2fRk7XGGkV9AD3keC68go676EhG5mtPuEcnzwMVAbyZJ8urJRUSuxET0AWCZj9lgnRUxu0I2unckInIVJqIPAstvJB4SEEuLLOG5JCciz8CHTUQc10x5TzD7yTKdSUhEngVnRCIicismIhERuRUTkYiI3IqJSEREbsVEJCIit2IiEhGRWzk8EeUdaVvZasf/waC/p60z4W0FlFn2jtcj8Og248f/E+UfW32cW0Tu4vBElJdsbmWPHfpXB/Gj2TteeyHxtW9ZYNu3LIjIXRyaiBLktgbWvXboXxnEj2bvcT8C/8zam7ExQ/K9cyJyB4cmorwBupZA0M0P2FH4HZ0sB43ssMnv7VDQq0tIVXcW7JmFZAZAAK6BmXoCMn7R4WfJK+wnebRvKGCbY6S+JT5z3Gz3jnutf0vjGHptQbbbYwJk1LW+RETO5vClOfQT+CoEVgIjEOzYT7CFnl3uA6Gfn3RAFno2a9Bm7FiS4h5JfKZfBHpIcEYHsoyWZa2aECjVd4XEkJ9m4HiTgKDVX+ofUL80jkttpf/1ZyJCxhcdEZEruSQR9a62CbLIEvR7dgTRpcTTs5khdgneIYmlwn5mJLGrsE/wDyOdeuxsR2ekT2n7NzuOo7ZqUmqhLerqsYiIXMEliSgzm0oCH1fz0LMLXK1nuanqLNksMbKrs5G2QO84aj20+xA7kkWbXHr6PRnMjOPWtipr9SIiZ3BJIhoFuCof6bAMRZDlUeNWZ2SzxshuzR/LZNRn9pH9tRkRfa9JbmYG1cpgRr61rcpavYjIGVySiBIY65IRIOMKPtutXZbKck+j1enZzDCyi5xgPoJ7KJmdcVxJSmHkG3K/h/okiJ7+yMfMOIbZtipr9SIiZ3BJIkpCyU1+yJJSnuDq2bWytf1ZRnbMvpBzLyXLWgT9BHKSULvc1dLzzX61y0wKRvqtDGbHcdRWEujoGKjL/TARkas4PBHVq/YEcAIfckqu5gmq9Sq+ZxcZM6K6NIcOpe7PUu1aal0t7YysLRzHUp/YJ8DHT+55QXvc1UfLzDguteVTcyLyjByeiHIFTjCswZjtzDgoBNDelXu1a2V8EnQTNGuZpdoQ0FvwTTvUp61Af5I42oJuKwts038SAttJDNAeY2wpvf6tjSOyUVvxX2dUIU/foSMiciWHJ6L3DLOy3mwis7VXgMRUk1MgEfbkIiJnYyKahJnHCGYkS/XPRJb36qwoM706sxIRuQoT0SQEapbE2hkRsyHkrwTLbxwPCYj+5x6XiMgdvKtERF9nyh4y66n3gljOytNqrwbHk2U6k5CI3IkzIhERuRUTkYiI3IqJSEREbsVEJCIit2IiEhGRW5lKRH/729/e/vGPf1gsFovFcnj53e9+t56ILBaLxWI5swwTkYiIyNWYiERE5FZMRCIiciNvb/8H0nTyuE5lTJIAAAAASUVORK5CYII=;" vertex="1" parent="1">
          <mxGeometry x="270" y="630" width="418" height="229" as="geometry" />
        </mxCell>
        <mxCell id="fraQmBW8h_pSJzxYigO1-7" style="edgeStyle=orthogonalEdgeStyle;rounded=0;orthogonalLoop=1;jettySize=auto;html=1;entryX=0.5;entryY=0;entryDx=0;entryDy=0;" edge="1" parent="1" source="fraQmBW8h_pSJzxYigO1-5" target="fraQmBW8h_pSJzxYigO1-4">
          <mxGeometry relative="1" as="geometry" />
        </mxCell>
        <mxCell id="fraQmBW8h_pSJzxYigO1-5" value="" style="shape=image;verticalLabelPosition=bottom;labelBackgroundColor=default;verticalAlign=top;aspect=fixed;imageAspect=0;image=data:image/png,iVBORw0KGgoAAAANSUhEUgAAAaIAAADNCAYAAAD63nRUAAAAAXNSR0IArs4c6QAAAARnQU1BAACxjwv8YQUAAAAJcEhZcwAAEnQAABJ0Ad5mH3gAABudSURBVHhe7Z09kty2Fka9EKcvsFfgBThVpkUotHNVeQNagTagcqpcsQInShUqdOYd6NUZ63Ndw2AT5BDN7plzqlBNXgAX4E/fjwDZ7O++ioiInIhCJCIip6IQiYjIqShEIiJyKv8Rol9//fXry5cvTSaTyWQ6PKExLf8Roh9++OHrjz/+2HVgMplMJtPehLagMS1dIfrtt9++rYmIiBwD2qIQiYjIaShEIiJyKgqRiIicikIkIiKnohCJiMipKEQiInIqCpGIiJyKQiQiIqeiEMld8ueff3599+7d1xcvXnyz/M3r168fkvyN+0PuAYVIbpKPHz8+BNDvvvvuIbH86dOnBwFi/dWrV//kVWYF3r/++us/bY3AdqSvfH748GG3rz3M2h8iR6IQyc1B4CRof/78+Zvl7xHQ+/fv/yU+dXk2aXsLiBB1GLkFxJRR3LX6LXIPKERyUyBC7XRbJcEd+LxGQGcEs0c8MhJqQYyu0W+Re0EhkpshIsPnJRLE+awBfem+EZD35s2bh/LkM0UWe62TkQ/rX758ebAhjmkrKSz5BdaxIzwt1Qdc6h99woYgIm4///zzQ7maQnyQ/vjjj8X9gS/yUvbt27ffcv7m0naJHI1CJDdDAj5BcIQE0ZDAX22AP/IyRUZQpUydJiNFABEg1gn6IWUql/xCRj4kAj3Bv8eW/mHLvSZsvfs/2Nq6LeTVuvjM+tp2iRyNQiQ3w1LQXKJXvmfLlX+F9QTeXp3W1iuz5he4z5UpOhJ1WkEa7V9bj/zWznJtP3Uraa8KPiKH+MDIdokciUIkN0MvaF6iV75nqyODNkFdDq2tV2bNb4VAXwWJ6bawp3+QERfCERi91JFLr27aW2LLdokcgUIkN0MC9dIUVksvOI7aKiN1RsqMkJEH9SJGa34u5eOLFNpRS6/uJX+wli9yNAqR3Ax5UGD0XkQvYF6y1cfBK5fqhEtlLvntiWruQcXfiJ+Ubck0GgKH3zrSgl7dCOHSfk6dpf6IHI1CJDcFQZKR0RIEW57mgl6Q7dl4UAAbo4UIA/dHtvjplRnxy1RZD/IyktnTv0A58thniFIrfL26aY86Kc9+zX5f64/I0ShEclMQ8CJG7RU5wZI8yiQAk1iGng2qvSb81bwEXT5ji5+MIlhPQL7kF7KOGFXfGcVkRDLavyUQDPJboah1WQ4sZ3uS6v6+1B+RGShEcnMQrJliIjgmCBI4uVJvg3zSki1QLwEbv1v95MEAfNSgvuQXUpcAn1FGfPREdq1/7IMe6Vvrs9YlVdiGtLelPyIzUIhERORUFCIRETkVhUhERE5FIRIRkVNRiERE5FQUIhERORWFSERETkUhEhGRU1GIRETkVIaF6Pvvv//Xr7RNJpPJZDoqoTEt/xGi//3vf19/+umnr7/88ovJZDKZTIcltAWNaXFqTkREroL3iERE5FQUIhERORWFSERETkUhEhGRU1GIRETkVBQiERE5FYVIRERORSESEZFTOU2I/vrrr4fXOhzJq1ev/nldROX169cP6Zr8+eefD/35/PnzN8vz4Cke16X2ZzNjX55Fe6xm7lPPweMY3ZefPn36+uLFi4e4t4fThOj9+/dTduoZB6uFg8dB+fjx4zfL8+GpHtcz2p+1L2+FWfvUc/A4tuxL4h1xj/i3lVOEKIF6xk4942C1vHnz5ipXSbfGUz6u125/5r68FWbsU8/B49izLxm5Ef+2Mk2I2Ii3b9/+s/MIzBm2sRx7L4We7ZJfaMuT9+7du4cdWkm5NqXcpXb45EqBspRj50d4yKP8hw8fHtah7UOuMlj/8uXLgy3gj7Jplz7Udnt+aD9+UrfaKvjgREn7tZ8jPOXjGuoxoB7TqykfLh0nwC9phByP+GC5ty/JWzrvRsFH7/hjf8y5dWm/tr5Dym7lUlu9/VZT6Nku+YW2/Np2tSnl1toBymR/U+9ezkHOp5TbwjQhooPpECcty9hCNixk46st9aptq192WGsD1uvOyhcvX7BL7VSfDEeZH01e6wfa8tDrO1CWkwFom3USB736oU3AX/ys+Y4/Tl7ISRNfI+CTOqP7n3KtLfWqbavfui8qrOMjbDmuAd/Y2OdQv+yBMkvHCUaDAAEgfaNuvvzQazO29rwbIf3sHf/qe8+5xTr23n6tvis92wiX2oLWL+VaW+pV21a/l7YLH+E5nYPZHrZ5C9OEiI25dBDbdRixHeW3kquNOjoYbScHPdSDWGnrQ2vrXU0kGCR4tHVg1JaTucI6fR7lqR/XBI36kAnHuJYbOU6jtH5YTjt8ZjnE1p53I6wd//iujNpmHL8lPAdv9xxMPxG3LUwTooBCZthXN6hdh1EbPNZvYKej8ks7bks7sMXe2jg52zI5sPQR2jowaqtXM23aylM9rr1jALXcyHEaJb4IHu0Xu7YZerZR1o5/XQ6jtnDU8RvBc/DfZW7lHFzL7zFViBg2slNyVVA71+vsqO0Iv4Grk6UDt7Ud2GJvbb0yUO29Mo+x7eG5H9eRMqPQB/qSujVo9fz1bKOs1e3lj9rgyOO3hufgeplRjj4H1/J7TBOiTAOg+tB2rtfZEdtRfoGTAXt8Vfa0A1vsrS0nQx0mAzauWrJc68BWGyfeXjyuY8dpK5lrx0cCQW0z9GyjpO7S8e/5HrUdefzW8By87XNwLb/HNCFqO7O2DiO2revQs2U+tc7dVto6a+shQ+09Q9ycoPQtZLidfrZ1YNSWLwdXaukfJ3K9Alqj9bu2DiO2revQsz32uGYf5YZ9qOVGjtMo1KnnCu2mHT6zHHq2UdaO/2h7I7a1dejZRmjrra3DiG3rOvRsz/0cJI9zbAvThCiKjerX4WcUvCp6vghR41yx5YCSovKX/JLqOvRs1GW9DcApC6PttLRPyEAtnwOek4aUfmGjXVJsnHDZ9p6fakudng2qvaba1zUu7Zeaz/q9HVeID8qxDHyxU47+rh0n4Is48mXEJ+XSFp/pf/pKG9iyHaQKedjawNVS69dEmzVvz7l1ab9u8TPCpbZqPuueg9c5B0P6fjNPzUVV2UA6zyc7KRvb5gN52fBsCOvs4JS55Bd7TdCzpY2lBKPt4KtCWez1SqWWJy3ZgPq5IiKx7QkMtTxpiy3Qf7YFez0eozzl4xpYxkY5PinX9pfPpeME+CWtQV18RUxqAGv7mrZI9bzLNlTbEmwb5fFRt7v6Jm2xwRHHb5S1Y9jmA3k5PzwH/w118fWYczBE4NPHUaYJ0XOGA1kPpsg16AUGkWuCYO2JfQrRBDJsrqMikZlwrnm+yZkweiLu1VHZKArRJBiaclA4OCIz4f5B7n2InAHnX6YQ96AQTYQrg3uZoqtzv5eSyCx651svye1BnNsrQqAQiYjIqShEIiJyKgqRiIicikIkIiKnohCJiMipKEQiInIqU4Qor6bwUcu5jL7CY+l48LglefwGID9Ge8wjmCIie5g2IlKIbov2ePTe/sDy3l9Gi4jsRSF6JrTHgx+g9UZTjJB8T56IXJPpQsRUD4GNZYJc3jCbfFLo2SD1edMs/mo+V++8dTb1KBPIq2+nzRtkgU/ewpsRAH0bmeaCWhfSRqa5Kr3+HdUH/KYPldom+fVV80Bdlnv/W5LXzaePIiKzmS5EmfohsBEUE+QSDEmhvm49IEIRLwIsgbrm47MG7xrMWaYsbcU3NkhfSPSReyTJWyP1UhciJNiqGNFOxDH7gET5x/Sh1m0hDz+0AVUIAfFjOfu1kv2UV+WLiMxmuhBVcmWewNwr09pYJoCHCBgkwNb83OcABKkG9p5vUgL2FlpfgJBgy9RWb3RB/7DRd4ifo/oQkaliiO9athXzSso6PSci1+KqQgTV3ivT2jLKIHC3wTqjgjW4ys/0Xi3frm9hqW61p++VBPqIZS2/lV7dXptQy/bqVdbyRUSO5OaFiCv7Og1Vr9Tbsj0YfVG/vU8CI/WXWKpb7Y8pM0Kv7pK/al8qE9byRUSO5BQhynRZr8xSvdw/IS9iFIEir0em7nIvpPXdrm9hqS62bF/6V6fmoJZZ8jNCr+6Sv2pfKhPW8kVEjuSqQpR7KO39kUprY7lOycUH1KfVUgbRWQrya+tb6NXNqCs3+iOEeaABMjWXJ9Z6fkbp1c0+acW5ls00ZTvVGcirD4CIiMxkmhBlNJCAy6gAW51aywgnN9ZzI59UxYSgmFFN7vdAfKZO6sVf8qhTp+aoR8r6HlI3okpQp5+0GbCxTsqoiPLZtsf0odaNb2BbsdFm9lkemiDRtk/NicgtMU2IgAAYMSAARpQCQS/5CXysE6wTXMljOVfxVciAvDwFxmdECDJ6wp5y9CPBNok2t5K6tJFtYDTSjjJoN6MUEtuWMrGRtvah1iVV2D62Ezuf9KHuVxJ5daQWcjFAGRGRazBViJ4yPQG4JxD0VtQBse7ZRURmoRDt5N6FKNOGdVSU0V07qhMRmYlCtINMbZHueQqLviM8CBBTmpnGExG5JgpRQwRmSzqaXhu9dASMfjJNpwiJyBkoRCIicioKkYiInIpCJCIip6IQiYjIqShEIiJyKgqRiIicyhQhyutljnrEWO4fHg3nvOD3SvnhrI+LiwhMGxEpRBJ6b3Fg2bc4iAgoRDIdfizLO+xaGCH5XjsRmS5ETL8QbFgm8OSvB5JPCj0bpD5vscZfzeeKmrdKpx5lAnn1zdd5CzfwyRu/c1VO33rBsketC2kjU0+VXv+O6gN+0wf84J/17OOw1oeen3qsUrfaKvjIMcJPfcs6edjbN69D/p4ifRGR58l0Icp0DMGGIJXAkwBFCgS51kaAS/AjoBKoaz4+a/CuwZxlytJWfGOD9IVEH7lvkbw1Ui91IUKCrYoR7UQcsw9IlH9MH9q60G5jGO0D7QP+4mfNd/whVhBxia8IW45hJT4pIyLPl+lCVCFAY0tQ7JVpbSwT7ALLyc+Ves0ncBIYAUGqgbPnm0RA3krrCwi+2DLd1LviT5BP4I6fo/rQ2rb0oTJqyzGosJ6LgfbCocI2k5f9JSLPk6sKEVR7r0xrQ0hYJ+C1wTpX82tw5Z2po1q+Xd/CUt1qT98rCb4Ry1p+K726rW1vH0ZtOQa9BHW5x1q+iDx9bl6IGEXVYFevntuyPRh9UT+jsVp+pP4SS3Wr/TFlRujVbW29MlDtvTKPsVUemy8iT59ThCjTZb0yS/Vy/4S8iFEEKvcjWjJtlPsTre92fQtLdbFl+9K/Oi0GtcySnxF6dVvb3j5stbUPaYRencpavog8fa4qRLmHsuXeBMt1Si4+gNEOywTUlEF0lgLs2voWenUz6srN9whhbvhDpsXyFFnPzyi9uq1tbx9GbTkG3AvKMUD0crGQKdF6DCupKyLPl2lClCvxBDuCE7Y6tYZgUCZX07mJTqpiQqDKqCb3eyA+Uyf14i951KlTc9QjZX0PqRtRJdDST9oM2Fgn0R5QPtv2mD7UugnyfMaW9rb0IX6qLXV6Nqj2mnK8fGpORNaYJkSACBEACTYEvohSIBAlP8GIdQJlgh15LOfKugoZkJcns/isU0QZPWFPOfqRAJhEm1tJXdrINjA6SDAPtJtRA4ltS5nYSFv7UOuSlmww2gfSFltgf+YYZP8G2sZeR2QhFx6UEZHny1Qhesr0ArL04eKhvYAAxKtnF5HnhUK0E4VonEwP1lFRRpLtCFJEnh8K0Q4y3URyWmkM9hPCgwAxfcoUnvtOREAhaojAbElH02ujl+4NRj+ZplOERCQoRCIicioKkYiInIpCJCIip6IQiYjIqShEIiJyKgqRiIicyt0LEY8E38qjzPw2pvdoNW8QIB3NrG3n0Wq2hd/75IenPm4tIrO4eyHKSzVvhZ4QzWLGtvfegsCyb0EQkVnctRAlaD5HIZq17fzYtDd6Y4Tke+FEZAZThYhgyZueE5x5A3Sll58pID7JI9hCrv5Zz9ud88bnmgC/9W3TlKt+8ZUrfALs1mmzS9sVW2i3o0IewZ3y5Ne/zNi77bDkNyQv+zt1s9yWB2zkUUZE5EimChFBsAb5NuiTnyBOgGOdRKDnk8BHyjRR/r4BPyFlKuRjw2dbp/XLPZDqbwR8LG1XfIfaXiXbi+BAAn39WwnS1m2/5BcQoYgZ+zmCBhG85FfSPmVERI5kmhBlxFCvoHOvAXpX2ORjSxBlmVRpbb0yBNdLATvrBOKtrG1X2xb0bPFTYX1J0KC19cqM+K19Zznlqyi1sK/Ic3pORI5mmhDlqn4JhKLNT7DbEtR7ZQJX8ZmGGq2zxtp29Xz3bPHTS1CXQ2vrlVnzm/2OYLVCXMv1WMsXEdnDNCHaG9SqvVemtfXKAFN+BOX6F+Fhqc4Ia3V7+aO2ykidkTIt7I8qVnWEs1Z3LV9EZA/TR0S5N9GS/DpNBNgyrdYLfK2tVybTU7nXMVJnlLXt6vm+ZKt/bV65VCdcKrPkN+TeGGUjRj1/lbV8EZE9TBOiPLVGsMsUEMIQkYlY5GY8ZGouT231Al9r21OmXd/C2nb1fPds8cN9mfhBlC+JQmvrlRnxGzsgSPGRacyaX4lfEZEjmSZEBL86BUQiWOdKnWBHPimjIsQpAR1b6iUw8hlb6tSRVYJtbAhEnZqjTPW7B+ovbVf1zXLKtzao9proc83buu2X/ALLiEnW+Uxdn5oTkTOYJkRAUMyTWHy200Xk5wqeVG+gx5a0ZMsVPf4ToFsbn4hFgmkSgXwPS9tVfZOWbIH+xE/6B706PVtv22HJL2CjbEY/ESHAjq2OUkOeaKztiIgcwVQhkvsDYariFBC2nl1E5LEoRPIvGJEyUqyjIkZe2DJaFRE5EoVI/gPTbwgPAsS0I9N7TsmJyCwUom9w/2MkPRcY/WSaThESkZkoRCIicioKkYiInIpCJCIip6IQiYjIqShEIiJyKgqRiIicylWFiN+jjD4GvaVsJe9kOxIeX6Y//KYmP+70kWYRkWO4+ohoi7jsEaK8uPMoem8aYNk3DYiIHMOTEqKIxpFCxA86ec9aCyMk370mIvJ4pgoRwpD/HUIgmNpqxYUpLgJ6yuS/iKAtG5bq5I3TNQH9qG/5rm+r5pNRVEY4CEyEhzzK1z4FbOTFj4iI7GOqEBHcCeyZwoookYAgThnskODOfRioZcOeOrnfRN38FQQ2wFfqMOWGn+T5/zwiIvOZJkQJ4vU/iBCkBH2IMFVYz4iklg176pAXcYG2TNYjmIF6ra+QbXF6TkTkcUwTooxCWhL0oY5G2gR1OeypExjFZEqvllmqs2QPa/kiIrLONCFaCtLVvlQm9PL31AHuESFivftUS3WW7GEtX0RE1rkJIarTd5VaNuypk+m83Otpy/TqwJI9rOWLiMg604QoT6nlIYJQg3fKcC8m92d4oCD3XWrZsKdOa1tbD5nGa+8dBfJyb0pERPYxTYjyVBnTYRmJ5Ak3EveQEJCs10T5msdyuFQHcg+pilNslKlTc5Sp/lp8ak5EZD7ThAgI1nloIcKDKDBVxnLK5Ok0yiTos15TZakOMALDTn7aaG18pl78k+hbJSJV36oQsJGXNkREZB9ThegpwKgqI6sKYtazi4jINhSiFbg/xEipjooYYWFbunckIiLjKEQDMP2G8CBA3GPKNKOIiDwehWgQRj+ZplOERESOQyESEZFTUYhERORUFCIRETkVhUhERE5FIRIRkVNRiERE5FSmCBG/s8lrcyq8jYA0Co9Mtz5mcmR7S/vgsfDoOL75PVN+WOvj5CJyz0wbER0RhPPS0WtxdHtH7INK7y0PLPuWBxG5Z25WiBJ0jwzkl5jR3mP3QQs/pu2NKBkh+d47EblXriZETB/x1m2CfQtBlLL81xDlWCbgxkcSIBj5TyIS5TI1xSejmowQCNCjU4FL7QG+8ud6pPSzUsvQfv27iTDip7cvIMv8lUZL/l6j9SUicg9cTYgy2qg2IPDmbxwI1BEE6JXPvReCbv7GARvUNpiy4h5K8kZI3Rb8IgxAu6yT6G9gnbZiq4IT1vxc2hf+N5KIPFWuJkSwZKtX8iynTK88wbmKS1sm61UkRml9QW+0kf8iQmwgIlH/vpz2q78RP21+3RdVlFrSltNzInKPnC5EGeEQjFvx6JUPjAIyjVXLXKqzRq9u+ldJ4Gc0A70yUP1t8bN1X8BavojIrXK6EDGKIBAnr17V98oD01vU6d2HWaozQq/ukr9qP6rMnn0R1vJFRG6V04Uo5H4O+QnAvfK595J7JW2ZXp1RenUjDHXKDLDR3yy39aDaR/yE0X1RWcsXEblVThci1us0FEE4ZZbKV9va+hZ6dSN89bc7mVLLE2yM0Fin75Xqb8QPy0v7ItOQ7ZRdII/7SCIi98YUIcpNdlJGAD0bJIBmhJN7P1BHEa2NcnVqjjK1jT302iPwYyel34hKHcXQF+pRJtuRhxNIlB3xQ9mlfeFTcyLyVJkiRAnASUs2YDmBn+UEXsiIgOCc4N3a+CSYJxgnEfC30msPWM6oh4SAtCMT2s90Gp/UoQ+Uja81P9go09sX2LHVEVXI03dpR0TknpgiRDIHhKmKU0A4e3YRkXtAIbojMr1XR0WM4rC1IzQRkXtBIbozmH5DeBAg7pFlGlBE5F55FkLE/ZORdC8w+sk0nSIkIveOIyIRETkVhUhERE5FIRIRkVNRiERE5FQUIhERORWFSERETuXmhCivyTnjcWoehaZ9fp+TH4r6eLSIyFxuckR0hhD13lrAsm8tEBGZi0L0DX4cyjvbWhgh+R43EZF5TBUiAjiCwhunmeKKuDDCqG+hbt92HTvkzdI1hfgn8fbrS3755G8SMsJBYCI86Vv+F6iSv3Oo/RMRkeOYJkSIRP47h8BP0CegQ+4DEdzz9w3YAuspCxGD3ogFG/dz4JJfBCh+ETfqJM//+hEROY9pQkTwrqOIjDoA8bgkPO06RMjq/ZoIXBj1W31AfPegLHlOz4mIzGGaEGV00vsTucBoo06vhXYdGMHEX2CklNFQZYtfWLKHtXwREdnPNCHiEeg6HdaOKLiXQ379u+/QrgfKk0IdDYU9fpfsYS1fRET2M02IQu7FEMgjRoxqWM89mTbQt+sh9bjHQ932vs1ev0v2sJYvIiL7mSZEBO46JZepNWgD+9p6yH0mhK035bfmp10PmcZbmkIkrzf6EhGRxzNViAjeGZ3kvg1kyg5bnUJDaCI2WW/JgwXtVB+M+m3xqTkRkfOYKkQE/4w2qnBkdISoUIZPRjkJ+jW1pC5C0zLqt95ngohUfatCyO+YKCMiIsczTYjuDYSyN8pCzHp2ERE5BoXoG9wfYqRUR0WMsLAt3TsSEZHHoxAVmH5DeBAgpv6Y1nNKTkRkLgpRA6OfTNMpQiIi81GIRETkVBQiERE5FYVIRERORSESEZFTUYhERORUNgnRy5cvv/7+++8mk8lkMh2W0JZhIaqvyTGZTCaT6ag0JEQiIiLXRCESEZET+fr1/4QVpu5mDV3cAAAAAElFTkSuQmCC;" vertex="1" parent="1">
          <mxGeometry x="270" y="352.5" width="418" height="205" as="geometry" />
        </mxCell>
      </root>
    </mxGraphModel>
  </diagram>
</mxfile>
